<svg width="1280" height="726" viewBox="0 0 1280 726" fill="none" xmlns="http://www.w3.org/2000/svg">
<g opacity="0.1">
<path d="M1280 0H0V381.5C0 381.5 88.8768 529 289.5 529C387.094 529 430.851 506.856 472.323 485.869C509.679 466.966 545.18 449 616.5 449C682.834 449 723.406 480.044 762.335 509.83C811.728 547.623 858.475 583.392 951.844 551.157C1034.71 522.549 1080.14 573.962 1127.55 627.626C1138.59 640.122 1149.74 652.741 1161.5 664.5C1213.5 720.5 1280 726 1280 726V0Z" fill="url(#paint0_linear)"/>
<path d="M4 726C1.79089 726 0 724.209 0 722V726H4Z" fill="url(#paint1_linear)"/>
</g>
<defs>
<linearGradient id="paint0_linear" x1="1280.5" y1="363.484" x2="0" y2="363.484" gradientUnits="userSpaceOnUse">
<stop stop-color="#303030"/>
<stop offset="1" stop-color="#353535"/>
</linearGradient>
<linearGradient id="paint1_linear" x1="1280.5" y1="363.484" x2="0" y2="363.484" gradientUnits="userSpaceOnUse">
<stop stop-color="#303030"/>
<stop offset="1" stop-color="#353535"/>
</linearGradient>
</defs>
</svg>
