<svg width="464" height="426" viewBox="0 0 464 426" fill="none" xmlns="http://www.w3.org/2000/svg">
<path d="M275.161 124.27C249.042 124.482 223.952 118.216 199.959 111.233C175.966 104.25 152.168 96.4094 126.562 93.2079C110.092 91.1389 91.3474 91.4642 78.3985 99.4776C49.7486 117.194 60.0819 151.567 76.3904 172.771C90.5132 191.125 81.7575 214.742 67.7529 233.708C61.1935 242.592 53.5157 251.142 48.5177 260.546C43.5197 269.951 41.4379 280.574 46.3805 289.779C95.1761 380.625 377.216 344.799 440.74 296.19C451.902 287.647 454.28 273.807 446.277 263.924C432.852 247.353 397.183 244.457 387.586 226.49C382.304 216.6 387.006 205.185 393.861 195.569C408.604 174.937 433.852 156.383 434.446 133.409C434.856 117.636 421.896 102.342 402.451 95.6218C382.06 88.5684 354.176 90.6099 339.758 104.094C324.934 117.954 298.231 124.086 275.161 124.27Z" fill="url(#paint0_linear)" fill-opacity="0.1"/>
<path d="M389.88 296.124C389.88 296.124 385.065 292.946 380.293 295.203C380.293 295.203 381.762 298.036 387.803 297.765L389.88 296.124Z" fill="#6C63FF"/>
<path d="M390.471 296.292C390.471 296.292 391.937 301.871 388.266 305.667C388.266 305.667 386.056 303.368 388.246 297.734L390.471 296.292Z" fill="#6C63FF"/>
<path d="M396.477 290.937C396.477 290.937 396.121 286.192 385.406 287.763C385.406 287.763 385.359 290.827 389.12 292.277C392.881 293.726 394.601 292.504 396.477 290.937Z" fill="#6C63FF"/>
<path d="M397.135 290.905C397.135 290.905 401.664 292.359 397.625 302.408C397.625 302.408 394.64 301.742 394.099 297.742C393.558 293.742 395.172 292.359 397.135 290.905Z" fill="#6C63FF"/>
<path d="M403.2 284.171C403.2 284.171 403.815 276.363 392.865 277.166C392.865 277.166 392.081 284.218 401.269 286.051L403.2 284.171Z" fill="#6C63FF"/>
<path d="M405.88 92.1129V295.215C405.88 301.252 400.054 306.184 392.861 306.184H117.301C110.108 306.184 104.282 301.272 104.282 295.215V92.1129C104.282 86.0639 110.108 79.8936 117.301 79.8936L392.845 80.5635C400.038 80.5635 405.88 86.0835 405.88 92.1129Z" fill="#474747"/>
<path d="M405.895 92.5674V101.97H104.298V92.5674C104.298 85.7858 109.799 80.2853 116.58 80.2853C116.584 80.2853 116.588 80.2853 116.592 80.2853H393.617C400.399 80.2893 405.895 85.7858 405.895 92.5674Z" fill="url(#paint1_linear)"/>
<path opacity="0.8" d="M118.911 95.4664C121.309 95.4664 123.252 93.523 123.252 91.1256C123.252 88.7282 121.309 86.7848 118.911 86.7848C116.514 86.7848 114.57 88.7282 114.57 91.1256C114.57 93.523 116.514 95.4664 118.911 95.4664Z" fill="#FA5959"/>
<path opacity="0.8" d="M131.538 95.4664C133.935 95.4664 135.879 93.523 135.879 91.1256C135.879 88.7282 133.935 86.7848 131.538 86.7848C129.141 86.7848 127.197 88.7282 127.197 91.1256C127.197 93.523 129.141 95.4664 131.538 95.4664Z" fill="#FED253"/>
<path opacity="0.8" d="M144.165 95.4664C146.562 95.4664 148.506 93.523 148.506 91.1256C148.506 88.7282 146.562 86.7848 144.165 86.7848C141.768 86.7848 139.824 88.7282 139.824 91.1256C139.824 93.523 141.768 95.4664 144.165 95.4664Z" fill="#8CCF4D"/>
<path d="M169.728 312.919C171.25 316.724 178.265 313.104 181.152 313.612C182.182 313.804 184.09 313.518 185.461 313.264C186.362 313.095 187.028 312.935 187.028 312.935C187.028 312.935 185.438 307.638 185.238 307.481C185.038 307.324 178.057 303.125 178.057 303.125L172.537 302.733C168.65 303.329 168.628 310.264 169.728 312.919Z" fill="#202020"/>
<path opacity="0.1" d="M193.665 304.492L198.802 300.472L206.884 292.508L204.694 292.41C204.365 292.617 203.448 293.275 203.413 294.075C203.373 295.046 201.23 294.141 200.114 294.698C198.997 295.254 193.544 302.235 192.596 302.192C191.648 302.149 190.884 301.706 190.488 302.384C190.48 302.4 190.469 302.416 190.457 302.427L193.665 304.492Z" fill="black"/>
<path opacity="0.1" d="M170.656 303.842L171.213 304.096C175.131 305.769 179.93 309.272 180.29 309.91C180.51 310.302 183.303 311.994 185.458 313.264C186.359 313.095 187.025 312.935 187.025 312.935C187.025 312.935 185.434 307.638 185.234 307.481C185.034 307.324 178.057 303.125 178.057 303.125L172.537 302.733C171.789 302.843 171.115 303.242 170.656 303.842Z" fill="black"/>
<path d="M159.82 292.429C164.233 303.294 178.92 309.177 188.102 314.486C188.102 314.486 189.434 313.417 190.762 312.339C192.09 311.262 193.379 310.208 193.399 310.149C193.438 310.028 193.955 308.676 193.834 308.582C193.771 308.543 193.501 307.991 192.995 307.352C192.463 306.643 191.769 306.067 190.97 305.675C183.084 301.44 185.575 300.711 176.173 294.976L182.245 300.265L193.438 304.731L198.574 300.711L206.656 292.747L203.988 292.629C193.538 292.169 168.185 280.566 162.778 285.342C159.354 288.367 159.295 291.156 159.82 292.429Z" fill="#555"/>
<path d="M180.874 299.481L184.204 301.048L181.657 297.326L176.956 294.192L180.874 299.481Z" fill="#5B5771"/>
<path d="M190.758 263.203L191.992 267.305L193.583 276.543L199.436 276.935L201.132 274.122L202.821 271.321C202.821 271.321 203.875 267.587 204.635 263.975C205.305 260.782 205.74 257.679 205.027 257.342C204.38 257.045 203.957 255.967 203.679 254.811C203.644 254.67 203.612 254.525 203.585 254.381C203.389 253.401 203.256 252.41 203.193 251.411C203.193 251.411 190.927 250.772 192.639 255.83C192.944 256.692 193.101 257.601 193.101 258.518C193.101 258.745 193.085 258.976 193.062 259.203C192.89 260.802 192.051 262.251 190.758 263.203Z" fill="url(#paint2_linear)"/>
<path d="M188.208 262.525L188.647 269.495L189.642 275.426L190.758 278.169L191.754 293.197C191.754 293.197 201.352 294.31 203.687 293.197C203.855 293.127 204 293.013 204.11 292.868C206.931 288.609 206.006 276.277 206.006 276.277L207.091 268.3L206.374 264.167L204.184 257.562L202.617 259.912C201.442 262.067 196.649 267.194 196.545 266.768C194.485 261.834 194.978 263.983 193.066 259.219L188.208 262.525Z" fill="url(#paint3_linear)"/>
<path d="M203.604 254.545C207.122 254.545 208.102 257.761 211.628 258.737C216.381 260.445 219.652 261.459 219.334 267.168C218.846 275.94 215.463 286.702 219.659 292.038C220.94 293.715 233.368 306.409 226.26 306.306C222.276 306.248 222.473 314.285 220.638 310.059C220.019 308.632 219.659 303.103 216.721 301.44C215.62 300.817 201.496 291.654 201.496 291.654C201.218 283.196 200.266 281.068 202.617 272.841C203.988 269.902 203.326 264.423 203.205 262.067C203.034 258.753 203.604 254.545 203.604 254.545Z" fill="url(#paint4_linear)"/>
<path d="M193.05 259.211C190.761 258.741 186.381 258.331 184.455 260.257C184.138 260.574 183.338 260.339 182.625 262.216C181.912 264.093 181.842 266 180.913 266.874C179.985 267.748 179.519 268.347 179.48 268.986C179.44 269.624 179.597 269.769 179.241 269.981C178.884 270.192 178.363 271.015 178.524 271.336C178.684 271.658 186.806 278.662 186.806 278.662C187.311 282.101 189.357 290.26 186.367 292.637C185.564 293.276 191.742 293.213 191.742 293.213C191.742 293.213 192.02 287.101 192.259 286.784C192.498 286.467 192.098 279.936 192.098 279.936C192.098 279.936 192.059 274.361 192.576 272.884C192.903 271.95 192.817 269.794 192.709 268.335C192.503 265.55 192.437 261.895 193.05 259.211Z" fill="url(#paint5_linear)"/>
<path opacity="0.1" d="M192.627 255.838C192.933 256.7 193.089 257.609 193.089 258.525C197.117 259.724 201.442 258.016 203.565 254.388C203.369 253.409 203.236 252.418 203.174 251.419C203.174 251.419 190.915 250.78 192.627 255.838Z" fill="black"/>
<path d="M186.578 249.546C186.59 254.568 190.668 258.635 195.695 258.623C200.717 258.612 204.784 254.533 204.772 249.507C204.76 244.484 200.682 240.418 195.655 240.429C191.362 240.437 187.659 243.446 186.774 247.65C186.641 248.273 186.578 248.907 186.578 249.546Z" fill="url(#paint6_linear)"/>
<path d="M180.725 270.651L178.535 271.329C178.641 271.771 178.468 272.237 178.096 272.504C177.72 272.77 177.508 273.217 177.54 273.679C177.54 273.679 177.301 274.557 176.756 274.757C176.212 274.956 175.843 276.269 175.843 276.269L174.01 278.38C174.01 278.38 173.332 278.937 173.454 279.215C173.575 279.493 172.737 279.571 172.737 279.571L173.175 286.662L176.956 287.375L179.307 287.136L181.218 286.423L182.891 285.424L183.647 283.466L186.989 278.373L180.725 270.651Z" fill="#3F3D56"/>
<path d="M173.277 280.167C173.277 280.167 168.419 273.158 164.795 276.943C161.172 280.727 166.269 286.854 167.463 286.655C168.658 286.455 174.355 286.138 174.355 286.138L173.277 280.167Z" fill="#EE8E9E"/>
<path d="M198.112 252.077C197.153 247.893 197.13 245.726 191.311 247.18C187.823 248.306 183.812 248.047 184.611 243.317C186.146 236.725 193.998 233.272 200.462 235.708C203.642 237.137 205.322 240.034 206.073 243.317C206.834 246.643 206.802 250.712 204.38 252.077C203.048 252.828 201.631 248.756 200.462 253.319C200.223 253.812 198.606 254.232 198.112 252.077Z" fill="#202020"/>
<path opacity="0.1" d="M193.426 304.731L198.562 300.711L206.645 292.747L203.977 292.629C203.663 292.911 203.463 293.295 203.412 293.714C203.373 294.69 201.23 293.785 200.114 294.341C198.997 294.897 193.544 301.879 192.596 301.832C191.648 301.785 190.884 301.35 190.488 302.024L190.457 302.071C190.296 302.251 190.084 302.38 189.849 302.431L193.426 304.731Z" fill="black"/>
<path d="M183.072 304.453L185.653 312.68L186.045 313.973L187.275 313.636L189.986 312.892L202.053 309.577C206.501 309.37 215.545 308.688 219.071 301.636C219.071 301.636 222.08 293.632 213.645 290.807C205.211 287.983 204.799 292.308 204.799 292.308L204.686 292.378C204.356 292.586 203.44 293.244 203.404 294.043C203.365 295.015 201.222 294.11 200.106 294.666C198.989 295.223 193.544 302.235 192.595 302.192C191.647 302.149 190.883 301.706 190.488 302.384C190.48 302.4 190.468 302.416 190.456 302.427C190.163 302.819 189.281 302.929 188.69 302.944C188.368 302.944 188.137 302.944 188.137 302.944L188.063 302.968L187.452 303.148L183.072 304.453Z" fill="#555"/>
<path opacity="0.1" d="M183.742 288.449L184.984 288.649L185.501 283.513C185.501 283.513 184.933 283.426 184.22 283.262C184.408 283.975 183.977 286.749 183.742 288.449Z" fill="black"/>
<path opacity="0.1" d="M187.444 303.144L192.701 309.51L192.737 309.471C192.776 309.354 193.293 307.998 193.172 307.904C193.05 307.81 192.137 305.832 190.304 304.997C189.375 304.543 188.596 303.83 188.055 302.948L187.444 303.144Z" fill="black"/>
<path opacity="0.1" d="M187.503 314.157L188.079 314.486C188.079 314.486 189.411 313.416 190.739 312.339C192.067 311.262 193.356 310.208 193.376 310.149C193.415 310.028 193.932 308.676 193.81 308.582C193.748 308.543 193.477 307.99 192.972 307.352C189.407 306.353 191.679 308.829 191.981 308.942C191.981 308.942 187.64 307.947 187.401 312.672C187.37 313.17 187.405 313.667 187.503 314.157Z" fill="black"/>
<path d="M191.91 316.159L196.131 316.478L200.353 316.797C202.096 317.86 203.578 318.32 205.606 318.231C206.194 318.231 206.648 318.192 206.648 318.192C206.648 318.192 206.284 308.5 206.01 307.481C205.881 306.991 205.226 307.089 204.599 307.344C201.994 308.391 199.32 308.148 196.533 308.637C195.616 308.797 193.986 307.559 193.986 307.559C189.528 306.086 192.027 308.833 192.353 308.954C192.353 308.954 188.016 307.959 187.777 312.684C187.538 317.409 191.91 316.159 191.91 316.159Z" fill="#202020"/>
<path d="M203.02 312.417C203.103 314.423 204.666 316.915 205.602 318.231C206.19 318.231 206.644 318.192 206.644 318.192C206.644 318.192 206.28 308.5 206.006 307.481C205.876 306.991 205.222 307.089 204.595 307.344C203.824 308.79 202.954 310.799 203.02 312.417Z" fill="#565387"/>
<path opacity="0.1" d="M203.02 312.417C203.103 314.423 204.666 316.915 205.602 318.231C206.19 318.231 206.644 318.192 206.644 318.192C206.644 318.192 206.28 308.5 206.006 307.481C205.876 306.991 205.222 307.089 204.595 307.344C203.824 308.79 202.954 310.799 203.02 312.417Z" fill="black"/>
<path opacity="0.05" d="M201.708 312.684C202.237 314.619 202.229 316.794 203.072 318.106C203.201 318.145 203.33 318.173 203.463 318.192C204.176 318.247 204.893 318.263 205.606 318.231C206.194 318.231 206.649 318.192 206.649 318.192C206.649 318.192 206.284 308.5 206.01 307.481C205.881 306.991 205.226 307.089 204.6 307.344C204.122 307.536 203.663 307.771 203.224 308.041C203.224 308.041 201.031 310.204 201.708 312.684Z" fill="black"/>
<g opacity="0.1">
<path opacity="0.1" d="M206.213 245.26L206.19 245.346C206.155 245.46 206.108 245.57 206.057 245.679C206.096 245.534 206.147 245.393 206.213 245.26Z" fill="black"/>
<path opacity="0.1" d="M184.619 243.329C184.686 243.058 184.784 242.796 184.913 242.545C184.893 242.612 184.874 242.682 184.858 242.753C184.709 243.634 184.768 244.539 185.034 245.393C185.089 245.852 185.32 246.275 185.677 246.569C186.268 246.96 187.185 246.619 187.667 247.129C187.977 247.454 187.992 248.034 188.392 248.234C188.541 248.3 188.709 248.32 188.87 248.288C189.928 248.14 190.539 246.945 191.557 246.616C192.149 246.463 192.78 246.518 193.336 246.768C193.567 246.843 193.771 246.976 193.928 247.16C194.268 247.599 194.029 248.249 194.186 248.782C194.406 249.519 195.287 249.812 196.051 249.91C196.815 250.008 197.677 250.059 198.19 250.639C198.535 251.074 198.68 251.634 198.582 252.179C198.539 252.367 198.539 252.559 198.582 252.747C198.793 253.346 199.828 253.256 200.098 252.786C200.294 252.441 200.235 252.159 200.697 252.061C201.03 252.034 201.367 252.093 201.673 252.23C202.5 252.516 203.373 252.649 204.247 252.621C204.968 252.633 205.673 252.418 206.264 252.01C206.519 251.803 206.731 251.544 206.883 251.254C206.75 251.787 206.449 252.261 206.025 252.606C205.434 253.017 204.729 253.233 204.008 253.217C203.134 253.244 202.261 253.111 201.434 252.825C201.128 252.688 200.791 252.629 200.458 252.657C199.996 252.751 200.067 253.048 199.859 253.378C199.589 253.852 198.554 253.938 198.343 253.342C198.3 253.154 198.3 252.958 198.343 252.77C198.441 252.226 198.296 251.665 197.951 251.231C197.438 250.655 196.58 250.6 195.812 250.502C195.044 250.404 194.167 250.11 193.947 249.374C193.79 248.841 194.029 248.198 193.689 247.752C193.532 247.571 193.328 247.434 193.101 247.36C192.541 247.109 191.914 247.054 191.318 247.203C190.3 247.532 189.689 248.727 188.631 248.88C188.47 248.907 188.306 248.888 188.153 248.825C187.761 248.621 187.738 248.042 187.428 247.72C186.946 247.207 186.029 247.536 185.438 247.156C185.081 246.862 184.85 246.439 184.795 245.981C184.529 245.123 184.47 244.214 184.619 243.329Z" fill="black"/>
</g>
<path opacity="0.1" d="M206.829 275.199C206.1 276.183 205.262 277.095 204.623 278.137C203.926 279.156 203.585 280.378 203.656 281.613C204.322 280.927 204.627 279.979 205.05 279.121C205.763 277.663 206.829 276.429 207.726 275.093C207.898 274.839 208.999 273.362 208.443 273.291C207.985 273.233 207.091 274.862 206.829 275.199Z" fill="black"/>
<path d="M186.672 259.121L194.653 274.212C194.892 274.659 194.241 275.47 193.203 276.022L153.372 297.087C152.334 297.636 151.295 297.718 151.06 297.268L143.08 282.181C142.841 281.73 143.44 280.825 144.479 280.277L184.31 259.211C185.352 258.659 186.437 258.67 186.672 259.121Z" fill="#474747"/>
<g opacity="0.2">
<path opacity="0.2" d="M186.672 259.121L194.653 274.212C194.892 274.659 194.241 275.47 193.203 276.022L153.372 297.087C152.334 297.636 151.295 297.718 151.06 297.268L143.08 282.181C142.841 281.73 143.44 280.825 144.479 280.277L184.31 259.211C185.352 258.659 186.437 258.67 186.672 259.121Z" fill="#6C63FF"/>
</g>
<path d="M185.326 265.585L164.577 276.557L164.964 277.288L185.712 266.315L185.326 265.585Z" fill="url(#paint7_linear)"/>
<path d="M186.269 267.372L165.521 278.344L165.907 279.075L186.656 268.102L186.269 267.372Z" fill="url(#paint8_linear)" fill-opacity="0.2"/>
<path d="M187.211 269.155L166.463 280.128L166.849 280.859L187.597 269.886L187.211 269.155Z" fill="url(#paint9_linear)" fill-opacity="0.2"/>
<path d="M188.158 270.94L167.409 281.913L167.796 282.644L188.544 271.671L188.158 270.94Z" fill="url(#paint10_linear)" fill-opacity="0.2"/>
<path d="M153.234 280.488C150.519 281.922 149.477 285.287 150.915 288.006C151.789 289.66 153.434 290.764 155.295 290.945L154.856 290.114C154.558 289.55 154.723 288.852 155.248 288.484C156.263 289.158 157.634 288.88 158.304 287.865C158.539 287.513 158.664 287.097 158.672 286.674C159.268 286.451 159.937 286.702 160.239 287.262L160.69 288.116C162.186 285.432 161.226 282.043 158.547 280.547C156.897 279.626 154.895 279.603 153.226 280.488H153.234ZM158.574 285.35C158.574 285.389 158.57 285.428 158.554 285.468C158.527 285.518 158.488 285.562 158.437 285.593L158.339 285.648C158.586 286.843 157.822 288.014 156.627 288.261C155.432 288.508 154.261 287.744 154.014 286.549C153.979 286.38 153.963 286.212 153.967 286.04H153.939C153.571 285.887 153.391 285.471 153.528 285.099C153.614 284.962 153.724 284.841 153.853 284.739C154.214 284.386 154.429 283.916 154.464 283.415C154.519 283.513 154.57 283.611 154.609 283.716C154.68 283.454 154.95 283.297 155.213 283.368C155.303 283.411 155.397 283.446 155.495 283.473C155.581 283.473 155.667 283.458 155.749 283.423L156.27 283.223C156.6 283.003 157.038 283.066 157.297 283.364C157.618 283.618 157.908 283.912 158.167 284.23C158.421 284.547 158.562 284.943 158.574 285.35Z" fill="url(#paint11_linear)"/>
<path d="M170.132 281.64C170.093 286.894 180.964 288.01 180.964 288.01L183.742 288.449L184.984 288.649L185.501 283.513C185.501 283.513 184.933 283.426 184.22 283.262C183.17 283.015 181.806 282.592 181.52 281.996C181.043 281.001 170.171 276.382 170.132 281.64Z" fill="#EE8E9E"/>
<path d="M218.989 273.08C218.076 283.591 211.224 290.239 211.224 290.239C206.979 292.104 202.731 293.37 198.112 292.963C193.706 292.574 184.364 292.053 183.812 289.801C183.714 289.401 184.85 283.532 184.372 283.113C186.459 283.198 203.456 283.547 203.977 282.525C206.301 278.457 207.677 263.991 214.37 263.459C219.592 263.045 219.34 269.04 218.989 273.08Z" fill="url(#paint12_linear)"/>
<path d="M59.0608 182.487C60.4751 180.156 63.1509 178.902 65.8463 179.302V184.144H62.9197L60.6005 183.544L59.0608 182.487Z" fill="#4C4981"/>
<path opacity="0.1" d="M59.0608 182.487C60.4751 180.156 63.1509 178.902 65.8463 179.302V184.144H62.9197L60.6005 183.544L59.0608 182.487Z" fill="black"/>
<path d="M66.0536 180.583L62.4532 183.11C62.4532 183.11 62.4219 182.6 62.3318 181.911C62.1515 180.606 61.748 178.647 60.8783 178.267C59.5541 177.687 44.8157 172.144 50.0419 170.283C55.2681 168.422 63.2798 174.526 63.2798 174.526C63.2798 174.526 63.6951 174.667 64.3533 176.034C64.702 176.751 65.1368 177.973 65.5051 178.969C65.8224 179.87 66.0536 180.583 66.0536 180.583Z" fill="url(#paint13_linear)"/>
<path d="M94.8408 184.473L95.2482 184.277L96.4 185.589L95.4598 187.595L93.8574 186.953L94.2296 185.35L94.8408 184.473Z" fill="#4C4981"/>
<path d="M89.3878 301.977C89.3878 301.977 88.3535 301.855 87.9383 303.465C87.523 305.076 86.904 309.55 86.904 309.55C86.904 309.55 86.6572 312.292 86.1596 312.899C85.6621 313.507 85.1684 317.409 88.6826 317.906C96.1257 318.96 93.6594 309.677 93.6072 305.162L89.3878 301.977Z" fill="#202020"/>
<path d="M101.654 302.466C101.654 302.466 103.867 304.817 103.828 307.52C103.789 310.224 103.578 313.894 103.578 313.894C103.361 315.476 105.066 316.523 103.828 318.278C100.757 322.204 95.4962 318.869 96.2789 314.298C96.5257 312.856 97.27 306.365 97.27 306.365L101.654 302.466Z" fill="#202020"/>
<path d="M107.138 252.978C103.768 262.385 101.606 270.811 100.455 280.641C99.828 285.965 99.0287 292.367 99.0287 292.367L95.5498 296.794C95.5498 296.794 95.3735 297.15 95.158 297.667C93.1028 302.463 93.7153 308.931 93.4029 314.047C92.9445 314.486 86.8682 314.298 86.6997 313.55C87.828 307.904 88.8114 308.296 88.8114 303.207C92.3334 293.213 91.0127 286.68 91.3265 283.031C91.4558 281.566 91.542 280.617 91.542 280.617L95.209 254.882L95.5028 252.806L95.8045 250.702L107.138 252.978Z" fill="url(#paint14_linear)"/>
<path d="M102.911 315.544C102.951 315.998 97.5793 316.335 96.7527 315.838C95.9261 315.34 96.7527 309.178 96.7527 309.178C97.1342 306.438 96.8116 303.518 96.1494 300.735L94.5784 295.814C93.6146 293.679 92.2278 287.587 91.3424 283.043C89.5758 273.844 88.5212 265.131 86.1083 255.983C85.7361 254.553 85.4775 253.527 85.4775 253.527C85.4775 253.527 91.7459 253.002 95.5225 252.817C97.2698 252.735 98.4922 252.723 98.3472 252.868C98.2023 253.013 98.1709 253.769 98.1788 254.862C98.1788 261.903 99.5529 269.069 99.7537 276.159C100.788 283.043 99.9182 287.336 100.788 299.744C100.619 300.696 102.112 303.661 102.112 304.253C102.112 304.845 102.488 308.762 102.488 308.762C102.488 308.762 102.872 315.089 102.911 315.544Z" fill="url(#paint15_linear)"/>
<path d="M106.68 194.361L105.967 195.145L105.505 195.642L102.794 198.522L95.8009 199.305L92.0869 198.31L91.1663 198.067C91.1663 198.067 91.1663 196.199 91.3347 193.958C91.5698 191.086 92.1379 187.595 93.4855 186.647C95.5017 185.065 96.1611 182.095 96.4591 179.693C96.4591 179.693 97.3523 179.2 98.5903 178.624C101.83 177.112 107.425 175.027 105.478 179.693C105.192 180.379 104.949 181.08 104.749 181.793C104.718 181.895 104.69 182.001 104.667 182.103C104.016 184.704 104.447 186.279 104.933 187.149C105.015 187.298 105.109 187.439 105.215 187.576C105.344 187.76 105.505 187.92 105.685 188.054L106.492 193.166L106.559 193.589L106.68 194.361Z" fill="url(#paint16_linear)"/>
<path opacity="0.1" d="M105.481 179.964C105.113 180.849 105.661 179.239 105.481 179.964C104.008 181.014 100.533 183.999 98.5781 183.999C97.2618 183.999 96.8661 183.76 95.7339 183.251C96.0786 182.181 96.3215 181.08 96.4626 179.964C96.4626 179.964 108.169 173.507 105.481 179.964Z" fill="black"/>
<path d="M108.455 174.526C108.459 179.141 104.972 183.016 100.38 183.493C100.067 183.529 99.7536 183.544 99.4363 183.544C94.4608 183.544 90.4255 179.509 90.4255 174.534C90.4255 169.558 94.4608 165.523 99.4363 165.523C104.412 165.523 108.447 169.558 108.447 174.534L108.455 174.526Z" fill="url(#paint17_linear)"/>
<path d="M109.744 215.008L108.463 218.361C108.463 218.361 107.413 218.408 105.783 218.455H105.623L103.245 218.518C98.8724 218.616 92.843 218.643 89.6971 218.185C88.5218 218.012 87.7383 217.793 87.609 217.44C87.5345 217.241 87.4875 217.037 87.4601 216.825C87.4405 216.661 87.4248 216.492 87.4209 216.328C87.3465 214.173 88.3533 210.843 88.3533 210.843C88.3533 210.843 88.9332 204.222 88.9332 203.932C88.9332 203.642 88.4356 199.008 88.4356 199.008L89.4268 195.286L91.3347 193.95L93.7049 186.847C93.7049 199.008 99.428 193.595 104.479 190.569L106.496 193.159L109.29 196.238L109.744 215.008Z" fill="url(#paint18_linear)"/>
<path opacity="0.1" d="M66.0536 180.583L62.4532 183.11C62.4532 183.11 62.4219 182.6 62.3318 181.911C64.1104 181.162 65.1917 179.501 65.5051 178.969C65.8225 179.87 66.0536 180.583 66.0536 180.583Z" fill="black"/>
<path d="M78.712 189.147L77.9285 188.943C76.2763 190.696 73.6786 191.598 71.762 193.119C70.8774 193.254 66.7418 181.268 65.8463 179.301C65.8463 179.301 63.4447 183.975 59.0608 182.487C61.346 187.622 62.3386 193.033 64.5221 198.169C65.9154 204.718 77.7103 202.968 80.9451 198.741V193.82L78.712 189.147Z" fill="url(#paint19_linear)"/>
<path opacity="0.1" d="M71.3462 193.821C71.3462 193.821 72.3805 197.668 71.738 198.083L71.3462 193.821Z" fill="black"/>
<path opacity="0.1" d="M105.783 218.455C100.298 218.631 88.1533 218.847 87.6087 217.448C87.4833 217.092 87.4207 216.716 87.4207 216.336L105.399 217.284L105.783 218.455Z" fill="black"/>
<path d="M111.977 237.848L111.276 239.337C110.142 244.463 110.785 249.759 110.073 254.933C103.525 254.382 89.2191 258.142 83.7227 254.933C84.502 247.965 81.406 240.608 81.3721 233.452C81.3721 231.16 81.4857 229.425 81.7638 229.076C82.6727 227.956 86.563 216.786 86.563 216.786L87.4484 216.833L89.7991 216.959L103.272 217.668L105.384 217.777L105.607 218.463L111.977 237.848Z" fill="#555"/>
<path d="M118.68 232.88L118.806 234.204C118.806 234.204 112.146 232.034 112.475 229.366C112.804 226.698 112.475 227.015 112.475 227.015L117.834 227.47L118.68 232.88Z" fill="#4C4981"/>
<path opacity="0.1" d="M118.68 232.88L118.806 234.204C118.806 234.204 112.146 232.034 112.475 229.366C112.804 226.698 112.475 227.015 112.475 227.015L117.834 227.47L118.68 232.88Z" fill="black"/>
<path opacity="0.1" d="M75.7967 194.89C76.4784 195.47 77.2815 195.885 78.1473 196.112C77.8927 196.065 77.6537 195.952 77.4539 195.787C76.9759 195.446 76.5215 195.078 76.0631 194.718C75.6948 194.428 75.2286 193.934 74.7703 193.828C75.0758 194.216 75.4206 194.573 75.7967 194.89Z" fill="black"/>
<path opacity="0.1" d="M75.899 196.633C76.1144 196.876 76.2868 197.151 76.4122 197.452C76.518 197.793 76.5689 198.154 76.561 198.51C76.6159 199.019 76.5532 199.533 76.3769 200.011L75.2917 197.437C75.1076 196.998 74.8999 196.559 74.6962 196.136C74.5983 195.956 73.9832 195.211 74.0537 195.055C74.2574 194.604 75.6992 196.387 75.899 196.633Z" fill="black"/>
<path opacity="0.1" d="M105.728 210.91C106.461 210.823 107.147 210.506 107.687 210.005C106.586 210.142 105.548 210.573 104.463 210.788C103.456 211.023 102.402 210.925 101.458 210.514C102.692 211.133 104.388 211.153 105.728 210.91Z" fill="black"/>
<path opacity="0.1" d="M102.621 203.337C102.422 203.368 102.222 203.317 102.061 203.196C101.235 202.725 100.42 202.232 99.6166 201.715C98.7665 201.245 97.9673 200.688 97.2268 200.061C98.8683 201.546 100.396 202.8 102.621 203.337Z" fill="black"/>
<path opacity="0.1" d="M104.917 212.112C105.348 212.132 105.783 212.097 106.206 212.011C106.637 211.92 107.013 211.67 107.268 211.313C107.115 211.278 106.951 211.301 106.818 211.384C105.505 211.936 104.067 212.108 102.665 211.881C103.335 212.167 104.201 212.108 104.917 212.112Z" fill="black"/>
<path opacity="0.1" d="M97.0778 231.321C96.2159 231.583 95.3305 231.76 94.4334 231.842C93.736 231.873 93.0387 231.861 92.3413 231.803L88.9525 231.587L87.2561 231.478C87.0563 231.478 86.2375 231.478 86.641 231.086C86.8448 230.894 87.977 231.015 88.2669 231.007C88.831 231.007 89.3913 230.98 89.9515 230.976C91.072 230.976 92.1964 230.976 93.3168 231.047C94.5744 231.098 95.8281 231.188 97.0778 231.321Z" fill="black"/>
<path opacity="0.1" d="M93.1565 232.998C92.5806 232.974 91.8401 233.319 91.2485 233.389C90.5864 233.468 89.9204 233.499 89.2544 233.472C87.9342 233.44 86.6296 233.174 85.4033 232.688C87.9929 232.817 90.5747 232.896 93.1565 232.998Z" fill="black"/>
<path opacity="0.1" d="M85.9085 234.772C86.1593 234.823 86.4061 234.89 86.649 234.972C88.075 235.384 89.5951 235.023 91.0329 234.667C90.6725 235.207 90.0025 235.45 89.3679 235.591C88.3062 235.858 87.1975 235.897 86.1201 235.709C85.7793 235.642 84.9448 235.521 84.7567 235.168C84.4982 234.647 85.5912 234.721 85.9085 234.772Z" fill="black"/>
<path opacity="0.1" d="M93.9203 237.44C94.3473 237.527 94.7704 237.636 95.1857 237.769C96.792 238.161 98.4609 237.621 100.075 237.252C102.014 236.81 104.004 236.626 105.995 236.704C105.638 236.704 105.074 237.017 104.725 237.123C104.267 237.26 103.805 237.386 103.342 237.515C102.43 237.742 101.509 237.922 100.576 238.055C98.6999 238.326 96.7998 238.412 94.9036 238.302C94.0378 238.255 92.553 238.345 91.793 237.911C92.4316 237.527 93.1798 237.362 93.9203 237.44Z" fill="black"/>
<path d="M95.2484 184.277C94.5471 184.042 93.7792 184.128 93.1524 184.516C90.7369 186.186 85.4776 182.538 81.983 184.802C79.7969 186.219 79.417 187.948 77.9282 188.959L80.9448 198.753C80.9448 198.753 81.983 204.085 77.9282 217.601C76.9918 218.675 68.6471 227.258 71.6794 229.742C74.0732 231.627 76.604 233.327 79.2484 234.835C82.8557 236.618 89.4474 218.51 89.5599 216.747C90.1069 208.172 90.8228 199.594 93.7401 191.466C94.654 188.92 93.8449 186.605 95.2484 184.277Z" fill="url(#paint20_linear)"/>
<path d="M114.586 206.898C113.748 206.574 113.446 206.642 113.236 207.415C112.445 210.331 108.891 212.653 110.653 221.875C110.892 222.326 111.264 224.586 111.636 227.29C111.871 228.978 112.107 230.839 112.318 232.535C112.71 235.626 112.972 238.177 112.972 238.177C112.972 238.177 112.228 240.919 111.194 240.081C110.159 239.243 104.075 232.998 103.785 227.462C103.582 223.564 103.664 220.183 103.73 218.514C104.066 210.931 107.211 205.637 106.187 196.802L104.937 187.161C108.372 187.868 111.317 189.549 114.708 190.338C117.935 191.218 116.281 194.302 117.815 196.214C118.148 196.63 114.586 206.898 114.586 206.898Z" fill="url(#paint21_linear)"/>
<path opacity="0.1" d="M112.318 232.535C110.618 232.206 108.114 231.419 108.169 229.695C108.224 228.077 110.167 227.497 111.636 227.29C111.891 228.978 112.106 230.839 112.318 232.535Z" fill="black"/>
<path d="M117.564 231.681C117.497 231.826 117.215 231.952 116.843 232.073C115.942 232.288 115.025 232.437 114.101 232.52C114.101 232.52 108.35 232.065 108.432 229.46C108.491 227.587 111.088 227.109 112.549 226.98C113.121 226.929 113.521 226.937 113.521 226.937C113.521 226.937 117.815 231.145 117.564 231.681Z" fill="url(#paint22_linear)"/>
<path d="M116.114 195.975L117.811 196.222C118.422 197.299 119.1 198.334 119.84 199.325C123.493 203.859 127.109 209.134 128.169 214.976C129.162 220.236 121.134 229.847 118.818 234.216C118.818 234.216 114.183 227.391 112.487 227.019C119.997 219.833 117.242 223.177 119.934 215.102C118.009 212.556 117.484 208.509 114.598 206.906L113.313 203.772L116.114 195.975Z" fill="url(#paint23_linear)"/>
<path opacity="0.1" d="M122.269 211.419C123.205 210.627 124.384 210.181 125.611 210.153C124.827 210.291 123.997 210.459 123.425 211.007C123.197 211.246 122.998 211.509 122.821 211.791C122.621 212.073 121.027 214.102 120.772 213.785C120.392 213.299 121.948 211.693 122.269 211.419Z" fill="black"/>
<path opacity="0.1" d="M118.524 209.46C119.037 209.413 119.487 209.096 119.699 208.626C119.899 208.159 120.024 207.662 120.067 207.156C120.189 206.31 120.361 205.472 120.58 204.645C120.635 204.477 120.667 204.3 120.663 204.12C120.643 203.944 120.592 203.771 120.51 203.615C120.42 203.352 120.298 203.098 120.15 202.863C119.84 203.211 119.758 203.991 119.628 204.43C119.476 204.994 119.331 205.558 119.194 206.122C119.127 206.42 118.551 209.46 118.524 209.46Z" fill="black"/>
<path d="M111.973 167.454C113.7 170.169 113.282 173.66 112.956 176.571C112.956 183.713 121.716 187.631 112.956 200.951C112.032 202.53 113.852 197.229 111.973 193.875C106.829 184.692 102.184 189.21 99.0956 180.841C98.4531 179.117 99.0956 177.198 98.9036 175.356C98.5902 172.066 95.7694 169.546 92.9761 168.175C86.2612 162.949 103.499 153.351 111.973 167.454Z" fill="#202020"/>
<g filter="url(#filter0_d)">
<rect x="305.261" y="138.267" width="63.4669" height="24.2898" rx="4" fill="#474747"/>
<path d="M363.31 146.091H333.159V147.157H363.31V146.091Z" fill="url(#paint24_linear)"/>
<path d="M363.31 148.685H333.159V149.75H363.31V148.685Z" fill="url(#paint25_linear)" fill-opacity="0.2"/>
<path d="M363.31 151.278H333.159V152.344H363.31V151.278Z" fill="url(#paint26_linear)" fill-opacity="0.2"/>
<path d="M363.31 153.872H333.159V154.937H363.31V153.872Z" fill="url(#paint27_linear)" fill-opacity="0.2"/>
<path d="M317.907 143.752C313.958 143.744 310.75 146.941 310.746 150.89C310.742 153.296 311.949 155.545 313.954 156.869V155.658C313.958 154.839 314.57 154.15 315.384 154.048C316.137 155.423 317.86 155.925 319.236 155.172C319.71 154.914 320.101 154.522 320.36 154.048C321.175 154.15 321.786 154.839 321.79 155.658V156.9C325.104 154.749 326.045 150.322 323.898 147.012C322.581 144.982 320.325 143.756 317.907 143.752ZM320.595 152.669C320.148 154.169 318.57 155.027 317.069 154.581C315.866 154.224 315.04 153.12 315.04 151.862C315.04 151.372 315.165 150.89 315.408 150.467L315.377 150.448C315.051 150.056 315.091 149.476 315.471 149.135C315.655 149.033 315.851 148.959 316.058 148.92C316.677 148.74 317.21 148.332 317.547 147.784C317.559 147.929 317.559 148.07 317.547 148.215C317.782 147.96 318.182 147.94 318.436 148.179C318.44 148.179 318.44 148.183 318.444 148.183C318.838 148.577 319.19 148.582 319.729 148.653C321.411 148.484 321.856 152.774 320.595 152.669Z" fill="url(#paint28_linear)"/>
</g>
<g filter="url(#filter1_d)">
<rect x="219.072" y="166.475" width="63.4669" height="24.2898" rx="4" fill="#474747"/>
<path d="M277.12 174.299H246.969V175.364H277.12V174.299Z" fill="url(#paint29_linear)"/>
<path d="M277.12 176.892H246.969V177.958H277.12V176.892Z" fill="url(#paint30_linear)" fill-opacity="0.2"/>
<path d="M277.12 179.486H246.969V180.551H277.12V179.486Z" fill="url(#paint31_linear)" fill-opacity="0.2"/>
<path d="M277.12 182.079H246.969V183.145H277.12V182.079Z" fill="url(#paint32_linear)" fill-opacity="0.2"/>
<path d="M231.718 171.96C227.768 171.952 224.56 175.149 224.556 179.098C224.552 181.503 225.759 183.752 227.765 185.076V183.866C227.768 183.047 228.38 182.357 229.194 182.256C229.947 183.631 231.67 184.132 233.046 183.38C233.52 183.121 233.911 182.73 234.17 182.256C234.985 182.357 235.596 183.047 235.6 183.866V185.108C238.914 182.957 239.855 178.53 237.708 175.219C236.391 173.19 234.135 171.964 231.718 171.96ZM234.405 180.877C233.958 182.377 232.38 183.235 230.879 182.788C229.676 182.432 228.85 181.327 228.85 180.069C228.85 179.58 228.975 179.098 229.218 178.675L229.187 178.655C228.861 178.263 228.901 177.684 229.281 177.343C229.465 177.241 229.661 177.166 229.868 177.127C230.487 176.947 231.02 176.54 231.357 175.991C231.369 176.136 231.369 176.277 231.357 176.422C231.592 176.167 231.992 176.148 232.246 176.387C232.25 176.387 232.25 176.391 232.254 176.391C232.648 176.784 233 176.789 233.539 176.861C235.221 176.691 235.666 180.982 234.405 180.877Z" fill="url(#paint33_linear)"/>
</g>
<g filter="url(#filter2_d)">
<rect x="136.016" y="124.164" width="63.4669" height="24.2898" rx="4" fill="#474747"/>
<path d="M194.065 131.987H163.914V133.053H194.065V131.987Z" fill="url(#paint34_linear)"/>
<path d="M194.065 134.581H163.914V135.647H194.065V134.581Z" fill="url(#paint35_linear)" fill-opacity="0.2"/>
<path d="M194.065 137.175H163.914V138.24H194.065V137.175Z" fill="url(#paint36_linear)" fill-opacity="0.2"/>
<path d="M194.065 139.768H163.914V140.834H194.065V139.768Z" fill="url(#paint37_linear)" fill-opacity="0.2"/>
<path d="M148.663 129.648C144.714 129.641 141.505 132.838 141.501 136.787C141.497 139.192 142.704 141.441 144.71 142.765V141.554C144.714 140.736 145.325 140.046 146.14 139.944C146.892 141.319 148.616 141.821 149.991 141.069C150.465 140.81 150.856 140.418 151.115 139.944C151.93 140.046 152.541 140.736 152.545 141.554V142.796C155.859 140.646 156.8 136.218 154.653 132.908C153.336 130.879 151.08 129.652 148.663 129.648ZM151.35 138.565C150.903 140.066 149.325 140.924 147.824 140.477C146.621 140.121 145.795 139.016 145.795 137.758C145.795 137.268 145.92 136.787 146.163 136.363L146.132 136.344C145.807 135.952 145.846 135.372 146.226 135.031C146.41 134.93 146.606 134.855 146.813 134.816C147.432 134.636 147.965 134.228 148.302 133.68C148.314 133.825 148.314 133.966 148.302 134.111C148.537 133.856 148.937 133.837 149.191 134.076C149.195 134.076 149.195 134.079 149.199 134.079C149.593 134.473 149.945 134.478 150.484 134.55C152.166 134.38 152.611 138.67 151.35 138.565Z" fill="url(#paint38_linear)"/>
</g>
<g filter="url(#filter3_d)">
<rect x="13" y="144.536" width="63.4669" height="24.2898" rx="4" fill="#474747"/>
<path d="M71.0489 152.359H40.8982V153.425H71.0489V152.359Z" fill="url(#paint39_linear)"/>
<path d="M71.0489 154.953H40.8982V156.018H71.0489V154.953Z" fill="url(#paint40_linear)" fill-opacity="0.2"/>
<path d="M71.0489 157.546H40.8982V158.612H71.0489V157.546Z" fill="url(#paint41_linear)" fill-opacity="0.2"/>
<path d="M71.0489 160.14H40.8982V161.205H71.0489V160.14Z" fill="url(#paint42_linear)" fill-opacity="0.2"/>
<path d="M25.6465 150.02C21.6974 150.013 18.4888 153.209 18.4849 157.158C18.481 159.564 19.6876 161.813 21.6935 163.137V161.926C21.6974 161.108 22.3086 160.418 23.1235 160.316C23.8757 161.691 25.5995 162.193 26.9746 161.441C27.4486 161.182 27.8404 160.79 28.0989 160.316C28.9138 160.418 29.525 161.108 29.5289 161.926V163.168C32.8433 161.017 33.7835 156.59 31.6366 153.28C30.3203 151.251 28.0637 150.024 25.6465 150.02ZM28.334 158.937C27.8874 160.438 26.3085 161.296 24.8081 160.849C23.6053 160.492 22.7787 159.388 22.7787 158.13C22.7787 157.64 22.9041 157.158 23.147 156.735L23.1156 156.716C22.7904 156.324 22.8296 155.744 23.2096 155.403C23.3938 155.301 23.5896 155.227 23.7973 155.188C24.4163 155.008 24.9491 154.6 25.286 154.052C25.2978 154.197 25.2978 154.338 25.286 154.483C25.5211 154.228 25.9207 154.208 26.1753 154.447C26.1793 154.447 26.1793 154.451 26.1832 154.451C26.5767 154.845 26.9291 154.85 27.4682 154.921C29.1498 154.752 29.5954 159.042 28.334 158.937Z" fill="url(#paint43_linear)"/>
</g>
<g filter="url(#filter4_d)">
<rect x="247.279" y="233.076" width="63.4669" height="24.2898" rx="4" fill="#474747"/>
<path d="M305.327 240.9H275.177V241.965H305.327V240.9Z" fill="url(#paint44_linear)"/>
<path d="M305.327 243.493H275.177V244.559H305.327V243.493Z" fill="url(#paint45_linear)" fill-opacity="0.2"/>
<path d="M305.327 246.087H275.177V247.152H305.327V246.087Z" fill="url(#paint46_linear)" fill-opacity="0.2"/>
<path d="M305.327 248.68H275.177V249.746H305.327V248.68Z" fill="url(#paint47_linear)" fill-opacity="0.2"/>
<path d="M259.925 238.561C255.976 238.553 252.768 241.75 252.764 245.699C252.76 248.104 253.966 250.353 255.972 251.677V250.467C255.976 249.648 256.587 248.958 257.402 248.857C258.154 250.232 259.878 250.733 261.253 249.981C261.727 249.722 262.119 249.331 262.378 248.857C263.193 248.958 263.804 249.648 263.808 250.467V251.709C267.122 249.558 268.062 245.131 265.915 241.82C264.599 239.791 262.342 238.565 259.925 238.561ZM262.613 247.478C262.166 248.978 260.587 249.836 259.087 249.389C257.884 249.033 257.057 247.928 257.057 246.67C257.057 246.181 257.183 245.699 257.426 245.276L257.394 245.256C257.069 244.864 257.108 244.285 257.488 243.944C257.673 243.842 257.868 243.767 258.076 243.728C258.695 243.548 259.228 243.141 259.565 242.592C259.577 242.737 259.577 242.878 259.565 243.023C259.8 242.768 260.199 242.749 260.454 242.988C260.458 242.988 260.458 242.992 260.462 242.992C260.856 243.385 261.208 243.39 261.747 243.462C263.429 243.292 263.874 247.583 262.613 247.478Z" fill="url(#paint48_linear)"/>
</g>
<g filter="url(#filter5_d)">
<rect x="144.635" y="195.858" width="63.4669" height="24.2898" rx="4" fill="#474747"/>
<path d="M202.684 203.682H172.533V204.747H202.684V203.682Z" fill="url(#paint49_linear)"/>
<path d="M202.684 206.275H172.533V207.341H202.684V206.275Z" fill="url(#paint50_linear)" fill-opacity="0.2"/>
<path d="M202.684 208.868H172.533V209.934H202.684V208.868Z" fill="url(#paint51_linear)" fill-opacity="0.2"/>
<path d="M202.684 211.462H172.533V212.528H202.684V211.462Z" fill="url(#paint52_linear)" fill-opacity="0.2"/>
<path d="M157.281 201.343C153.332 201.335 150.124 204.532 150.12 208.481C150.116 210.886 151.322 213.135 153.328 214.459V213.248C153.332 212.43 153.943 211.74 154.758 211.638C155.51 213.013 157.234 213.515 158.609 212.763C159.083 212.504 159.475 212.112 159.734 211.638C160.549 211.74 161.16 212.43 161.164 213.248V214.49C164.478 212.34 165.418 207.913 163.271 204.602C161.955 202.573 159.698 201.346 157.281 201.343ZM159.969 210.259C159.522 211.76 157.943 212.618 156.443 212.171C155.24 211.815 154.413 210.71 154.413 209.452C154.413 208.962 154.539 208.481 154.782 208.057L154.75 208.038C154.425 207.646 154.464 207.066 154.844 206.725C155.029 206.624 155.224 206.549 155.432 206.51C156.051 206.33 156.584 205.922 156.921 205.374C156.933 205.519 156.933 205.66 156.921 205.805C157.156 205.55 157.555 205.531 157.81 205.77C157.814 205.77 157.814 205.773 157.818 205.773C158.211 206.167 158.564 206.172 159.103 206.244C160.785 206.074 161.23 210.364 159.969 210.259Z" fill="url(#paint53_linear)"/>
</g>
<path d="M343.628 333.911C342.217 332.767 342.668 331.463 343.385 330.511C343.879 329.892 344.619 329.519 345.41 329.492C345.759 329.445 346.092 329.324 346.394 329.139C346.719 328.963 346.997 328.708 347.205 328.403C347.585 327.811 347.792 327.122 347.8 326.421C347.8 326.421 353.426 324.779 354.946 326.421C355.22 326.718 355.452 327.055 355.632 327.42C356.622 329.653 357.093 332.63 357.093 334.875C357.093 337.12 345.41 335.357 343.628 333.911Z" fill="#202020"/>
<path d="M367.867 331.751C366.449 330.607 366.903 329.303 367.616 328.359C368.442 327.316 369.613 327.589 370.633 326.984C372.067 326.196 372.031 324.261 372.031 324.261C372.031 324.261 377.653 322.611 379.177 324.261C379.385 324.484 379.561 324.731 379.714 324.993C380.85 327.265 381.324 328.994 381.324 332.715C381.324 335.161 372.031 333.594 367.867 331.751Z" fill="#202020"/>
<path opacity="0.1" d="M354.95 326.421C355.224 326.718 355.456 327.055 355.636 327.42L347.205 328.395C347.585 327.803 347.792 327.114 347.8 326.413C347.8 326.417 353.414 324.779 354.95 326.421Z" fill="black"/>
<path d="M380.564 325.633C379.134 328.015 371.679 327.212 370.68 325.919C368.549 306.191 364.404 288.254 358.366 269.461L355.647 259.941L354.789 267.02C353.881 286.671 355.286 307.041 355.647 326.777L346.973 327.874C342.621 294.025 339.533 270.158 338.868 254.813C338.687 250.456 338.738 244.505 338.797 240.791C338.832 238.715 338.868 237.332 338.868 237.332L369.829 234.112C370.815 264.051 380.564 287.757 380.564 325.633Z" fill="#555"/>
<path opacity="0.05" d="M363.875 280.505L373.269 279.247C373.269 279.247 367.961 284.689 363.875 280.505Z" fill="black"/>
<path opacity="0.1" d="M371.929 270.045C371.929 270.045 372.259 273.375 370.214 274.628C370.217 274.628 373.865 274.056 371.929 270.045Z" fill="black"/>
<path opacity="0.1" d="M371.354 259.439C371.354 259.439 363.483 265.923 360.635 265.394C357.79 264.862 371.354 259.439 371.354 259.439Z" fill="black"/>
<path opacity="0.1" d="M352.192 283.545C352.192 283.545 346.237 284.908 346.038 287.31C345.834 289.708 352.192 283.545 352.192 283.545Z" fill="black"/>
<path d="M373.688 169.348L373.152 171.969L373.183 173.16V174.018L370.206 174.327L369.873 173.732C366.323 169.716 365.395 161.634 367.193 162.676C367.918 162.954 368.509 163.491 368.862 164.184C368.858 164.18 374.746 164.799 373.688 169.348Z" fill="url(#paint54_linear)"/>
<path opacity="0.1" d="M373.203 173.986L370.225 174.296L369.892 173.7C370.723 172.756 372.102 172.529 373.191 173.16L373.203 173.986Z" fill="black"/>
<path d="M373.955 175.405L370.018 176.321L369.935 175.726L369.708 174.147C370.605 172.948 372.306 172.709 373.5 173.606C373.508 173.614 373.516 173.618 373.524 173.626L373.72 174.429L373.955 175.405Z" fill="#DBE4F0"/>
<path d="M310.104 169.634L305.901 171.898L305.521 171.099C305.117 170.261 304.522 168.999 304.33 168.545C304.188 168.145 303.554 167.687 303.033 167.369C302.371 166.962 301.763 166.456 301.332 165.814C298.845 162.12 303.162 159.146 303.162 159.146C304.851 155.753 306.653 157.175 307.812 158.821C308.639 159.996 309.027 161.426 308.98 162.864L308.858 166.594C309.262 167.358 309.599 168.157 309.877 168.976C310.038 169.391 310.104 169.634 310.104 169.634Z" fill="url(#paint55_linear)"/>
<path opacity="0.1" d="M310.104 169.634L305.901 171.898L305.521 171.099C306.116 170.605 309.575 169.007 309.908 168.972C310.038 169.391 310.104 169.634 310.104 169.634Z" fill="black"/>
<path d="M310.531 170.907L305.802 173.234L305.708 172.216L305.642 171.518C305.642 171.518 310.041 169.313 310.453 169.254L310.508 170.104L310.531 170.907Z" fill="#DBE4F0"/>
<path d="M362.225 186.723C362.225 186.723 341.606 189.05 345.457 187.8C348.141 186.927 349.207 185.222 349.434 183.33C349.536 181.704 349.273 180.078 348.666 178.566C348.176 177.265 347.557 176.016 346.821 174.84C346.821 174.84 362.582 166.171 359.432 174.053C358.942 175.244 358.64 176.502 358.539 177.787C358.441 179.06 358.578 180.337 358.938 181.563C359.538 183.549 360.674 185.336 362.225 186.723Z" fill="#F3A991"/>
<path opacity="0.1" d="M359.432 174.045C358.942 175.236 358.641 176.494 358.539 177.779C357.05 179.025 355.424 178.97 353.336 178.97C351.73 178.97 349.947 179.361 348.666 178.59C348.176 177.289 347.557 176.039 346.821 174.864C346.821 174.86 362.582 166.163 359.432 174.045Z" fill="black"/>
<path d="M353.058 179.491C357.766 179.491 361.583 175.674 361.583 170.966C361.583 166.258 357.766 162.441 353.058 162.441C348.35 162.441 344.533 166.258 344.533 170.966C344.533 175.674 348.35 179.491 353.058 179.491Z" fill="url(#paint56_linear)"/>
<path opacity="0.1" d="M373.955 175.405L370.018 176.321L369.935 175.726C370.797 174.539 372.313 174.018 373.724 174.429L373.955 175.405Z" fill="black"/>
<path opacity="0.1" d="M310.531 170.907L305.803 173.234L305.708 172.216C307.24 171.397 308.835 170.692 310.472 170.108L310.531 170.907Z" fill="black"/>
<path opacity="0.1" d="M370.437 239.247C362.416 240.714 350.998 242.628 349.184 241.989C347.684 241.454 342.887 241.509 338.703 241.678C338.739 239.256 338.774 237.644 338.774 237.644L369.878 233.888C369.925 235.693 370.114 237.484 370.437 239.247Z" fill="black"/>
<path d="M378.343 236.779C378.343 236.779 359.859 244.27 349.226 240.431C337.459 236.182 331.918 240.509 331.918 240.509C326.167 244.858 328.126 238.433 328.126 238.433C330.37 228.193 334.756 221.323 332.643 210.774C331.918 203.33 333.571 197.732 333.571 197.732C333.571 197.732 317.744 196.278 311.244 185.273C308.812 181.156 304.698 174.335 304.49 173.798C307.949 171.401 310.508 170.363 310.508 170.363C313.627 174.182 316.331 178.447 319.898 181.869C328.517 186.68 330.802 186.031 336.4 186.092C336.4 186.092 337.92 182.331 340.568 182.331C343.405 183.8 349.207 183.8 349.207 183.8C350.832 181.652 353.649 181.435 355.745 181.587C358.429 181.781 360.431 182.874 362.59 184.431C364.428 183.867 366.323 183.307 370.221 183.307C369.904 182.288 369.622 178.292 369.007 177.579C371.538 171.459 377.199 176.639 377.199 176.639C377.199 176.639 378.343 189.289 376.842 194.406C376.407 195.549 372.972 198.127 372.972 198.127L371.354 205.622C370.261 210.676 370.601 215.961 372.505 220.768C374.67 226.216 377.685 227.424 378.343 236.779Z" fill="url(#paint57_linear)"/>
<path opacity="0.1" d="M340.016 189.665C340.016 189.665 339.228 187.283 338.508 187.079C337.795 186.817 337.101 186.507 336.431 186.151L336.897 185.269C336.897 185.269 339.589 186.006 340.016 186.793C340.447 187.581 340.016 189.665 340.016 189.665Z" fill="black"/>
<path opacity="0.1" d="M340.051 209.073C339.984 208.991 356.125 229.383 368.674 217.598C368.674 217.598 348.858 220.286 340.051 209.073Z" fill="black"/>
<path opacity="0.1" d="M332.611 221.352C332.611 221.352 342.006 221.645 342.978 224.294V227.056C342.441 227.35 341.794 227.35 341.258 227.056C340.321 226.55 333.986 223.984 332.043 225.348L332.611 221.352Z" fill="black"/>
<path opacity="0.1" d="M336.051 198.672C337.038 200.956 338.296 203.111 339.796 205.097C341.43 207.295 343.412 209.21 345.665 210.766C345.665 210.766 336.212 200.023 336.051 198.672Z" fill="black"/>
<path opacity="0.1" d="M332.89 187.467C332.89 187.467 334.504 194.429 338.653 196.791L332.89 187.467Z" fill="black"/>
<path opacity="0.1" d="M330.402 188.168C330.359 188.039 328.968 193.669 335.761 196.791C335.761 196.791 332.889 195.812 330.402 188.168Z" fill="black"/>
<path opacity="0.1" d="M372.615 183.503C372.509 183.503 375.961 185.704 376.901 186.723C376.901 186.723 374.656 183.358 372.615 183.503Z" fill="black"/>
<path d="M350.072 176.439C350.883 178.699 353.011 180.29 355.412 180.274C357.203 180.258 359.898 179.865 361.152 178.515C366.515 173.449 365.344 159.589 354.915 159.589C352.787 159.953 350.754 160.717 348.913 161.845C348.317 162.225 347.616 162.66 346.907 162.531C346.3 162.335 345.775 161.935 345.43 161.399C340.27 165.328 343.984 168.936 343.984 168.936C343.984 168.936 348.933 173.273 350.072 176.439Z" fill="#202020"/>
<path opacity="0.1" d="M369.935 179.452C369.935 179.452 375.847 179.452 377.152 181.677L369.935 179.452Z" fill="black"/>
<defs>
<filter id="filter0_d" x="301.261" y="136.267" width="71.4669" height="32.2898" filterUnits="userSpaceOnUse" color-interpolation-filters="sRGB">
<feFlood flood-opacity="0" result="BackgroundImageFix"/>
<feColorMatrix in="SourceAlpha" type="matrix" values="0 0 0 0 0 0 0 0 0 0 0 0 0 0 0 0 0 0 127 0"/>
<feOffset dy="2"/>
<feGaussianBlur stdDeviation="2"/>
<feColorMatrix type="matrix" values="0 0 0 0 0.352941 0 0 0 0 0.435294 0 0 0 0 0.337255 0 0 0 0.25 0"/>
<feBlend mode="normal" in2="BackgroundImageFix" result="effect1_dropShadow"/>
<feBlend mode="normal" in="SourceGraphic" in2="effect1_dropShadow" result="shape"/>
</filter>
<filter id="filter1_d" x="215.072" y="164.475" width="71.4669" height="32.2898" filterUnits="userSpaceOnUse" color-interpolation-filters="sRGB">
<feFlood flood-opacity="0" result="BackgroundImageFix"/>
<feColorMatrix in="SourceAlpha" type="matrix" values="0 0 0 0 0 0 0 0 0 0 0 0 0 0 0 0 0 0 127 0"/>
<feOffset dy="2"/>
<feGaussianBlur stdDeviation="2"/>
<feColorMatrix type="matrix" values="0 0 0 0 0.352941 0 0 0 0 0.435294 0 0 0 0 0.337255 0 0 0 0.25 0"/>
<feBlend mode="normal" in2="BackgroundImageFix" result="effect1_dropShadow"/>
<feBlend mode="normal" in="SourceGraphic" in2="effect1_dropShadow" result="shape"/>
</filter>
<filter id="filter2_d" x="132.016" y="122.164" width="71.4669" height="32.2898" filterUnits="userSpaceOnUse" color-interpolation-filters="sRGB">
<feFlood flood-opacity="0" result="BackgroundImageFix"/>
<feColorMatrix in="SourceAlpha" type="matrix" values="0 0 0 0 0 0 0 0 0 0 0 0 0 0 0 0 0 0 127 0"/>
<feOffset dy="2"/>
<feGaussianBlur stdDeviation="2"/>
<feColorMatrix type="matrix" values="0 0 0 0 0.352941 0 0 0 0 0.435294 0 0 0 0 0.337255 0 0 0 0.25 0"/>
<feBlend mode="normal" in2="BackgroundImageFix" result="effect1_dropShadow"/>
<feBlend mode="normal" in="SourceGraphic" in2="effect1_dropShadow" result="shape"/>
</filter>
<filter id="filter3_d" x="9" y="142.536" width="71.4669" height="32.2898" filterUnits="userSpaceOnUse" color-interpolation-filters="sRGB">
<feFlood flood-opacity="0" result="BackgroundImageFix"/>
<feColorMatrix in="SourceAlpha" type="matrix" values="0 0 0 0 0 0 0 0 0 0 0 0 0 0 0 0 0 0 127 0"/>
<feOffset dy="2"/>
<feGaussianBlur stdDeviation="2"/>
<feColorMatrix type="matrix" values="0 0 0 0 0.352941 0 0 0 0 0.435294 0 0 0 0 0.337255 0 0 0 0.25 0"/>
<feBlend mode="normal" in2="BackgroundImageFix" result="effect1_dropShadow"/>
<feBlend mode="normal" in="SourceGraphic" in2="effect1_dropShadow" result="shape"/>
</filter>
<filter id="filter4_d" x="243.279" y="231.076" width="71.4669" height="32.2898" filterUnits="userSpaceOnUse" color-interpolation-filters="sRGB">
<feFlood flood-opacity="0" result="BackgroundImageFix"/>
<feColorMatrix in="SourceAlpha" type="matrix" values="0 0 0 0 0 0 0 0 0 0 0 0 0 0 0 0 0 0 127 0"/>
<feOffset dy="2"/>
<feGaussianBlur stdDeviation="2"/>
<feColorMatrix type="matrix" values="0 0 0 0 0.352941 0 0 0 0 0.435294 0 0 0 0 0.337255 0 0 0 0.25 0"/>
<feBlend mode="normal" in2="BackgroundImageFix" result="effect1_dropShadow"/>
<feBlend mode="normal" in="SourceGraphic" in2="effect1_dropShadow" result="shape"/>
</filter>
<filter id="filter5_d" x="140.635" y="193.858" width="71.4669" height="32.2898" filterUnits="userSpaceOnUse" color-interpolation-filters="sRGB">
<feFlood flood-opacity="0" result="BackgroundImageFix"/>
<feColorMatrix in="SourceAlpha" type="matrix" values="0 0 0 0 0 0 0 0 0 0 0 0 0 0 0 0 0 0 127 0"/>
<feOffset dy="2"/>
<feGaussianBlur stdDeviation="2"/>
<feColorMatrix type="matrix" values="0 0 0 0 0.352941 0 0 0 0 0.435294 0 0 0 0 0.337255 0 0 0 0.25 0"/>
<feBlend mode="normal" in2="BackgroundImageFix" result="effect1_dropShadow"/>
<feBlend mode="normal" in="SourceGraphic" in2="effect1_dropShadow" result="shape"/>
</filter>
<linearGradient id="paint0_linear" x1="247.279" y1="204.765" x2="117.24" y2="363.968" gradientUnits="userSpaceOnUse">
<stop stop-color="#404040"/>
<stop offset="0.0001" stop-color="#404040"/>
<stop offset="1" stop-color="#454545"/>
</linearGradient>
<linearGradient id="paint1_linear" x1="380.737" y1="69.6179" x2="374.366" y2="128.853" gradientUnits="userSpaceOnUse">
<stop stop-color="#777"/>
<stop offset="1" stop-color="#656565"/>
</linearGradient>
<linearGradient id="paint2_linear" x1="198.46" y1="289.739" x2="216.71" y2="278.147" gradientUnits="userSpaceOnUse">
<stop stop-color="#FF9292"/>
<stop offset="1" stop-color="#FFB59D"/>
</linearGradient>
<linearGradient id="paint3_linear" x1="205.516" y1="242.26" x2="174.756" y2="253.525" gradientUnits="userSpaceOnUse">
<stop stop-color="#777"/>
<stop offset="1" stop-color="#656565"/>
</linearGradient>
<linearGradient id="paint4_linear" x1="215.841" y1="281.072" x2="194.786" y2="289.398" gradientUnits="userSpaceOnUse">
<stop stop-color="#f9a602"/>
<stop offset="1" stop-color="#ffcc00"/>
</linearGradient>
<linearGradient id="paint5_linear" x1="186.349" y1="274.899" x2="174.792" y2="278.908" gradientUnits="userSpaceOnUse">
<stop stop-color="#f9a602"/>
<stop offset="1" stop-color="#ffcc00"/>
</linearGradient>
<linearGradient id="paint6_linear" x1="196.153" y1="267.741" x2="210.434" y2="251.905" gradientUnits="userSpaceOnUse">
<stop stop-color="#FF9292"/>
<stop offset="1" stop-color="#FFB59D"/>
</linearGradient>
<linearGradient id="paint7_linear" x1="175.955" y1="270.977" x2="176.34" y2="271.787" gradientUnits="userSpaceOnUse">
<stop stop-color="#f9a602"/>
<stop offset="1" stop-color="#ffcc00"/>
</linearGradient>
<linearGradient id="paint8_linear" x1="176.899" y1="272.764" x2="177.283" y2="273.574" gradientUnits="userSpaceOnUse">
<stop stop-color="#f9a602"/>
<stop offset="1" stop-color="#ffcc00"/>
</linearGradient>
<linearGradient id="paint9_linear" x1="177.841" y1="274.548" x2="178.225" y2="275.358" gradientUnits="userSpaceOnUse">
<stop stop-color="#f9a602"/>
<stop offset="1" stop-color="#ffcc00"/>
</linearGradient>
<linearGradient id="paint10_linear" x1="178.787" y1="276.333" x2="179.172" y2="277.143" gradientUnits="userSpaceOnUse">
<stop stop-color="#f9a602"/>
<stop offset="1" stop-color="#ffcc00"/>
</linearGradient>
<linearGradient id="paint11_linear" x1="156.274" y1="285.031" x2="150.363" y2="289.886" gradientUnits="userSpaceOnUse">
<stop stop-color="#f9a602"/>
<stop offset="1" stop-color="#ffcc00"/>
</linearGradient>
<linearGradient id="paint12_linear" x1="202.88" y1="277.277" x2="186.823" y2="292.993" gradientUnits="userSpaceOnUse">
<stop stop-color="#f9a602"/>
<stop offset="1" stop-color="#ffcc00"/>
</linearGradient>
<linearGradient id="paint13_linear" x1="57.9389" y1="189.714" x2="67.6818" y2="175.674" gradientUnits="userSpaceOnUse">
<stop stop-color="#FF9292"/>
<stop offset="1" stop-color="#FFB59D"/>
</linearGradient>
<linearGradient id="paint14_linear" x1="101.932" y1="328.668" x2="128.969" y2="319.899" gradientUnits="userSpaceOnUse">
<stop offset="0.0573931" stop-color="#FF9292"/>
<stop offset="1" stop-color="#FFB59D"/>
</linearGradient>
<linearGradient id="paint15_linear" x1="94.916" y1="347.715" x2="123.481" y2="338.735" gradientUnits="userSpaceOnUse">
<stop stop-color="#FF9292"/>
<stop offset="1" stop-color="#FFB59D"/>
</linearGradient>
<linearGradient id="paint16_linear" x1="99.3305" y1="210.57" x2="116.453" y2="197.466" gradientUnits="userSpaceOnUse">
<stop stop-color="#FF9292"/>
<stop offset="1" stop-color="#FFB59D"/>
</linearGradient>
<linearGradient id="paint17_linear" x1="99.9134" y1="192.575" x2="114.059" y2="176.884" gradientUnits="userSpaceOnUse">
<stop stop-color="#FF9292"/>
<stop offset="1" stop-color="#FFB59D"/>
</linearGradient>
<linearGradient id="paint18_linear" x1="107.882" y1="173.409" x2="74.7007" y2="189.769" gradientUnits="userSpaceOnUse">
<stop stop-color="#777"/>
<stop offset="1" stop-color="#656565"/>
</linearGradient>
<linearGradient id="paint19_linear" x1="70.871" y1="190.15" x2="58.6856" y2="199.57" gradientUnits="userSpaceOnUse">
<stop stop-color="#f9a602"/>
<stop offset="1" stop-color="#ffcc00"/>
</linearGradient>
<linearGradient id="paint20_linear" x1="84.0949" y1="207.843" x2="65.3884" y2="215.138" gradientUnits="userSpaceOnUse">
<stop stop-color="#f9a602"/>
<stop offset="1" stop-color="#ffcc00"/>
</linearGradient>
<linearGradient id="paint21_linear" x1="111.309" y1="211.975" x2="99.2725" y2="214.611" gradientUnits="userSpaceOnUse">
<stop stop-color="#f9a602"/>
<stop offset="1" stop-color="#ffcc00"/>
</linearGradient>
<linearGradient id="paint22_linear" x1="113.243" y1="235.318" x2="116.966" y2="228.556" gradientUnits="userSpaceOnUse">
<stop stop-color="#FF9292"/>
<stop offset="1" stop-color="#FFB59D"/>
</linearGradient>
<linearGradient id="paint23_linear" x1="120.996" y1="213.853" x2="108.408" y2="218.107" gradientUnits="userSpaceOnUse">
<stop stop-color="#f9a602"/>
<stop offset="1" stop-color="#ffcc00"/>
</linearGradient>
<linearGradient id="paint24_linear" x1="349.43" y1="146.589" x2="349.38" y2="147.743" gradientUnits="userSpaceOnUse">
<stop stop-color="#f9a602"/>
<stop offset="1" stop-color="#ffcc00"/>
</linearGradient>
<linearGradient id="paint25_linear" x1="349.43" y1="149.183" x2="349.38" y2="150.337" gradientUnits="userSpaceOnUse">
<stop stop-color="#f9a602"/>
<stop offset="1" stop-color="#ffcc00"/>
</linearGradient>
<linearGradient id="paint26_linear" x1="349.43" y1="151.776" x2="349.38" y2="152.931" gradientUnits="userSpaceOnUse">
<stop stop-color="#f9a602"/>
<stop offset="1" stop-color="#ffcc00"/>
</linearGradient>
<linearGradient id="paint27_linear" x1="349.43" y1="154.37" x2="349.38" y2="155.524" gradientUnits="userSpaceOnUse">
<stop stop-color="#f9a602"/>
<stop offset="1" stop-color="#ffcc00"/>
</linearGradient>
<linearGradient id="paint28_linear" x1="318.465" y1="149.899" x2="311.378" y2="156.219" gradientUnits="userSpaceOnUse">
<stop stop-color="#f9a602"/>
<stop offset="1" stop-color="#ffcc00"/>
</linearGradient>
<linearGradient id="paint29_linear" x1="263.24" y1="174.797" x2="263.191" y2="175.951" gradientUnits="userSpaceOnUse">
<stop stop-color="#f9a602"/>
<stop offset="1" stop-color="#ffcc00"/>
</linearGradient>
<linearGradient id="paint30_linear" x1="263.24" y1="177.39" x2="263.191" y2="178.545" gradientUnits="userSpaceOnUse">
<stop stop-color="#f9a602"/>
<stop offset="1" stop-color="#ffcc00"/>
</linearGradient>
<linearGradient id="paint31_linear" x1="263.24" y1="179.984" x2="263.191" y2="181.138" gradientUnits="userSpaceOnUse">
<stop stop-color="#f9a602"/>
<stop offset="1" stop-color="#ffcc00"/>
</linearGradient>
<linearGradient id="paint32_linear" x1="263.24" y1="182.577" x2="263.191" y2="183.732" gradientUnits="userSpaceOnUse">
<stop stop-color="#f9a602"/>
<stop offset="1" stop-color="#ffcc00"/>
</linearGradient>
<linearGradient id="paint33_linear" x1="232.275" y1="178.106" x2="225.188" y2="184.426" gradientUnits="userSpaceOnUse">
<stop stop-color="#f9a602"/>
<stop offset="1" stop-color="#ffcc00"/>
</linearGradient>
<linearGradient id="paint34_linear" x1="180.185" y1="132.486" x2="180.136" y2="133.64" gradientUnits="userSpaceOnUse">
<stop stop-color="#f9a602"/>
<stop offset="1" stop-color="#ffcc00"/>
</linearGradient>
<linearGradient id="paint35_linear" x1="180.185" y1="135.079" x2="180.136" y2="136.233" gradientUnits="userSpaceOnUse">
<stop stop-color="#f9a602"/>
<stop offset="1" stop-color="#ffcc00"/>
</linearGradient>
<linearGradient id="paint36_linear" x1="180.185" y1="137.673" x2="180.136" y2="138.827" gradientUnits="userSpaceOnUse">
<stop stop-color="#f9a602"/>
<stop offset="1" stop-color="#ffcc00"/>
</linearGradient>
<linearGradient id="paint37_linear" x1="180.185" y1="140.266" x2="180.136" y2="141.42" gradientUnits="userSpaceOnUse">
<stop stop-color="#f9a602"/>
<stop offset="1" stop-color="#ffcc00"/>
</linearGradient>
<linearGradient id="paint38_linear" x1="149.22" y1="135.795" x2="142.133" y2="142.115" gradientUnits="userSpaceOnUse">
<stop stop-color="#f9a602"/>
<stop offset="1" stop-color="#ffcc00"/>
</linearGradient>
<linearGradient id="paint39_linear" x1="57.1695" y1="152.857" x2="57.1197" y2="154.012" gradientUnits="userSpaceOnUse">
<stop stop-color="#f9a602"/>
<stop offset="1" stop-color="#ffcc00"/>
</linearGradient>
<linearGradient id="paint40_linear" x1="57.1695" y1="155.451" x2="57.1197" y2="156.605" gradientUnits="userSpaceOnUse">
<stop stop-color="#f9a602"/>
<stop offset="1" stop-color="#ffcc00"/>
</linearGradient>
<linearGradient id="paint41_linear" x1="57.1695" y1="158.044" x2="57.1197" y2="159.199" gradientUnits="userSpaceOnUse">
<stop stop-color="#f9a602"/>
<stop offset="1" stop-color="#ffcc00"/>
</linearGradient>
<linearGradient id="paint42_linear" x1="57.1695" y1="160.638" x2="57.1197" y2="161.792" gradientUnits="userSpaceOnUse">
<stop stop-color="#f9a602"/>
<stop offset="1" stop-color="#ffcc00"/>
</linearGradient>
<linearGradient id="paint43_linear" x1="26.204" y1="156.167" x2="19.1166" y2="162.487" gradientUnits="userSpaceOnUse">
<stop stop-color="#f9a602"/>
<stop offset="1" stop-color="#ffcc00"/>
</linearGradient>
<linearGradient id="paint44_linear" x1="291.448" y1="241.398" x2="291.398" y2="242.552" gradientUnits="userSpaceOnUse">
<stop stop-color="#f9a602"/>
<stop offset="1" stop-color="#ffcc00"/>
</linearGradient>
<linearGradient id="paint45_linear" x1="291.448" y1="243.991" x2="291.398" y2="245.146" gradientUnits="userSpaceOnUse">
<stop stop-color="#f9a602"/>
<stop offset="1" stop-color="#ffcc00"/>
</linearGradient>
<linearGradient id="paint46_linear" x1="291.448" y1="246.585" x2="291.398" y2="247.739" gradientUnits="userSpaceOnUse">
<stop stop-color="#f9a602"/>
<stop offset="1" stop-color="#ffcc00"/>
</linearGradient>
<linearGradient id="paint47_linear" x1="291.448" y1="249.178" x2="291.398" y2="250.333" gradientUnits="userSpaceOnUse">
<stop stop-color="#f9a602"/>
<stop offset="1" stop-color="#ffcc00"/>
</linearGradient>
<linearGradient id="paint48_linear" x1="260.483" y1="244.707" x2="253.395" y2="251.027" gradientUnits="userSpaceOnUse">
<stop stop-color="#f9a602"/>
<stop offset="1" stop-color="#ffcc00"/>
</linearGradient>
<linearGradient id="paint49_linear" x1="188.804" y1="204.18" x2="188.754" y2="205.334" gradientUnits="userSpaceOnUse">
<stop stop-color="#f9a602"/>
<stop offset="1" stop-color="#ffcc00"/>
</linearGradient>
<linearGradient id="paint50_linear" x1="188.804" y1="206.773" x2="188.754" y2="207.927" gradientUnits="userSpaceOnUse">
<stop stop-color="#f9a602"/>
<stop offset="1" stop-color="#ffcc00"/>
</linearGradient>
<linearGradient id="paint51_linear" x1="188.804" y1="209.367" x2="188.754" y2="210.521" gradientUnits="userSpaceOnUse">
<stop stop-color="#f9a602"/>
<stop offset="1" stop-color="#ffcc00"/>
</linearGradient>
<linearGradient id="paint52_linear" x1="188.804" y1="211.96" x2="188.754" y2="213.115" gradientUnits="userSpaceOnUse">
<stop stop-color="#f9a602"/>
<stop offset="1" stop-color="#ffcc00"/>
</linearGradient>
<linearGradient id="paint53_linear" x1="157.839" y1="207.489" x2="150.751" y2="213.809" gradientUnits="userSpaceOnUse">
<stop stop-color="#f9a602"/>
<stop offset="1" stop-color="#ffcc00"/>
</linearGradient>
<linearGradient id="paint54_linear" x1="370.255" y1="180.212" x2="379.003" y2="174.004" gradientUnits="userSpaceOnUse">
<stop stop-color="#FF9292"/>
<stop offset="1" stop-color="#FFB59D"/>
</linearGradient>
<linearGradient id="paint55_linear" x1="305.583" y1="179.328" x2="316.648" y2="171.429" gradientUnits="userSpaceOnUse">
<stop stop-color="#FF9292"/>
<stop offset="1" stop-color="#FFB59D"/>
</linearGradient>
<linearGradient id="paint56_linear" x1="353.505" y1="188.035" x2="366.889" y2="173.195" gradientUnits="userSpaceOnUse">
<stop stop-color="#FF9292"/>
<stop offset="1" stop-color="#FFB59D"/>
</linearGradient>
<linearGradient id="paint57_linear" x1="344.346" y1="203.862" x2="306.012" y2="236.247" gradientUnits="userSpaceOnUse">
<stop stop-color="#f9a602"/>
<stop offset="1" stop-color="#ffcc00"/>
</linearGradient>
</defs>
</svg>
