<svg width="1920" height="690" viewBox="0 0 1920 690" fill="none" xmlns="http://www.w3.org/2000/svg">
<path d="M633.631 70.7612C459.063 70.7611 485.568 336.049 321.5 410.5C238.47 448.178 0 463 0 463V690H1920V463C1920 463 1690.31 454.74 1579.5 406C1382.02 319.134 1408.43 0 1204.85 0C1038.19 0 1016.89 311.843 859.22 243.656C764.566 202.72 733.689 70.7612 633.631 70.7612Z" fill="#F6FBF5"/>
<path opacity="0.1" d="M488 235.292C364.702 235.293 328.93 367.919 270 414C203.5 466 0 463 0 463V690H1920V463C1920 463 1662.5 449 1576.5 371.173C1490.5 293.346 1338.5 224.302 1101 361.681C1009.21 414.777 906 447.402 802.5 393.153C713.929 346.73 644.5 235.292 488 235.292Z" fill="url(#paint0_linear)"/>
<g opacity="0.45">
<ellipse rx="1.99959" ry="1.67993" transform="matrix(-1 0 0 1 827.994 576.655)" fill="url(#paint1_linear)"/>
<ellipse rx="1.99959" ry="1.67993" transform="matrix(-1 0 0 1 809.995 576.655)" fill="url(#paint2_linear)"/>
<ellipse rx="1.99959" ry="1.67993" transform="matrix(-1 0 0 1 791.996 576.655)" fill="url(#paint3_linear)"/>
<ellipse rx="1.99959" ry="1.67993" transform="matrix(-1 0 0 1 773.997 576.655)" fill="url(#paint4_linear)"/>
<ellipse rx="1.99959" ry="1.67993" transform="matrix(-1 0 0 1 755.997 576.655)" fill="url(#paint5_linear)"/>
<ellipse rx="1.99959" ry="1.67993" transform="matrix(-1 0 0 1 737.998 576.655)" fill="url(#paint6_linear)"/>
<ellipse rx="1.99959" ry="1.67993" transform="matrix(-1 0 0 1 719.999 576.655)" fill="url(#paint7_linear)"/>
<ellipse rx="1.99959" ry="1.67993" transform="matrix(-1 0 0 1 702 576.655)" fill="url(#paint8_linear)"/>
<ellipse rx="1.99959" ry="1.6799" transform="matrix(-1 0 0 1 827.994 591.626)" fill="url(#paint9_linear)"/>
<ellipse rx="1.99959" ry="1.6799" transform="matrix(-1 0 0 1 809.995 591.626)" fill="url(#paint10_linear)"/>
<ellipse rx="1.99959" ry="1.6799" transform="matrix(-1 0 0 1 791.996 591.626)" fill="url(#paint11_linear)"/>
<ellipse rx="1.99959" ry="1.6799" transform="matrix(-1 0 0 1 773.997 591.626)" fill="url(#paint12_linear)"/>
<ellipse rx="1.99959" ry="1.6799" transform="matrix(-1 0 0 1 755.997 591.626)" fill="url(#paint13_linear)"/>
<ellipse rx="1.99959" ry="1.6799" transform="matrix(-1 0 0 1 737.998 591.626)" fill="url(#paint14_linear)"/>
<ellipse rx="1.99959" ry="1.6799" transform="matrix(-1 0 0 1 719.999 591.626)" fill="url(#paint15_linear)"/>
<ellipse rx="1.99959" ry="1.6799" transform="matrix(-1 0 0 1 702 591.626)" fill="url(#paint16_linear)"/>
<ellipse rx="1.99959" ry="1.6799" transform="matrix(-1 0 0 1 827.994 606.596)" fill="url(#paint17_linear)"/>
<ellipse rx="1.99959" ry="1.6799" transform="matrix(-1 0 0 1 809.995 606.596)" fill="url(#paint18_linear)"/>
<ellipse rx="1.99959" ry="1.6799" transform="matrix(-1 0 0 1 791.996 606.596)" fill="url(#paint19_linear)"/>
<ellipse rx="1.99959" ry="1.6799" transform="matrix(-1 0 0 1 773.997 606.596)" fill="url(#paint20_linear)"/>
<ellipse rx="1.99959" ry="1.6799" transform="matrix(-1 0 0 1 755.997 606.596)" fill="url(#paint21_linear)"/>
<ellipse rx="1.99959" ry="1.6799" transform="matrix(-1 0 0 1 737.998 606.596)" fill="url(#paint22_linear)"/>
<ellipse rx="1.99959" ry="1.6799" transform="matrix(-1 0 0 1 719.999 606.596)" fill="url(#paint23_linear)"/>
<ellipse rx="1.99959" ry="1.6799" transform="matrix(-1 0 0 1 702 606.596)" fill="url(#paint24_linear)"/>
<ellipse rx="1.99959" ry="1.67996" transform="matrix(-1 0 0 1 827.994 621.567)" fill="url(#paint25_linear)"/>
<ellipse rx="1.99959" ry="1.67996" transform="matrix(-1 0 0 1 809.995 621.567)" fill="url(#paint26_linear)"/>
<ellipse rx="1.99959" ry="1.67996" transform="matrix(-1 0 0 1 791.996 621.567)" fill="url(#paint27_linear)"/>
<ellipse rx="1.99959" ry="1.67996" transform="matrix(-1 0 0 1 773.997 621.567)" fill="url(#paint28_linear)"/>
<ellipse rx="1.99959" ry="1.67996" transform="matrix(-1 0 0 1 755.997 621.567)" fill="url(#paint29_linear)"/>
<ellipse rx="1.99959" ry="1.67996" transform="matrix(-1 0 0 1 737.998 621.567)" fill="url(#paint30_linear)"/>
<ellipse rx="1.99959" ry="1.67996" transform="matrix(-1 0 0 1 719.999 621.567)" fill="url(#paint31_linear)"/>
<ellipse rx="1.99959" ry="1.67996" transform="matrix(-1 0 0 1 702 621.567)" fill="url(#paint32_linear)"/>
<ellipse rx="1.99959" ry="1.67999" transform="matrix(-1 0 0 1 827.994 636.537)" fill="url(#paint33_linear)"/>
<ellipse rx="1.99959" ry="1.67999" transform="matrix(-1 0 0 1 809.995 636.537)" fill="url(#paint34_linear)"/>
<ellipse rx="1.99959" ry="1.67999" transform="matrix(-1 0 0 1 791.996 636.537)" fill="url(#paint35_linear)"/>
<ellipse rx="1.99959" ry="1.67999" transform="matrix(-1 0 0 1 773.997 636.537)" fill="url(#paint36_linear)"/>
<ellipse rx="1.99959" ry="1.67999" transform="matrix(-1 0 0 1 755.997 636.537)" fill="url(#paint37_linear)"/>
<ellipse rx="1.99959" ry="1.67999" transform="matrix(-1 0 0 1 737.998 636.537)" fill="url(#paint38_linear)"/>
<ellipse rx="1.99959" ry="1.67999" transform="matrix(-1 0 0 1 719.999 636.537)" fill="url(#paint39_linear)"/>
<ellipse rx="1.99959" ry="1.67999" transform="matrix(-1 0 0 1 702 636.537)" fill="url(#paint40_linear)"/>
<ellipse rx="1.99959" ry="1.67993" transform="matrix(-1 0 0 1 827.994 651.508)" fill="url(#paint41_linear)"/>
<ellipse rx="1.99959" ry="1.67993" transform="matrix(-1 0 0 1 809.995 651.508)" fill="url(#paint42_linear)"/>
<ellipse rx="1.99959" ry="1.67993" transform="matrix(-1 0 0 1 791.996 651.508)" fill="url(#paint43_linear)"/>
<ellipse rx="1.99959" ry="1.67993" transform="matrix(-1 0 0 1 773.997 651.508)" fill="url(#paint44_linear)"/>
<ellipse rx="1.99959" ry="1.67993" transform="matrix(-1 0 0 1 755.997 651.508)" fill="url(#paint45_linear)"/>
<ellipse rx="1.99959" ry="1.67993" transform="matrix(-1 0 0 1 737.998 651.508)" fill="url(#paint46_linear)"/>
<ellipse rx="1.99959" ry="1.67993" transform="matrix(-1 0 0 1 719.999 651.508)" fill="url(#paint47_linear)"/>
<ellipse rx="1.99959" ry="1.67993" transform="matrix(-1 0 0 1 702 651.508)" fill="url(#paint48_linear)"/>
<ellipse rx="1.99959" ry="1.67993" transform="matrix(-1 0 0 1 827.994 666.479)" fill="url(#paint49_linear)"/>
<ellipse rx="1.99959" ry="1.67993" transform="matrix(-1 0 0 1 809.995 666.479)" fill="url(#paint50_linear)"/>
<ellipse rx="1.99959" ry="1.67993" transform="matrix(-1 0 0 1 791.996 666.479)" fill="url(#paint51_linear)"/>
<ellipse rx="1.99959" ry="1.67993" transform="matrix(-1 0 0 1 773.997 666.479)" fill="url(#paint52_linear)"/>
<ellipse rx="1.99959" ry="1.67993" transform="matrix(-1 0 0 1 755.997 666.479)" fill="url(#paint53_linear)"/>
<ellipse rx="1.99959" ry="1.67993" transform="matrix(-1 0 0 1 737.998 666.479)" fill="url(#paint54_linear)"/>
<ellipse rx="1.99959" ry="1.67993" transform="matrix(-1 0 0 1 719.999 666.479)" fill="url(#paint55_linear)"/>
<ellipse rx="1.99959" ry="1.67993" transform="matrix(-1 0 0 1 702 666.479)" fill="url(#paint56_linear)"/>
<ellipse rx="1.99959" ry="1.67993" transform="matrix(-1 0 0 1 827.994 681.449)" fill="url(#paint57_linear)"/>
<ellipse rx="1.99959" ry="1.67993" transform="matrix(-1 0 0 1 809.995 681.449)" fill="url(#paint58_linear)"/>
<ellipse rx="1.99959" ry="1.67993" transform="matrix(-1 0 0 1 791.996 681.449)" fill="url(#paint59_linear)"/>
<ellipse rx="1.99959" ry="1.67993" transform="matrix(-1 0 0 1 773.997 681.449)" fill="url(#paint60_linear)"/>
<ellipse rx="1.99959" ry="1.67993" transform="matrix(-1 0 0 1 755.997 681.449)" fill="url(#paint61_linear)"/>
<ellipse rx="1.99959" ry="1.67993" transform="matrix(-1 0 0 1 737.998 681.449)" fill="url(#paint62_linear)"/>
<ellipse rx="1.99959" ry="1.67993" transform="matrix(-1 0 0 1 719.999 681.449)" fill="url(#paint63_linear)"/>
<ellipse rx="1.99959" ry="1.67993" transform="matrix(-1 0 0 1 702 681.449)" fill="url(#paint64_linear)"/>
</g>
<g filter="url(#filter0_d)">
<path d="M1257 301.145H1391C1395.42 301.145 1399 304.401 1399 308.418V415.693C1399 419.709 1395.42 422.966 1391 422.966H1257C1252.58 422.966 1249 419.709 1249 415.693V308.418C1249 304.401 1252.58 301.145 1257 301.145Z" fill="white"/>
<path opacity="0.1" fill-rule="evenodd" clip-rule="evenodd" d="M1267 317.691C1267 316.586 1267.9 315.691 1269 315.691H1282.74C1283.84 315.691 1284.74 316.586 1284.74 317.691V371.874C1284.74 372.978 1283.84 373.874 1282.74 373.874H1269C1267.9 373.874 1267 372.978 1267 371.874V317.691ZM1292 317.691C1292 316.586 1292.9 315.691 1294 315.691H1307.74C1308.84 315.691 1309.74 316.586 1309.74 317.691V371.874C1309.74 372.978 1308.84 373.874 1307.74 373.874H1294C1292.9 373.874 1292 372.978 1292 371.874V317.691ZM1319 315.691C1317.9 315.691 1317 316.586 1317 317.691V371.874C1317 372.978 1317.9 373.874 1319 373.874H1332.74C1333.84 373.874 1334.74 372.978 1334.74 371.874V317.691C1334.74 316.586 1333.84 315.691 1332.74 315.691H1319ZM1342 317.691C1342 316.586 1342.9 315.691 1344 315.691H1357.74C1358.84 315.691 1359.74 316.586 1359.74 317.691V371.874C1359.74 372.978 1358.84 373.874 1357.74 373.874H1344C1342.9 373.874 1342 372.978 1342 371.874V317.691ZM1369 315.691C1367.9 315.691 1367 316.586 1367 317.691V371.874C1367 372.978 1367.9 373.874 1369 373.874H1382.74C1383.84 373.874 1384.74 372.978 1384.74 371.874V317.691C1384.74 316.586 1383.84 315.691 1382.74 315.691H1369Z" fill="url(#paint65_linear)"/>
<path fill-rule="evenodd" clip-rule="evenodd" d="M1369 333.873C1367.9 333.873 1367 334.768 1367 335.873V371.874C1367 372.978 1367.9 373.874 1369 373.874H1382.74C1383.84 373.874 1384.74 372.978 1384.74 371.874V335.873C1384.74 334.768 1383.84 333.873 1382.74 333.873H1369ZM1292 344.964C1292 343.86 1292.9 342.964 1294 342.964H1307.74C1308.84 342.964 1309.74 343.86 1309.74 344.964V371.874C1309.74 372.978 1308.84 373.874 1307.74 373.874H1294C1292.9 373.874 1292 372.978 1292 371.874V344.964ZM1267 354.055C1267 352.951 1267.9 352.055 1269 352.055H1282.74C1283.84 352.055 1284.74 352.951 1284.74 354.055V371.874C1284.74 372.978 1283.84 373.874 1282.74 373.874H1269C1267.9 373.874 1267 372.978 1267 371.874V354.055ZM1319 342.964C1317.9 342.964 1317 343.86 1317 344.964V371.874C1317 372.978 1317.9 373.874 1319 373.874H1332.74C1333.84 373.874 1334.74 372.978 1334.74 371.874V344.964C1334.74 343.86 1333.84 342.964 1332.74 342.964H1319ZM1342 363.146C1342 362.042 1342.9 361.146 1344 361.146H1357.74C1358.84 361.146 1359.74 362.042 1359.74 363.146V371.874C1359.74 372.978 1358.84 373.874 1357.74 373.874H1344C1342.9 373.874 1342 372.978 1342 371.874V363.146Z" fill="url(#paint66_linear)"/>
<path d="M1267 398.874C1265.9 398.874 1265 398.06 1265 397.056C1265 396.052 1265.9 395.238 1267 395.238H1284.74C1285.84 395.238 1286.74 396.052 1286.74 397.056C1286.74 398.06 1285.84 398.874 1284.74 398.874H1267Z" fill="#55BD97"/>
<path opacity="0.25" d="M1267 407.965C1265.9 407.965 1265 407.151 1265 406.147C1265 405.143 1265.9 404.329 1267 404.329H1304.74C1305.84 404.329 1306.74 405.143 1306.74 406.147C1306.74 407.151 1305.84 407.965 1304.74 407.965H1267Z" fill="#55BD97"/>
</g>
<path d="M1453.16 484.575C1453.16 484.575 1451.43 491.029 1440.92 491.52C1430.41 492.01 1431.96 498.464 1431.96 498.464C1431.96 498.464 1461.3 498.464 1467.09 498.464C1472.89 498.464 1471.48 494.597 1471.48 494.597L1468.59 484.575H1453.16Z" fill="url(#paint67_linear)"/>
<mask id="mask0" mask-type="alpha" maskUnits="userSpaceOnUse" x="1431" y="484" width="41" height="15">
<path d="M1453.16 484.575C1453.16 484.575 1451.43 491.029 1440.92 491.52C1430.41 492.01 1431.96 498.464 1431.96 498.464C1431.96 498.464 1461.3 498.464 1467.09 498.464C1472.89 498.464 1471.48 494.597 1471.48 494.597L1468.59 484.575H1453.16Z" fill="white"/>
</mask>
<g mask="url(#mask0)">
<rect opacity="0.2" width="39.9951" height="6.2038" transform="matrix(-1 0 0 1 1471.76 492.53)" fill="#F3F4FF"/>
</g>
<path d="M1497.36 484.575C1497.36 484.575 1495.02 488.442 1490.56 491.52C1486.1 494.597 1487.8 498.464 1490.24 498.464C1492.68 498.464 1509.51 498.464 1515.3 498.464C1521.09 498.464 1519.69 494.597 1519.69 494.597L1512.79 484.575H1497.36Z" fill="url(#paint68_linear)"/>
<mask id="mask1" mask-type="alpha" maskUnits="userSpaceOnUse" x="1487" y="484" width="33" height="15">
<path d="M1497.36 484.575C1497.36 484.575 1495.02 488.442 1490.56 491.52C1486.1 494.597 1487.8 498.464 1490.24 498.464C1492.68 498.464 1509.51 498.464 1515.3 498.464C1521.09 498.464 1519.69 494.597 1519.69 494.597L1512.79 484.575H1497.36Z" fill="white"/>
</mask>
<g mask="url(#mask1)">
<rect opacity="0.2" width="32.1747" height="6.2038" transform="matrix(-1 0 0 1 1519.96 492.53)" fill="#F3F4FF"/>
</g>
<path d="M1515.24 340.69C1521.15 378.103 1512.48 393.568 1515.24 426.497C1515.88 434.087 1515.24 462.938 1514.45 477.45C1514.28 480.585 1516.58 484.491 1512.82 485.231C1509.06 485.97 1497.92 485.673 1495.48 485.673C1493.03 485.673 1494.35 481.792 1494.35 478.763C1494.35 455.89 1490.56 454.47 1491.37 442.458C1492.91 419.669 1483.72 379.222 1483.72 379.222C1483.72 379.222 1480.81 400.174 1474.79 419.792C1471.45 430.688 1474.55 444.557 1471.68 465.699C1471.27 468.758 1472.68 484.262 1468.92 484.788C1465.15 485.314 1455.52 485.314 1452.93 485.231C1450.34 485.148 1450.7 475.793 1448.98 465.699C1447.25 455.605 1448.98 432.254 1448.98 419.792C1448.98 407.331 1461.86 340.69 1461.86 340.69H1515.24Z" fill="url(#paint69_linear)"/>
<mask id="mask2" mask-type="alpha" maskUnits="userSpaceOnUse" x="1448" y="340" width="70" height="146">
<path d="M1515.24 340.69C1521.15 378.103 1512.48 393.568 1515.24 426.497C1515.88 434.087 1515.24 462.938 1514.45 477.45C1514.28 480.585 1516.58 484.491 1512.82 485.231C1509.06 485.97 1497.92 485.673 1495.48 485.673C1493.03 485.673 1494.35 481.792 1494.35 478.763C1494.35 455.89 1490.56 454.47 1491.37 442.458C1492.91 419.669 1483.72 379.222 1483.72 379.222C1483.72 379.222 1480.81 400.174 1474.79 419.792C1471.45 430.688 1474.55 444.557 1471.68 465.699C1471.27 468.758 1472.68 484.262 1468.92 484.788C1465.15 485.314 1455.52 485.314 1452.93 485.231C1450.34 485.148 1450.7 475.793 1448.98 465.699C1447.25 455.605 1448.98 432.254 1448.98 419.792C1448.98 407.331 1461.86 340.69 1461.86 340.69H1515.24Z" fill="white"/>
</mask>
<g mask="url(#mask2)">
<path opacity="0.3" d="M1461.51 340.69C1461.51 340.69 1462.24 352.83 1482.49 352.83C1502.74 352.83 1485.43 373.511 1506.11 378.295C1526.8 383.079 1514.78 406.355 1527.36 406.355C1539.94 406.355 1516.52 342.028 1516.52 342.028L1461.51 340.69Z" fill="#1D1E30"/>
<path opacity="0.3" d="M1485.03 383.629L1478.61 361.408C1478.61 361.408 1474.37 369.265 1475.81 379.648C1477.24 390.03 1466.93 397.82 1471.83 405.583C1476.72 413.346 1461.96 430.165 1472.62 442.368C1483.27 454.57 1478.32 441.319 1478.32 441.319L1485.03 383.629Z" fill="#1D1E30"/>
</g>
<path d="M1476.1 262.447C1482.98 260.437 1496.12 258.622 1511.91 261.286C1519.42 262.554 1524.52 268.073 1527.44 274.454C1537.35 296.11 1540.72 319.723 1526.2 319.723C1519.78 319.723 1521.47 319.723 1517.35 319.723C1517.35 319.723 1517.72 338.78 1517.69 339.641C1517.61 342.25 1518.71 345.361 1510.98 346.481C1503.24 347.601 1480.22 347.601 1472.64 346.951C1465.06 346.3 1457.47 345.469 1461.02 338.244C1464.56 331.019 1465.23 305.254 1465.23 305.254L1450.83 313.047C1450.83 313.047 1442.8 315.344 1438.74 310.269C1434.69 305.194 1420.44 280.817 1420.44 280.817C1420.44 280.817 1420.44 274.959 1431.25 275.531L1447.56 294.493L1465.23 269.889C1465.23 269.889 1469.23 264.457 1476.1 262.447Z" fill="url(#paint70_linear)"/>
<mask id="mask3" mask-type="alpha" maskUnits="userSpaceOnUse" x="1420" y="259" width="116" height="89">
<path d="M1476.1 262.447C1482.98 260.437 1496.12 258.622 1511.91 261.286C1519.42 262.554 1524.52 268.073 1527.44 274.454C1537.35 296.11 1540.72 319.723 1526.2 319.723C1519.78 319.723 1521.47 319.723 1517.35 319.723C1517.35 319.723 1517.72 338.78 1517.69 339.641C1517.61 342.25 1518.71 345.361 1510.98 346.481C1503.24 347.601 1480.22 347.601 1472.64 346.951C1465.06 346.3 1457.47 345.469 1461.02 338.244C1464.56 331.019 1465.23 305.254 1465.23 305.254L1450.83 313.047C1450.83 313.047 1442.8 315.344 1438.74 310.269C1434.69 305.194 1420.44 280.817 1420.44 280.817C1420.44 280.817 1420.44 274.959 1431.25 275.531L1447.56 294.493L1465.23 269.889C1465.23 269.889 1469.23 264.457 1476.1 262.447Z" fill="white"/>
</mask>
<g mask="url(#mask3)">
<path opacity="0.12" d="M1492.19 267.635C1492.19 267.635 1483.38 292.525 1484.79 318.158C1486.19 343.791 1483.03 336.91 1483.03 345.091C1483.03 353.271 1479.3 357.984 1478.68 348.947C1478.05 339.911 1480.91 341.102 1480.91 332.348C1480.91 323.595 1480.68 300.388 1483.03 287.814C1485.39 275.239 1492.19 261.118 1492.19 261.118V267.635Z" fill="white"/>
<path d="M1491.23 267.635C1491.23 267.635 1493.68 270.843 1493.68 271.997C1493.68 273.15 1489.87 275.213 1489.87 275.213C1489.87 275.213 1486.03 300.995 1486.96 309.074C1486.96 309.074 1486.02 312.013 1486.32 313.268C1486.6 314.457 1487.5 318.902 1487.5 318.902L1488.99 319.128C1490.05 324.093 1490.7 329.785 1490.7 329.785L1483.83 334.162L1476.83 327.159C1476.83 327.159 1479.95 320.156 1479.95 307.901C1479.95 295.646 1486.95 274.364 1486.95 274.364C1486.95 274.364 1485.88 271.997 1485.88 270.951C1485.88 269.905 1491.23 267.635 1491.23 267.635Z" fill="url(#paint71_linear)"/>
<rect width="10.52" height="2.62604" transform="matrix(-1 0 0 1 1480.96 282.516)" fill="#C2EDD7"/>
<path opacity="0.2" d="M1433.54 277.264C1433.54 277.264 1432.9 285.518 1427.63 286.535C1422.37 287.551 1417.4 283.219 1417.4 283.219L1418.65 274.927L1427.63 272.482L1433.54 274.336V277.264Z" fill="white"/>
<path opacity="0.3" d="M1465.25 305.258C1465.25 305.258 1465.22 290.732 1468 281.864C1468 281.864 1462.99 284.57 1462.22 293.561C1461.45 302.552 1456.51 293.916 1453.34 304.002C1450.18 314.088 1442.18 307.479 1440.31 310.178C1438.44 312.876 1450.18 318.222 1450.18 318.222L1465.25 305.258Z" fill="#236461"/>
<path opacity="0.3" d="M1515.24 261.079C1515.24 261.079 1515.57 270.167 1501.24 270.167C1500.21 270.167 1497.02 274.716 1496.62 274.208C1495.98 273.405 1494.42 270.963 1492.68 270.894C1489.22 270.755 1481.79 272.558 1481.12 271.136C1480.74 270.319 1491.33 265.009 1491.33 265.009C1491.33 265.009 1495.41 258.948 1500.72 258.492C1506.04 258.037 1515.24 261.079 1515.24 261.079Z" fill="#2F7D79"/>
<path d="M1504.58 257.195L1497.67 273.695C1497.38 274.37 1496.49 274.522 1496 273.978L1490.28 267.635L1482.15 271.352C1481.24 271.769 1480.35 270.733 1480.9 269.894L1488.69 258.006L1500.58 254.911L1504.9 257.195" fill="#C2EDD7"/>
<path opacity="0.3" d="M1527.65 339.718C1527.65 339.718 1525.18 334.278 1517.94 331.685L1518.54 337.932L1525.65 340.69L1527.65 339.718Z" fill="#373A5B"/>
<path opacity="0.3" d="M1431.29 275.492C1431.29 275.492 1430.14 282.819 1425.46 282.819C1420.77 282.819 1418.88 278.392 1418.88 278.392L1428.99 272.857L1431.29 275.492Z" fill="#373A5B"/>
<path opacity="0.3" d="M1517.35 319.837C1517.35 319.837 1497.58 319.457 1487.6 318.902C1477.61 318.347 1475.21 317.494 1475.21 317.494C1475.21 317.494 1488.74 321.868 1493.47 321.868C1498.2 321.868 1498.06 318.725 1503.24 325.246C1508.42 331.768 1512.54 323.454 1517.35 335.784C1522.17 348.114 1517.35 319.837 1517.35 319.837Z" fill="#236461"/>
<path opacity="0.3" d="M1486.98 309.083L1517.35 304.594L1511.9 283.46C1511.9 283.46 1507.56 287.949 1511.02 296.272C1514.49 304.594 1505.37 296.859 1502.17 302.295C1498.97 307.731 1486.98 309.083 1486.98 309.083Z" fill="#236461"/>
<path opacity="0.2" d="M1491.1 308.545L1486.7 309.083C1486.7 309.083 1486.34 312.677 1486.7 314.542C1487.06 316.407 1487.6 318.902 1487.6 318.902L1492.72 319.165C1492.72 319.165 1490.81 312.561 1491.1 308.545Z" fill="white"/>
</g>
<path d="M1478.2 235.962C1478.2 235.962 1478.82 228.382 1485.54 226.493C1492.26 224.604 1501.09 226.004 1503.58 233.323C1506.07 240.642 1499.16 250.871 1499.16 250.871L1478.2 235.962Z" fill="url(#paint72_linear)"/>
<path d="M1502.52 260.219C1502.52 260.219 1492.78 267.51 1490.85 267.51C1488.92 267.51 1487.5 260.219 1487.5 260.219L1488.57 254.338L1499.97 248.908L1502.52 260.219Z" fill="url(#paint73_linear)"/>
<mask id="mask4" mask-type="alpha" maskUnits="userSpaceOnUse" x="1487" y="248" width="16" height="20">
<path d="M1502.52 260.219C1502.52 260.219 1492.78 267.51 1490.85 267.51C1488.92 267.51 1487.5 260.219 1487.5 260.219L1488.57 254.338L1499.97 248.908L1502.52 260.219Z" fill="white"/>
</mask>
<g mask="url(#mask4)">
<path opacity="0.2" d="M1500.23 249.134C1500.23 249.134 1498.16 260.927 1489.32 261.867C1480.49 262.806 1481.17 256.737 1481.17 256.737L1500.23 249.134Z" fill="#50211F"/>
</g>
<path d="M1493.82 235.04C1488.69 236.791 1481.47 237.854 1478.21 235.916C1478.83 250.697 1481.44 258.088 1485.57 258.088C1491.78 258.088 1498.56 255.182 1500.13 249.075C1500.14 249.008 1500.16 248.942 1500.18 248.877C1500.33 248.897 1500.49 248.908 1500.66 248.908C1502.55 248.908 1504.09 247.501 1504.09 245.766C1504.09 244.031 1502.55 242.625 1500.66 242.625C1499.47 242.625 1498.42 243.181 1497.8 244.024C1497.46 244.169 1498.94 233.29 1493.82 235.04Z" fill="url(#paint74_linear)"/>
<mask id="mask5" mask-type="alpha" maskUnits="userSpaceOnUse" x="1478" y="234" width="27" height="25">
<path d="M1493.82 235.04C1488.69 236.791 1481.47 237.854 1478.21 235.916C1478.83 250.697 1481.44 258.088 1485.57 258.088C1491.78 258.088 1498.56 255.182 1500.13 249.075C1500.14 249.008 1500.16 248.942 1500.18 248.877C1500.33 248.897 1500.49 248.908 1500.66 248.908C1502.55 248.908 1504.09 247.501 1504.09 245.766C1504.09 244.031 1502.55 242.625 1500.66 242.625C1499.47 242.625 1498.42 243.181 1497.8 244.024C1497.46 244.169 1498.94 233.29 1493.82 235.04Z" fill="white"/>
</mask>
<g mask="url(#mask5)">
<path d="M1485 248.58C1485 248.58 1489.82 249.164 1490.95 251.473C1492.07 253.782 1485 249.499 1485 249.499C1485 249.499 1480.04 253.034 1480.04 251.003C1480.04 248.972 1485 248.58 1485 248.58Z" fill="url(#paint75_linear)"/>
<path opacity="0.2" d="M1478.09 236.122C1478.09 236.122 1484.65 239.989 1489.93 238.996C1495.21 238.003 1494.07 245.312 1498.46 243.399L1496.68 233.823L1478.09 236.122Z" fill="#50211F"/>
</g>
<path d="M1427.02 269.153C1424.89 266.837 1427.01 263.037 1424.67 263.037C1424.22 263.037 1422.74 263.957 1422.51 265.073C1422.24 266.396 1422.51 268.174 1422.51 268.174C1422.51 268.174 1417.81 268.591 1416.7 269.812C1415.54 271.09 1416.03 276.249 1416.7 277.947C1417.64 280.315 1418.88 280.315 1421.53 281.057C1422.75 281.4 1425.22 282.825 1425.22 282.825C1425.22 282.825 1426.75 283.22 1428.62 281.928C1430.5 280.636 1431.28 276.041 1431.28 276.041C1431.28 276.041 1429.15 271.469 1427.02 269.153Z" fill="url(#paint76_linear)"/>
<mask id="mask6" mask-type="alpha" maskUnits="userSpaceOnUse" x="1416" y="263" width="16" height="20">
<path d="M1427.02 269.153C1424.89 266.837 1427.01 263.037 1424.67 263.037C1424.22 263.037 1422.74 263.957 1422.51 265.073C1422.24 266.396 1422.51 268.174 1422.51 268.174C1422.51 268.174 1417.81 268.591 1416.7 269.812C1415.54 271.09 1416.03 276.249 1416.7 277.947C1417.64 280.315 1418.88 280.315 1421.53 281.057C1422.75 281.4 1425.22 282.825 1425.22 282.825C1425.22 282.825 1426.75 283.22 1428.62 281.928C1430.5 280.636 1431.28 276.041 1431.28 276.041C1431.28 276.041 1429.15 271.469 1427.02 269.153Z" fill="white"/>
</mask>
<g mask="url(#mask6)">
<path opacity="0.2" d="M1431.29 275.276C1431.29 275.276 1428.58 282.203 1422.07 281.099L1425.22 284.159L1431.29 281.864V275.276Z" fill="#50211F"/>
<path opacity="0.2" d="M1421.43 268.894C1421.43 268.894 1424.94 269.305 1424.94 272.951C1424.94 276.597 1424.88 279.846 1421.43 280.682C1421.43 280.682 1427.49 280.232 1426.86 273.741C1426.24 267.251 1421.43 268.894 1421.43 268.894Z" fill="#50211F"/>
</g>
<path d="M1475.21 289.266L1484.2 327.824L1454.02 327.223L1444.38 289.266H1475.21Z" fill="url(#paint77_linear)"/>
<path d="M1487.6 318.901C1487.6 318.901 1486.16 313.292 1486.67 310.158C1486.67 310.158 1482.05 306.525 1479.45 306.525L1480.13 309.481C1480.13 309.481 1473.72 309.247 1470.74 306.525C1467.76 303.802 1469.24 309.891 1471.17 310.833C1473.09 311.775 1472.25 317.198 1476.88 318.049C1481.51 318.901 1487.6 318.901 1487.6 318.901Z" fill="url(#paint78_linear)"/>
<g filter="url(#filter1_d)">
<path d="M1374.71 225.938C1377.9 237.634 1396.45 246.052 1413.67 239.494C1435.7 228.661 1452.84 253.728 1452.3 241.688C1442.17 216.752 1419.73 198.694 1402.07 199.355C1384.41 200.015 1370.34 209.863 1374.71 225.938Z" fill="white"/>
<ellipse cx="1460" cy="251.187" rx="4" ry="3.63641" fill="white"/>
<ellipse cx="1390" cy="221.187" rx="2" ry="1.81824" fill="#828282"/>
<ellipse cx="1412" cy="221.187" rx="2" ry="1.81824" fill="#E0E0E0"/>
<ellipse cx="1401" cy="221.187" rx="2" ry="1.81824" fill="#BDBDBD"/>
</g>
<g filter="url(#filter2_d)">
<path d="M409 393.917H543C547.418 393.917 551 397.173 551 401.19V437.554C551 441.571 547.418 444.827 543 444.827H409C404.582 444.827 401 441.571 401 437.554V401.19C401 397.173 404.582 393.917 409 393.917Z" fill="white"/>
<path opacity="0.1" fill-rule="evenodd" clip-rule="evenodd" d="M495 405.862C493.895 405.862 493 406.757 493 407.862V431.163C493 432.267 493.895 433.163 495 433.163H499.323C500.428 433.163 501.323 432.267 501.323 431.163V407.862C501.323 406.757 500.428 405.862 499.323 405.862H495ZM506.821 405.862C505.716 405.862 504.821 406.757 504.821 407.862V431.163C504.821 432.267 505.716 433.163 506.821 433.163H511.143C512.248 433.163 513.143 432.267 513.143 431.163V407.862C513.143 406.757 512.248 405.862 511.143 405.862H506.821ZM518.641 405.862C517.536 405.862 516.641 406.757 516.641 407.862V431.163C516.641 432.267 517.536 433.163 518.641 433.163H522.964C524.069 433.163 524.964 432.267 524.964 431.163V407.862C524.964 406.757 524.069 405.862 522.964 405.862H518.641ZM528.462 407.862C528.462 406.757 529.357 405.862 530.462 405.862H534.784C535.889 405.862 536.784 406.757 536.784 407.862V431.163C536.784 432.267 535.889 433.163 534.784 433.163H530.462C529.357 433.163 528.462 432.267 528.462 431.163V407.862Z" fill="#74C162"/>
<path fill-rule="evenodd" clip-rule="evenodd" d="M506.821 413.834C505.716 413.834 504.821 414.729 504.821 415.834V431.163C504.821 432.267 505.716 433.163 506.821 433.163H511.143C512.248 433.163 513.143 432.267 513.143 431.163V415.834C513.143 414.729 512.248 413.834 511.143 413.834H506.821ZM495 422.925C493.895 422.925 493 423.82 493 424.925V431.163C493 432.267 493.895 433.163 495 433.163H499.323C500.428 433.163 501.323 432.267 501.323 431.163V424.925C501.323 423.82 500.428 422.925 499.323 422.925H495ZM516.641 420.659C516.641 419.555 517.536 418.659 518.641 418.659H522.964C524.069 418.659 524.964 419.555 524.964 420.659V431.163C524.964 432.268 524.069 433.163 522.964 433.163H518.641C517.536 433.163 516.641 432.268 516.641 431.163V420.659ZM530.462 427.75C529.357 427.75 528.462 428.646 528.462 429.75V431.163C528.462 432.267 529.357 433.163 530.462 433.163H534.785C535.889 433.163 536.785 432.267 536.785 431.163V429.75C536.785 428.646 535.889 427.75 534.785 427.75H530.462Z" fill="url(#paint79_linear)"/>
<path d="M418.784 416.19C417.679 416.19 416.784 415.376 416.784 414.372C416.784 413.368 417.679 412.554 418.784 412.554H436.521C437.626 412.554 438.521 413.368 438.521 414.372C438.521 415.376 437.626 416.19 436.521 416.19H418.784Z" fill="#55BD97"/>
<path d="M418.784 425.281C417.679 425.281 416.784 424.467 416.784 423.463C416.784 422.459 417.679 421.645 418.784 421.645H456.521C457.626 421.645 458.521 422.459 458.521 423.463C458.521 424.467 457.626 425.281 456.521 425.281H418.784Z" fill="#E6F8F6"/>
</g>
<g filter="url(#filter3_d)">
<path d="M567.534 261.912C562.446 249.673 539.487 248.664 525.823 261.384C509.269 280.178 483.649 260.231 488.737 272.47C500.679 297.287 530.88 303.142 547.199 296.357C561.391 290.457 574.859 279.532 567.534 261.912Z" fill="white"/>
<ellipse rx="4" ry="3.6364" transform="matrix(0.965926 -0.258819 -0.258819 -0.965926 497.381 322.027)" fill="white"/>
<circle r="2" transform="matrix(0.965926 -0.258819 -0.258819 -0.965926 533.722 276.061)" fill="#828282"/>
<circle r="2" transform="matrix(0.965926 -0.258819 -0.258819 -0.965926 554.973 270.367)" fill="#E0E0E0"/>
<circle r="2" transform="matrix(0.965926 -0.258819 -0.258819 -0.965926 544.348 273.214)" fill="#BDBDBD"/>
</g>
<path d="M465.592 484.476C465.592 484.476 467.345 490.977 477.974 491.47C488.603 491.964 487.034 498.465 487.034 498.465C487.034 498.465 457.358 498.465 451.5 498.465C445.641 498.465 447.061 494.57 447.061 494.57L449.991 484.476H465.592Z" fill="url(#paint80_linear)"/>
<mask id="mask7" mask-type="alpha" maskUnits="userSpaceOnUse" x="446" y="484" width="42" height="15">
<path d="M465.592 484.476C465.592 484.476 467.345 490.977 477.974 491.47C488.603 491.964 487.034 498.465 487.034 498.465C487.034 498.465 457.358 498.465 451.5 498.465C445.641 498.465 447.061 494.57 447.061 494.57L449.991 484.476H465.592Z" fill="white"/>
</mask>
<g mask="url(#mask7)">
<path d="M488.565 493.506L487.485 493.506V498.795H445.891V493.506H473.094C474.348 489.153 486.94 485.601 488.565 493.506Z" fill="#D8E8F8"/>
</g>
<path d="M410.246 484.476C410.246 484.476 412.614 488.371 417.124 491.47C421.633 494.57 419.919 498.465 417.448 498.465C414.977 498.465 397.961 498.465 392.102 498.465C386.244 498.465 387.663 494.57 387.663 494.57L394.644 484.476H410.246Z" fill="url(#paint81_linear)"/>
<mask id="mask8" mask-type="alpha" maskUnits="userSpaceOnUse" x="387" y="484" width="33" height="15">
<path d="M410.246 484.476C410.246 484.476 412.614 488.371 417.124 491.47C421.633 494.57 419.919 498.465 417.448 498.465C414.977 498.465 397.961 498.465 392.102 498.465C386.244 498.465 387.663 494.57 387.663 494.57L394.644 484.476H410.246Z" fill="white"/>
</mask>
<g mask="url(#mask8)">
<path d="M405.749 487.894C410.868 487.894 415.424 490.091 418.345 493.506H420.741V498.795H386.886V493.506H393.153C396.074 490.091 400.63 487.894 405.749 487.894Z" fill="#D8E8F8"/>
</g>
<path d="M419.919 339.568C407.664 392.703 413.081 388.65 406.96 421.009C405.586 428.274 397.763 465.671 394.602 477.301C393.851 480.06 391.723 484.746 395.944 485.137C400.165 485.527 407.981 485.583 410.454 485.583C412.927 485.583 413.974 480.91 414.934 478.623C421.182 463.75 444.626 378.583 444.626 378.583C444.626 378.583 455.576 425.794 450.014 475.293C449.664 478.405 448.523 485.137 450.412 485.137C452.301 485.137 465.165 485.583 466.581 485.583C467.997 485.583 468.543 478.196 469.885 470.21C471.226 462.224 472.848 451.938 473.911 423.099C474.974 394.259 473.911 339.568 473.911 339.568H419.919Z" fill="url(#paint82_linear)"/>
<mask id="mask9" mask-type="alpha" maskUnits="userSpaceOnUse" x="393" y="339" width="82" height="147">
<path d="M419.919 339.568C407.664 392.703 413.081 388.65 406.96 421.009C405.586 428.274 397.763 465.671 394.602 477.301C393.851 480.06 391.723 484.746 395.944 485.137C400.165 485.527 407.981 485.583 410.454 485.583C412.927 485.583 413.974 480.91 414.934 478.623C421.182 463.75 444.626 378.583 444.626 378.583C444.626 378.583 455.576 425.794 450.014 475.293C449.664 478.405 448.523 485.137 450.412 485.137C452.301 485.137 465.165 485.583 466.581 485.583C467.997 485.583 468.543 478.196 469.885 470.21C471.226 462.224 472.848 451.938 473.911 423.099C474.974 394.259 473.911 339.568 473.911 339.568H419.919Z" fill="white"/>
</mask>
<g mask="url(#mask9)">
<path opacity="0.3" d="M474.269 354.948C474.269 354.948 473.529 367.175 453.047 367.175C432.566 367.175 450.078 388.003 429.155 392.821C408.232 397.639 420.385 421.08 407.665 421.08C394.944 421.08 418.642 336.584 418.642 336.584L474.269 334.934V354.948Z" fill="#151731"/>
<path opacity="0.3" d="M444.589 379.01L454.435 357.672C454.435 357.672 457.468 366.052 454.435 376.223C451.402 386.393 460.531 395.485 454.435 402.599C448.339 409.713 460.531 428.38 447.986 439.183C435.441 449.986 442.435 437.405 442.435 437.405L444.589 379.01Z" fill="#151731"/>
</g>
<path d="M461.723 262.561C454.77 260.537 436.107 259.158 420.145 261.841C412.548 263.118 408.33 267.487 408.33 267.487C402.775 272.739 398.372 277.652 394.822 282.014C403.219 289.722 412.217 295.525 412.217 295.525C415.018 293.221 416.691 292.204 416.691 292.204C416.691 292.204 420.11 316.518 420.145 323.914C420.18 331.176 416.74 344.697 416.768 345.564C416.854 348.191 411.242 361.199 413.457 361.199C446.784 364.598 445.407 360.02 476.085 360.02C478.858 360.02 476.085 351.143 475.057 344.157C474.029 337.17 470.795 297.975 470.795 297.975L482.273 284.179L470.795 268.263C470.795 268.263 468.677 264.586 461.723 262.561Z" fill="url(#paint83_linear)"/>
<mask id="mask10" mask-type="alpha" maskUnits="userSpaceOnUse" x="394" y="260" width="89" height="103">
<path d="M461.723 262.561C454.77 260.537 436.107 259.158 420.145 261.841C412.548 263.118 408.33 267.487 408.33 267.487C402.775 272.739 398.372 277.652 394.822 282.014C403.219 289.722 412.217 295.525 412.217 295.525C415.018 293.221 416.691 292.204 416.691 292.204C416.691 292.204 420.11 316.518 420.145 323.914C420.18 331.176 416.74 344.697 416.768 345.564C416.854 348.191 411.242 361.199 413.457 361.199C446.784 364.598 445.407 360.02 476.085 360.02C478.858 360.02 476.085 351.143 475.057 344.157C474.029 337.17 470.795 297.975 470.795 297.975L482.273 284.179L470.795 268.263C470.795 268.263 468.677 264.586 461.723 262.561Z" fill="white"/>
</mask>
<g mask="url(#mask10)">
<path opacity="0.5" d="M427.84 282.178L468.385 281.926L469.352 286.334H421.314L427.84 282.178Z" fill="white"/>
<rect opacity="0.5" x="387.785" y="296.031" width="108.473" height="4.40796" fill="white"/>
<rect opacity="0.5" x="387.785" y="310.137" width="108.473" height="4.40784" fill="white"/>
<rect opacity="0.5" x="387.785" y="324.242" width="108.473" height="4.40784" fill="white"/>
<path opacity="0.5" d="M387.785 338.347L496.258 338.347V342.755H387.785V338.347Z" fill="white"/>
<path opacity="0.5" d="M387.785 352.453L496.258 352.453V356.861H387.785V352.453Z" fill="white"/>
<path opacity="0.3" d="M416.585 292.372L429.155 280.955C429.155 280.955 420.363 295.217 426.06 302.023C431.758 308.828 428.194 314.259 423.666 321.558C419.138 328.857 425.348 332.333 418.999 337.465L414.926 303.36L416.585 292.372Z" fill="#373A5B"/>
<path opacity="0.3" d="M470.796 297.96C470.796 297.96 469.754 289.49 467.997 280.323C467.997 280.323 473.065 283.049 473.841 292.103C474.617 301.158 479.617 292.461 482.819 302.619C486.02 312.776 494.104 306.12 495.998 308.838C497.891 311.556 486.02 316.94 486.02 316.94L470.796 297.96Z" fill="#373A5B"/>
<path opacity="0.3" d="M419.918 260.408C419.918 260.408 419.923 267.695 434.423 267.695C448.923 267.695 449.141 253.613 449.141 253.613L419.918 260.408Z" fill="#373A5B"/>
<path opacity="0.3" d="M407.665 338.588C407.665 338.588 410.165 333.11 417.479 330.499L416.876 336.79L409.685 339.567L407.665 338.588Z" fill="#373A5B"/>
</g>
<path d="M437.686 228.01C443.109 225.993 454.872 223.583 457.499 229.252C460.125 234.921 463.221 241.981 458.423 244.896C453.625 247.81 450.556 252.272 445.407 250.98C440.259 249.689 436.289 253.613 436.289 253.613C436.289 253.613 433.481 253.288 432.789 251.893C428.102 242.435 430.275 230.767 437.686 228.01Z" fill="url(#paint84_linear)"/>
<path d="M432.789 260.352C432.789 260.352 442.022 267.695 445.407 267.695C448.793 267.695 447.986 260.352 447.986 260.352L446.903 254.43L435.369 248.961L432.789 260.352Z" fill="url(#paint85_linear)"/>
<mask id="mask11" mask-type="alpha" maskUnits="userSpaceOnUse" x="432" y="248" width="17" height="20">
<path d="M432.789 260.352C432.789 260.352 442.022 267.695 445.407 267.695C448.793 267.695 447.986 260.352 447.986 260.352L446.903 254.43L435.369 248.961L432.789 260.352Z" fill="white"/>
</mask>
<g mask="url(#mask11)">
<path opacity="0.2" d="M435.107 249.189C435.107 249.189 437.205 261.066 446.14 262.012C455.075 262.958 454.386 256.846 454.386 256.846L435.107 249.189Z" fill="#DA433D"/>
</g>
<path d="M454.435 235.876C454.435 235.876 457.014 242.02 456.69 244.561C455.529 253.658 453.203 258.207 449.931 258.207C443.654 258.207 436.796 255.279 435.214 249.129C435.197 249.062 435.18 248.996 435.164 248.93C435.004 248.95 434.841 248.961 434.675 248.961C432.758 248.961 431.204 247.544 431.204 245.797C431.204 244.05 432.758 242.634 434.675 242.634C435.88 242.634 436.942 243.193 437.564 244.043C437.915 244.188 449.989 244.625 454.435 235.876Z" fill="url(#paint86_linear)"/>
<mask id="mask12" mask-type="alpha" maskUnits="userSpaceOnUse" x="431" y="235" width="26" height="24">
<path d="M454.435 235.876C454.435 235.876 457.014 242.02 456.69 244.561C455.529 253.658 453.203 258.207 449.931 258.207C443.654 258.207 436.796 255.279 435.214 249.129C435.197 249.062 435.18 248.996 435.164 248.93C435.004 248.95 434.841 248.961 434.675 248.961C432.758 248.961 431.204 247.544 431.204 245.797C431.204 244.05 432.758 242.634 434.675 242.634C435.88 242.634 436.942 243.193 437.564 244.043C437.915 244.188 449.989 244.625 454.435 235.876Z" fill="white"/>
</mask>
<g mask="url(#mask12)">
<path opacity="0.2" d="M454.435 234.147C454.435 234.147 454.419 242.87 447.566 244.546C440.714 246.221 437.686 244.037 437.686 244.037C437.686 244.037 437.913 243.662 437.098 242.483C436.283 241.304 454.435 234.147 454.435 234.147Z" fill="#DA433D"/>
</g>
<path d="M498.161 308.968C495.794 312.411 491.196 313.899 486.412 310.92L471.022 300.863L470.796 297.957L481.681 284.816L489.357 293.677L505.138 274.876L505.232 274.978C505.199 274.808 505.168 274.636 505.138 274.459C505.67 271.496 506.989 269.364 509.096 268.064C512.256 266.115 513.346 263.615 514.486 264.865C515.246 265.698 514.846 267.138 513.286 269.185C518.438 269.213 521.576 268.19 522.698 266.115C523.745 264.18 525.931 263.76 525.999 264.865C526.041 265.537 523.774 268.919 523.543 269.632C522.931 271.516 523.381 272.421 519.265 274.459C516.522 275.818 513.855 278.095 511.265 281.291C511.199 281.308 511.133 281.323 511.066 281.335C504.826 296.318 500.525 305.529 498.161 308.968Z" fill="url(#paint87_linear)"/>
<mask id="mask13" mask-type="alpha" maskUnits="userSpaceOnUse" x="470" y="264" width="56" height="49">
<path d="M498.161 308.968C495.794 312.411 491.196 313.899 486.412 310.92L471.022 300.863L470.796 297.957L481.681 284.816L489.357 293.677L505.138 274.876L505.232 274.978C505.199 274.808 505.168 274.636 505.138 274.459C505.67 271.496 506.989 269.364 509.096 268.064C512.256 266.115 513.346 263.615 514.486 264.865C515.246 265.698 514.846 267.138 513.286 269.185C518.438 269.213 521.576 268.19 522.698 266.115C523.745 264.18 525.931 263.76 525.999 264.865C526.041 265.537 523.774 268.919 523.543 269.632C522.931 271.516 523.381 272.421 519.265 274.459C516.522 275.818 513.855 278.095 511.265 281.291C511.199 281.308 511.133 281.323 511.066 281.335C504.826 296.318 500.525 305.529 498.161 308.968Z" fill="white"/>
</mask>
<g mask="url(#mask13)">
<path opacity="0.2" d="M470.796 302.958C470.796 302.958 469.754 289.49 467.997 280.323C467.997 280.323 473.065 283.049 473.841 292.103C474.617 301.158 479.617 292.461 482.819 302.619C486.02 312.776 495.492 307.412 497.386 310.13C499.279 312.848 486.02 316.94 486.02 316.94L470.796 302.958Z" fill="#DA433D"/>
</g>
<path d="M408.568 336.572L386.886 309.745C381.869 304.736 384.292 298.929 387.386 294.58C389.116 292.149 392.08 288.223 396.483 283.555C406.522 291.608 410.77 294.58 410.77 294.58L400.457 303.899L416.908 330.711C416.92 330.707 416.931 330.703 416.943 330.699L419.754 331.082L419.593 332.568C419.478 333.338 419.791 334.34 420.816 334.34C421.84 334.34 426.377 334.321 427.435 334.686C428.14 334.93 429.672 335.761 432.031 337.181C431.812 338.007 429.675 337.879 428.492 336.908C427.832 336.366 426.049 336.061 426.117 336.164C426.598 336.9 429.141 339.318 429.675 339.851C430.209 340.385 427.07 340.226 427.882 341.411C429.101 343.19 425.416 342.332 425.841 343.483C426.426 345.069 423.614 343.175 422.063 342.057C420.512 340.939 418.76 343.818 415.026 342.253C413.948 341.802 408.568 336.572 408.568 336.572Z" fill="url(#paint88_linear)"/>
<mask id="mask14" mask-type="alpha" maskUnits="userSpaceOnUse" x="384" y="283" width="49" height="62">
<path d="M408.568 336.572L386.886 309.745C381.869 304.736 384.292 298.929 387.386 294.58C389.116 292.149 392.08 288.223 396.483 283.555C406.522 291.608 410.77 294.58 410.77 294.58L400.457 303.899L416.908 330.711C416.92 330.707 416.931 330.703 416.943 330.699L419.754 331.082L419.593 332.568C419.478 333.338 419.791 334.34 420.816 334.34C421.84 334.34 426.377 334.321 427.435 334.686C428.14 334.93 429.672 335.761 432.031 337.181C431.812 338.007 429.675 337.879 428.492 336.908C427.832 336.366 426.049 336.061 426.117 336.164C426.598 336.9 429.141 339.318 429.675 339.851C430.209 340.385 427.07 340.226 427.882 341.411C429.101 343.19 425.416 342.332 425.841 343.483C426.426 345.069 423.614 343.175 422.063 342.057C420.512 340.939 418.76 343.818 415.026 342.253C413.948 341.802 408.568 336.572 408.568 336.572Z" fill="white"/>
</mask>
<g mask="url(#mask14)">
<path opacity="0.2" d="M413.431 296.028L392.534 284.843L397.242 282.279L413.431 292.331V296.028Z" fill="#DA433D"/>
</g>
<path d="M645.28 336.542C641.992 340.05 640.018 341.955 639.358 342.258C635.934 343.833 634.328 340.935 632.905 342.06C631.483 343.185 628.904 345.092 629.441 343.496C629.83 342.337 626.451 343.2 627.569 341.411C628.314 340.218 625.435 340.378 625.924 339.841C626.414 339.305 628.746 336.872 629.187 336.131C629.249 336.028 627.614 336.334 627.009 336.879C625.924 337.856 623.965 337.985 623.764 337.154C625.927 335.726 627.333 334.889 627.979 334.644C628.949 334.277 633.109 334.296 634.049 334.296C634.989 334.296 635.276 333.287 635.171 332.512L635.022 331.017L637.6 330.632C637.611 330.636 637.622 330.64 637.633 330.644L652.719 303.666L643.261 294.288C645.858 292.295 650.226 288.597 656.363 283.195C660.401 287.892 663.119 291.842 664.706 294.288C667.543 298.665 669.766 304.507 665.164 309.548L645.28 336.542Z" fill="url(#paint89_linear)"/>
<mask id="mask15" mask-type="alpha" maskUnits="userSpaceOnUse" x="623" y="283" width="45" height="62">
<path d="M645.28 336.542C641.992 340.05 640.018 341.955 639.358 342.258C635.934 343.833 634.328 340.935 632.905 342.06C631.483 343.185 628.904 345.092 629.441 343.496C629.83 342.337 626.451 343.2 627.569 341.411C628.314 340.218 625.435 340.378 625.924 339.841C626.414 339.305 628.746 336.872 629.187 336.131C629.249 336.028 627.614 336.334 627.009 336.879C625.924 337.856 623.965 337.985 623.764 337.154C625.927 335.726 627.333 334.889 627.979 334.644C628.949 334.277 633.109 334.296 634.049 334.296C634.989 334.296 635.276 333.287 635.171 332.512L635.022 331.017L637.6 330.632C637.611 330.636 637.622 330.64 637.633 330.644L652.719 303.666L643.261 294.288C645.858 292.295 650.226 288.597 656.363 283.195C660.401 287.892 663.119 291.842 664.706 294.288C667.543 298.665 669.766 304.507 665.164 309.548L645.28 336.542Z" fill="white"/>
</mask>
<g mask="url(#mask15)">
<path opacity="0.2" d="M641.83 291.927L643.908 277.024C643.908 277.024 645.614 289.671 651.533 293.514C657.451 297.357 662.309 305.813 658.19 307.212C648.467 310.515 656.105 319.24 648.467 321.043C640.829 322.846 641.666 332.474 640.475 327.381C639.929 325.044 643.908 307.212 643.908 307.212L641.83 291.927Z" fill="#DA433D"/>
</g>
<path d="M582.737 318.04C578.833 319.238 567.18 322.236 551.137 323.861C551.109 323.917 551.079 323.972 551.046 324.027C547.326 325.488 544.479 327.257 542.508 329.334C539.55 332.449 538.777 331.815 536.801 331.866C536.053 331.885 532.228 333.012 531.584 332.8C530.527 332.452 531.454 330.624 533.582 330.201C535.866 329.748 537.605 327.235 538.8 322.663C536.441 323.513 534.946 323.492 534.317 322.602C533.373 321.266 536.061 320.952 538.706 318.66C540.47 317.133 542.854 316.519 545.861 316.82C546.025 316.892 546.186 316.965 546.342 317.038L546.266 316.928L570.88 307.27C570.88 307.27 586.645 316.84 582.737 318.04Z" fill="url(#paint90_linear)"/>
<mask id="mask16" mask-type="alpha" maskUnits="userSpaceOnUse" x="531" y="299" width="55" height="46">
<path d="M582.737 318.04C578.833 319.238 567.18 322.236 551.137 323.861C551.109 323.917 551.079 323.972 551.046 324.027C547.326 325.488 544.479 327.257 542.508 329.334C539.55 332.449 538.777 331.815 536.801 331.866C536.053 331.885 532.228 333.012 531.584 332.8C530.527 332.452 531.454 330.624 533.582 330.201C535.866 329.748 537.605 327.235 538.8 322.663C536.441 323.513 534.946 323.492 534.317 322.602C533.373 321.266 536.061 320.952 538.706 318.66C540.47 317.133 542.854 316.519 545.861 316.82C546.025 316.892 546.186 316.965 546.342 317.038L546.266 316.928L570.88 307.27C570.88 307.27 586.645 316.84 582.737 318.04Z" fill="white"/>
</mask>
<g mask="url(#mask16)">
<path opacity="0.2" d="M565.556 305.247C565.556 305.247 580.767 299.245 582.122 294.191C583.476 289.137 563.482 302.378 563.482 302.378L565.556 305.247Z" fill="#DA433D"/>
</g>
<path d="M619.854 258.697C628.04 274.207 617.093 272.752 615.546 272.914C614.514 273.023 607.571 271.402 607.499 267.413L606.859 263.173C605.436 263.665 603.983 263.858 602.571 263.66C598.466 263.083 596.846 258.652 598.031 249.502C598.393 246.709 600.757 240.026 602.571 237.242C605.384 246.527 617.882 258.626 619.854 258.697Z" fill="url(#paint91_linear)"/>
<path d="M595.773 484.164C595.773 484.164 596.552 484.767 588.783 489.141C585.645 490.907 581.646 492.717 576.785 494.57C573.623 495.775 574.409 498.24 578.04 498.24C595.512 498.24 605.731 498.24 608.696 498.24C614.068 498.24 612.767 494.321 612.767 494.321L610.08 484.164H595.773Z" fill="url(#paint92_linear)"/>
<path d="M636.216 484.163C636.216 484.163 641.706 490.13 645.841 493.249C649.976 496.368 647.22 498.239 644.954 498.239C642.688 498.239 624.95 498.239 619.577 498.239C614.205 498.239 615.506 494.32 615.506 494.32L621.908 484.163H636.216Z" fill="url(#paint93_linear)"/>
<path d="M636.424 339.242C645.109 360.19 635.758 392.604 635.758 426.609C635.758 434.394 639.246 484.966 635.977 485.715C632.709 486.465 624.089 486.153 621.965 486.153C619.84 486.153 620.761 482.231 620.761 479.161C620.761 463.709 618.594 430.053 611.48 376.377C607.021 394.784 601.658 409.705 598.171 422.959C595.267 434 613.363 484.71 610.09 485.243C606.817 485.776 598.452 485.776 596.198 485.692C593.945 485.607 577.853 432.44 577.853 419.811C577.853 411.393 581.386 392.179 590.616 346.884L636.424 339.242Z" fill="url(#paint94_linear)"/>
<mask id="mask17" mask-type="alpha" maskUnits="userSpaceOnUse" x="577" y="339" width="64" height="148">
<path d="M636.424 339.242C645.109 360.19 635.758 392.604 635.758 426.609C635.758 434.394 639.246 484.966 635.977 485.715C632.709 486.465 624.089 486.153 621.965 486.153C619.84 486.153 620.761 482.231 620.761 479.161C620.761 463.709 618.594 430.053 611.48 376.377C607.021 394.784 601.658 409.705 598.171 422.959C595.267 434 613.363 484.71 610.09 485.243C606.817 485.776 598.452 485.776 596.198 485.692C593.945 485.607 577.853 432.44 577.853 419.811C577.853 411.393 581.386 392.179 590.616 346.884L636.424 339.242Z" fill="white"/>
</mask>
<g mask="url(#mask17)">
<path opacity="0.3" d="M641.395 349.887C641.395 349.887 640.718 362.189 621.935 362.189C603.151 362.189 619.211 383.147 600.024 387.995C580.837 392.842 591.981 416.43 580.316 416.43C568.651 416.43 589.907 345.138 589.907 345.138L636.858 334.466L641.395 349.887Z" fill="#151731"/>
<path opacity="0.3" d="M608.07 379.707L614.023 357.189C614.023 357.189 617.951 365.151 616.621 375.673C615.291 386.194 624.855 394.088 620.315 401.955C615.775 409.822 629.461 426.866 619.581 439.231C609.701 451.596 614.291 438.168 614.291 438.168L608.07 379.707Z" fill="#151731"/>
</g>
<path d="M603.15 268.195C609.941 266.931 617.351 265.495 631.989 268.195C636.633 269.052 655.882 279.826 664.519 291.386C664.519 291.386 672.229 302.047 665.016 310.515C664.051 311.648 657.702 298.788 653.025 300.662C650.172 298.052 644.237 294.168 641.927 292.471C641.826 308.674 641.848 315.345 641.826 320.306C641.795 327.613 642.897 359.09 642.871 359.963C642.871 359.963 646.022 363.601 631.989 366.679C617.955 369.756 600.613 364.055 592.57 363.13C590.384 362.879 588.535 362.701 586.8 361.797C584.581 360.642 587.836 338.051 589.265 326.338C590.353 317.419 591.764 315.576 592 308C588.5 313 588 314.5 585.5 316.5C581.819 317.635 577.052 313.337 570.5 306.5C572.598 302.791 584.285 283.552 589.368 277.506C591.901 273.074 598.739 269.015 603.15 268.195Z" fill="url(#paint95_linear)"/>
<mask id="mask18" mask-type="alpha" maskUnits="userSpaceOnUse" x="568" y="266" width="101" height="102">
<path d="M603.15 268.195C609.941 266.931 617.351 265.495 631.989 268.195C636.634 269.052 655.882 279.826 664.519 291.386C664.519 291.386 672.229 302.047 665.016 310.515C664.051 311.648 657.702 298.788 653.025 300.662C650.172 298.052 644.237 294.168 641.927 292.471C641.827 308.674 641.848 315.345 641.827 320.306C641.795 327.613 642.897 359.09 642.871 359.963C642.871 359.963 646.022 363.601 631.989 366.679C617.955 369.756 600.613 364.055 592.57 363.13C591.616 363.021 591.024 349.887 591.024 349.887C591.024 349.887 587.557 362.192 586.8 361.797C584.581 360.642 587.836 338.051 589.265 326.338C590.353 317.419 591.764 315.576 592 308C592.011 307.647 586.406 309.11 581.619 312.266C576.831 315.422 569.614 312.462 568.817 309.895C566.763 303.285 580.801 289.405 581.619 288.16C585.945 281.578 589.368 277.506 589.368 277.506C591.901 273.074 598.739 269.015 603.15 268.195Z" fill="white"/>
</mask>
<g mask="url(#mask18)">
<path opacity="0.3" d="M591.5 308.5L605.746 291.538C605.746 291.538 606.811 294.759 605.746 296.911C603.836 300.77 598.971 302.374 600.353 308.721C603.813 324.602 593.366 315.387 593.366 329.324C593.366 343.262 583.583 338.013 583.583 338.013L591.5 308.5Z" fill="#373A5B"/>
<path opacity="0.3" d="M641.831 292.814L643.909 277.911C643.909 277.911 645.486 292.814 651.533 294.401C657.579 295.987 655.29 303.613 657.452 306.513C652.955 306.963 643.909 308.099 643.909 308.099L641.831 292.814Z" fill="#373A5B"/>
</g>
<path d="M571.135 306.368C571.135 306.368 569.037 306.881 569.33 308.228C569.622 309.575 575.671 318.635 579.559 319.677C583.448 320.719 592.032 313.749 586.736 314.273C581.439 314.798 571.135 306.368 571.135 306.368Z" fill="#FFD5D7"/>
<path d="M650.749 298.983C650.749 298.983 669 298.717 669 304.306C669 309.895 664.511 311.402 664.511 311.402L650.749 304.306V298.983Z" fill="#FFD5D7"/>
<path d="M613.23 228.905C629.763 224.953 630.625 250.081 621.577 259.128C616.838 260.42 616.407 260.851 610.376 259.128C608.222 256.974 604.775 254.389 607.867 251.082C607.867 249.122 606.279 247.534 604.319 247.534C603.004 247.534 601.856 248.249 601.243 249.312C604.319 241.033 591.384 237.065 594.435 233.278C595.181 232.352 597.576 231.634 600.467 231.043C601.967 230.736 597.569 226.634 599.174 226.385C606.498 224.662 611.548 229.308 613.23 228.905Z" fill="url(#paint96_linear)"/>
<defs>
<filter id="filter0_d" x="1217" y="285.145" width="214" height="185.82" filterUnits="userSpaceOnUse" color-interpolation-filters="sRGB">
<feFlood flood-opacity="0" result="BackgroundImageFix"/>
<feColorMatrix in="SourceAlpha" type="matrix" values="0 0 0 0 0 0 0 0 0 0 0 0 0 0 0 0 0 0 127 0"/>
<feOffset dy="16"/>
<feGaussianBlur stdDeviation="16"/>
<feColorMatrix type="matrix" values="0 0 0 0 0.373906 0 0 0 0 0.663755 0 0 0 0 0.557849 0 0 0 0.12 0"/>
<feBlend mode="normal" in2="BackgroundImageFix" result="effect1_dropShadow"/>
<feBlend mode="normal" in="SourceGraphic" in2="effect1_dropShadow" result="shape"/>
</filter>
<filter id="filter1_d" x="1341.91" y="183.337" width="154.092" height="119.487" filterUnits="userSpaceOnUse" color-interpolation-filters="sRGB">
<feFlood flood-opacity="0" result="BackgroundImageFix"/>
<feColorMatrix in="SourceAlpha" type="matrix" values="0 0 0 0 0 0 0 0 0 0 0 0 0 0 0 0 0 0 127 0"/>
<feOffset dy="16"/>
<feGaussianBlur stdDeviation="16"/>
<feColorMatrix type="matrix" values="0 0 0 0 0.373906 0 0 0 0 0.663755 0 0 0 0 0.557849 0 0 0 0.12 0"/>
<feBlend mode="normal" in2="BackgroundImageFix" result="effect1_dropShadow"/>
<feBlend mode="normal" in="SourceGraphic" in2="effect1_dropShadow" result="shape"/>
</filter>
<filter id="filter2_d" x="357" y="371.917" width="238" height="138.91" filterUnits="userSpaceOnUse" color-interpolation-filters="sRGB">
<feFlood flood-opacity="0" result="BackgroundImageFix"/>
<feColorMatrix in="SourceAlpha" type="matrix" values="0 0 0 0 0 0 0 0 0 0 0 0 0 0 0 0 0 0 127 0"/>
<feOffset dy="22"/>
<feGaussianBlur stdDeviation="22"/>
<feColorMatrix type="matrix" values="0 0 0 0 0.545098 0 0 0 0 0.882353 0 0 0 0 0.788235 0 0 0 0.25 0"/>
<feBlend mode="normal" in2="BackgroundImageFix" result="effect1_dropShadow"/>
<feBlend mode="normal" in="SourceGraphic" in2="effect1_dropShadow" result="shape"/>
</filter>
<filter id="filter3_d" x="455.348" y="223.642" width="153.399" height="150.933" filterUnits="userSpaceOnUse" color-interpolation-filters="sRGB">
<feFlood flood-opacity="0" result="BackgroundImageFix"/>
<feColorMatrix in="SourceAlpha" type="matrix" values="0 0 0 0 0 0 0 0 0 0 0 0 0 0 0 0 0 0 127 0"/>
<feOffset dy="16"/>
<feGaussianBlur stdDeviation="16"/>
<feColorMatrix type="matrix" values="0 0 0 0 0.373906 0 0 0 0 0.663755 0 0 0 0 0.557849 0 0 0 0.12 0"/>
<feBlend mode="normal" in2="BackgroundImageFix" result="effect1_dropShadow"/>
<feBlend mode="normal" in="SourceGraphic" in2="effect1_dropShadow" result="shape"/>
</filter>
<linearGradient id="paint0_linear" x1="1920.75" y1="462.95" x2="-8.54266e-06" y2="462.95" gradientUnits="userSpaceOnUse">
<stop stop-color="#74C162"/>
<stop offset="1" stop-color="#55BD97"/>
</linearGradient>
<linearGradient id="paint1_linear" x1="4.00074" y1="1.68217" x2="-1.77935e-08" y2="1.68217" gradientUnits="userSpaceOnUse">
<stop stop-color="#74C162"/>
<stop offset="1" stop-color="#55BD97"/>
</linearGradient>
<linearGradient id="paint2_linear" x1="4.00074" y1="1.68217" x2="-1.77935e-08" y2="1.68217" gradientUnits="userSpaceOnUse">
<stop stop-color="#74C162"/>
<stop offset="1" stop-color="#55BD97"/>
</linearGradient>
<linearGradient id="paint3_linear" x1="4.00074" y1="1.68217" x2="-1.77935e-08" y2="1.68217" gradientUnits="userSpaceOnUse">
<stop stop-color="#74C162"/>
<stop offset="1" stop-color="#55BD97"/>
</linearGradient>
<linearGradient id="paint4_linear" x1="4.00074" y1="1.68217" x2="-1.77935e-08" y2="1.68217" gradientUnits="userSpaceOnUse">
<stop stop-color="#74C162"/>
<stop offset="1" stop-color="#55BD97"/>
</linearGradient>
<linearGradient id="paint5_linear" x1="4.00074" y1="1.68217" x2="-1.77935e-08" y2="1.68217" gradientUnits="userSpaceOnUse">
<stop stop-color="#74C162"/>
<stop offset="1" stop-color="#55BD97"/>
</linearGradient>
<linearGradient id="paint6_linear" x1="4.00074" y1="1.68217" x2="-1.77935e-08" y2="1.68217" gradientUnits="userSpaceOnUse">
<stop stop-color="#74C162"/>
<stop offset="1" stop-color="#55BD97"/>
</linearGradient>
<linearGradient id="paint7_linear" x1="4.00074" y1="1.68217" x2="-1.77935e-08" y2="1.68217" gradientUnits="userSpaceOnUse">
<stop stop-color="#74C162"/>
<stop offset="1" stop-color="#55BD97"/>
</linearGradient>
<linearGradient id="paint8_linear" x1="4.00074" y1="1.68217" x2="-1.77935e-08" y2="1.68217" gradientUnits="userSpaceOnUse">
<stop stop-color="#74C162"/>
<stop offset="1" stop-color="#55BD97"/>
</linearGradient>
<linearGradient id="paint9_linear" x1="4.00074" y1="1.68214" x2="-1.77935e-08" y2="1.68214" gradientUnits="userSpaceOnUse">
<stop stop-color="#74C162"/>
<stop offset="1" stop-color="#55BD97"/>
</linearGradient>
<linearGradient id="paint10_linear" x1="4.00074" y1="1.68214" x2="-1.77935e-08" y2="1.68214" gradientUnits="userSpaceOnUse">
<stop stop-color="#74C162"/>
<stop offset="1" stop-color="#55BD97"/>
</linearGradient>
<linearGradient id="paint11_linear" x1="4.00074" y1="1.68214" x2="-1.77935e-08" y2="1.68214" gradientUnits="userSpaceOnUse">
<stop stop-color="#74C162"/>
<stop offset="1" stop-color="#55BD97"/>
</linearGradient>
<linearGradient id="paint12_linear" x1="4.00074" y1="1.68214" x2="-1.77935e-08" y2="1.68214" gradientUnits="userSpaceOnUse">
<stop stop-color="#74C162"/>
<stop offset="1" stop-color="#55BD97"/>
</linearGradient>
<linearGradient id="paint13_linear" x1="4.00074" y1="1.68214" x2="-1.77935e-08" y2="1.68214" gradientUnits="userSpaceOnUse">
<stop stop-color="#74C162"/>
<stop offset="1" stop-color="#55BD97"/>
</linearGradient>
<linearGradient id="paint14_linear" x1="4.00074" y1="1.68214" x2="-1.77935e-08" y2="1.68214" gradientUnits="userSpaceOnUse">
<stop stop-color="#74C162"/>
<stop offset="1" stop-color="#55BD97"/>
</linearGradient>
<linearGradient id="paint15_linear" x1="4.00074" y1="1.68214" x2="-1.77935e-08" y2="1.68214" gradientUnits="userSpaceOnUse">
<stop stop-color="#74C162"/>
<stop offset="1" stop-color="#55BD97"/>
</linearGradient>
<linearGradient id="paint16_linear" x1="4.00074" y1="1.68214" x2="-1.77935e-08" y2="1.68214" gradientUnits="userSpaceOnUse">
<stop stop-color="#74C162"/>
<stop offset="1" stop-color="#55BD97"/>
</linearGradient>
<linearGradient id="paint17_linear" x1="4.00074" y1="1.68214" x2="-1.77935e-08" y2="1.68214" gradientUnits="userSpaceOnUse">
<stop stop-color="#74C162"/>
<stop offset="1" stop-color="#55BD97"/>
</linearGradient>
<linearGradient id="paint18_linear" x1="4.00074" y1="1.68214" x2="-1.77935e-08" y2="1.68214" gradientUnits="userSpaceOnUse">
<stop stop-color="#74C162"/>
<stop offset="1" stop-color="#55BD97"/>
</linearGradient>
<linearGradient id="paint19_linear" x1="4.00074" y1="1.68214" x2="-1.77935e-08" y2="1.68214" gradientUnits="userSpaceOnUse">
<stop stop-color="#74C162"/>
<stop offset="1" stop-color="#55BD97"/>
</linearGradient>
<linearGradient id="paint20_linear" x1="4.00074" y1="1.68214" x2="-1.77935e-08" y2="1.68214" gradientUnits="userSpaceOnUse">
<stop stop-color="#74C162"/>
<stop offset="1" stop-color="#55BD97"/>
</linearGradient>
<linearGradient id="paint21_linear" x1="4.00074" y1="1.68214" x2="-1.77935e-08" y2="1.68214" gradientUnits="userSpaceOnUse">
<stop stop-color="#74C162"/>
<stop offset="1" stop-color="#55BD97"/>
</linearGradient>
<linearGradient id="paint22_linear" x1="4.00074" y1="1.68214" x2="-1.77935e-08" y2="1.68214" gradientUnits="userSpaceOnUse">
<stop stop-color="#74C162"/>
<stop offset="1" stop-color="#55BD97"/>
</linearGradient>
<linearGradient id="paint23_linear" x1="4.00074" y1="1.68214" x2="-1.77935e-08" y2="1.68214" gradientUnits="userSpaceOnUse">
<stop stop-color="#74C162"/>
<stop offset="1" stop-color="#55BD97"/>
</linearGradient>
<linearGradient id="paint24_linear" x1="4.00074" y1="1.68214" x2="-1.77935e-08" y2="1.68214" gradientUnits="userSpaceOnUse">
<stop stop-color="#74C162"/>
<stop offset="1" stop-color="#55BD97"/>
</linearGradient>
<linearGradient id="paint25_linear" x1="4.00074" y1="1.6822" x2="-1.77935e-08" y2="1.6822" gradientUnits="userSpaceOnUse">
<stop stop-color="#74C162"/>
<stop offset="1" stop-color="#55BD97"/>
</linearGradient>
<linearGradient id="paint26_linear" x1="4.00074" y1="1.6822" x2="-1.77935e-08" y2="1.6822" gradientUnits="userSpaceOnUse">
<stop stop-color="#74C162"/>
<stop offset="1" stop-color="#55BD97"/>
</linearGradient>
<linearGradient id="paint27_linear" x1="4.00074" y1="1.6822" x2="-1.77935e-08" y2="1.6822" gradientUnits="userSpaceOnUse">
<stop stop-color="#74C162"/>
<stop offset="1" stop-color="#55BD97"/>
</linearGradient>
<linearGradient id="paint28_linear" x1="4.00074" y1="1.6822" x2="-1.77935e-08" y2="1.6822" gradientUnits="userSpaceOnUse">
<stop stop-color="#74C162"/>
<stop offset="1" stop-color="#55BD97"/>
</linearGradient>
<linearGradient id="paint29_linear" x1="4.00074" y1="1.6822" x2="-1.77935e-08" y2="1.6822" gradientUnits="userSpaceOnUse">
<stop stop-color="#74C162"/>
<stop offset="1" stop-color="#55BD97"/>
</linearGradient>
<linearGradient id="paint30_linear" x1="4.00074" y1="1.6822" x2="-1.77935e-08" y2="1.6822" gradientUnits="userSpaceOnUse">
<stop stop-color="#74C162"/>
<stop offset="1" stop-color="#55BD97"/>
</linearGradient>
<linearGradient id="paint31_linear" x1="4.00074" y1="1.6822" x2="-1.77935e-08" y2="1.6822" gradientUnits="userSpaceOnUse">
<stop stop-color="#74C162"/>
<stop offset="1" stop-color="#55BD97"/>
</linearGradient>
<linearGradient id="paint32_linear" x1="4.00074" y1="1.6822" x2="-1.77935e-08" y2="1.6822" gradientUnits="userSpaceOnUse">
<stop stop-color="#74C162"/>
<stop offset="1" stop-color="#55BD97"/>
</linearGradient>
<linearGradient id="paint33_linear" x1="4.00074" y1="1.68223" x2="-1.77935e-08" y2="1.68223" gradientUnits="userSpaceOnUse">
<stop stop-color="#74C162"/>
<stop offset="1" stop-color="#55BD97"/>
</linearGradient>
<linearGradient id="paint34_linear" x1="4.00074" y1="1.68223" x2="-1.77935e-08" y2="1.68223" gradientUnits="userSpaceOnUse">
<stop stop-color="#74C162"/>
<stop offset="1" stop-color="#55BD97"/>
</linearGradient>
<linearGradient id="paint35_linear" x1="4.00074" y1="1.68223" x2="-1.77935e-08" y2="1.68223" gradientUnits="userSpaceOnUse">
<stop stop-color="#74C162"/>
<stop offset="1" stop-color="#55BD97"/>
</linearGradient>
<linearGradient id="paint36_linear" x1="4.00074" y1="1.68223" x2="-1.77935e-08" y2="1.68223" gradientUnits="userSpaceOnUse">
<stop stop-color="#74C162"/>
<stop offset="1" stop-color="#55BD97"/>
</linearGradient>
<linearGradient id="paint37_linear" x1="4.00074" y1="1.68223" x2="-1.77935e-08" y2="1.68223" gradientUnits="userSpaceOnUse">
<stop stop-color="#74C162"/>
<stop offset="1" stop-color="#55BD97"/>
</linearGradient>
<linearGradient id="paint38_linear" x1="4.00074" y1="1.68223" x2="-1.77935e-08" y2="1.68223" gradientUnits="userSpaceOnUse">
<stop stop-color="#74C162"/>
<stop offset="1" stop-color="#55BD97"/>
</linearGradient>
<linearGradient id="paint39_linear" x1="4.00074" y1="1.68223" x2="-1.77935e-08" y2="1.68223" gradientUnits="userSpaceOnUse">
<stop stop-color="#74C162"/>
<stop offset="1" stop-color="#55BD97"/>
</linearGradient>
<linearGradient id="paint40_linear" x1="4.00074" y1="1.68223" x2="-1.77935e-08" y2="1.68223" gradientUnits="userSpaceOnUse">
<stop stop-color="#74C162"/>
<stop offset="1" stop-color="#55BD97"/>
</linearGradient>
<linearGradient id="paint41_linear" x1="4.00074" y1="1.68217" x2="-1.77935e-08" y2="1.68217" gradientUnits="userSpaceOnUse">
<stop stop-color="#74C162"/>
<stop offset="1" stop-color="#55BD97"/>
</linearGradient>
<linearGradient id="paint42_linear" x1="4.00074" y1="1.68217" x2="-1.77935e-08" y2="1.68217" gradientUnits="userSpaceOnUse">
<stop stop-color="#74C162"/>
<stop offset="1" stop-color="#55BD97"/>
</linearGradient>
<linearGradient id="paint43_linear" x1="4.00074" y1="1.68217" x2="-1.77935e-08" y2="1.68217" gradientUnits="userSpaceOnUse">
<stop stop-color="#74C162"/>
<stop offset="1" stop-color="#55BD97"/>
</linearGradient>
<linearGradient id="paint44_linear" x1="4.00074" y1="1.68217" x2="-1.77935e-08" y2="1.68217" gradientUnits="userSpaceOnUse">
<stop stop-color="#74C162"/>
<stop offset="1" stop-color="#55BD97"/>
</linearGradient>
<linearGradient id="paint45_linear" x1="4.00074" y1="1.68217" x2="-1.77935e-08" y2="1.68217" gradientUnits="userSpaceOnUse">
<stop stop-color="#74C162"/>
<stop offset="1" stop-color="#55BD97"/>
</linearGradient>
<linearGradient id="paint46_linear" x1="4.00074" y1="1.68217" x2="-1.77935e-08" y2="1.68217" gradientUnits="userSpaceOnUse">
<stop stop-color="#74C162"/>
<stop offset="1" stop-color="#55BD97"/>
</linearGradient>
<linearGradient id="paint47_linear" x1="4.00074" y1="1.68217" x2="-1.77935e-08" y2="1.68217" gradientUnits="userSpaceOnUse">
<stop stop-color="#74C162"/>
<stop offset="1" stop-color="#55BD97"/>
</linearGradient>
<linearGradient id="paint48_linear" x1="4.00074" y1="1.68217" x2="-1.77935e-08" y2="1.68217" gradientUnits="userSpaceOnUse">
<stop stop-color="#74C162"/>
<stop offset="1" stop-color="#55BD97"/>
</linearGradient>
<linearGradient id="paint49_linear" x1="4.00074" y1="1.68217" x2="-1.77935e-08" y2="1.68217" gradientUnits="userSpaceOnUse">
<stop stop-color="#74C162"/>
<stop offset="1" stop-color="#55BD97"/>
</linearGradient>
<linearGradient id="paint50_linear" x1="4.00074" y1="1.68217" x2="-1.77935e-08" y2="1.68217" gradientUnits="userSpaceOnUse">
<stop stop-color="#74C162"/>
<stop offset="1" stop-color="#55BD97"/>
</linearGradient>
<linearGradient id="paint51_linear" x1="4.00074" y1="1.68217" x2="-1.77935e-08" y2="1.68217" gradientUnits="userSpaceOnUse">
<stop stop-color="#74C162"/>
<stop offset="1" stop-color="#55BD97"/>
</linearGradient>
<linearGradient id="paint52_linear" x1="4.00074" y1="1.68217" x2="-1.77935e-08" y2="1.68217" gradientUnits="userSpaceOnUse">
<stop stop-color="#74C162"/>
<stop offset="1" stop-color="#55BD97"/>
</linearGradient>
<linearGradient id="paint53_linear" x1="4.00074" y1="1.68217" x2="-1.77935e-08" y2="1.68217" gradientUnits="userSpaceOnUse">
<stop stop-color="#74C162"/>
<stop offset="1" stop-color="#55BD97"/>
</linearGradient>
<linearGradient id="paint54_linear" x1="4.00074" y1="1.68217" x2="-1.77935e-08" y2="1.68217" gradientUnits="userSpaceOnUse">
<stop stop-color="#74C162"/>
<stop offset="1" stop-color="#55BD97"/>
</linearGradient>
<linearGradient id="paint55_linear" x1="4.00074" y1="1.68217" x2="-1.77935e-08" y2="1.68217" gradientUnits="userSpaceOnUse">
<stop stop-color="#74C162"/>
<stop offset="1" stop-color="#55BD97"/>
</linearGradient>
<linearGradient id="paint56_linear" x1="4.00074" y1="1.68217" x2="-1.77935e-08" y2="1.68217" gradientUnits="userSpaceOnUse">
<stop stop-color="#74C162"/>
<stop offset="1" stop-color="#55BD97"/>
</linearGradient>
<linearGradient id="paint57_linear" x1="4.00074" y1="1.68217" x2="-1.77935e-08" y2="1.68217" gradientUnits="userSpaceOnUse">
<stop stop-color="#74C162"/>
<stop offset="1" stop-color="#55BD97"/>
</linearGradient>
<linearGradient id="paint58_linear" x1="4.00074" y1="1.68217" x2="-1.77935e-08" y2="1.68217" gradientUnits="userSpaceOnUse">
<stop stop-color="#74C162"/>
<stop offset="1" stop-color="#55BD97"/>
</linearGradient>
<linearGradient id="paint59_linear" x1="4.00074" y1="1.68217" x2="-1.77935e-08" y2="1.68217" gradientUnits="userSpaceOnUse">
<stop stop-color="#74C162"/>
<stop offset="1" stop-color="#55BD97"/>
</linearGradient>
<linearGradient id="paint60_linear" x1="4.00074" y1="1.68217" x2="-1.77935e-08" y2="1.68217" gradientUnits="userSpaceOnUse">
<stop stop-color="#74C162"/>
<stop offset="1" stop-color="#55BD97"/>
</linearGradient>
<linearGradient id="paint61_linear" x1="4.00074" y1="1.68217" x2="-1.77935e-08" y2="1.68217" gradientUnits="userSpaceOnUse">
<stop stop-color="#74C162"/>
<stop offset="1" stop-color="#55BD97"/>
</linearGradient>
<linearGradient id="paint62_linear" x1="4.00074" y1="1.68217" x2="-1.77935e-08" y2="1.68217" gradientUnits="userSpaceOnUse">
<stop stop-color="#74C162"/>
<stop offset="1" stop-color="#55BD97"/>
</linearGradient>
<linearGradient id="paint63_linear" x1="4.00074" y1="1.68217" x2="-1.77935e-08" y2="1.68217" gradientUnits="userSpaceOnUse">
<stop stop-color="#74C162"/>
<stop offset="1" stop-color="#55BD97"/>
</linearGradient>
<linearGradient id="paint64_linear" x1="4.00074" y1="1.68217" x2="-1.77935e-08" y2="1.68217" gradientUnits="userSpaceOnUse">
<stop stop-color="#74C162"/>
<stop offset="1" stop-color="#55BD97"/>
</linearGradient>
<linearGradient id="paint65_linear" x1="1384.78" y1="344.821" x2="1267" y2="344.821" gradientUnits="userSpaceOnUse">
<stop stop-color="#74C162"/>
<stop offset="1" stop-color="#55BD97"/>
</linearGradient>
<linearGradient id="paint66_linear" x1="1332.03" y1="404.242" x2="1351.93" y2="328.412" gradientUnits="userSpaceOnUse">
<stop stop-color="#ABDF9F"/>
<stop offset="1" stop-color="#55BD97"/>
</linearGradient>
<linearGradient id="paint67_linear" x1="1468.42" y1="477.742" x2="1452.72" y2="507.967" gradientUnits="userSpaceOnUse">
<stop stop-color="#424D5A"/>
<stop offset="1" stop-color="#31383C"/>
</linearGradient>
<linearGradient id="paint68_linear" x1="1517.28" y1="477.742" x2="1499.79" y2="504.829" gradientUnits="userSpaceOnUse">
<stop stop-color="#30373B"/>
<stop offset="1" stop-color="#3D4650"/>
</linearGradient>
<linearGradient id="paint69_linear" x1="1517.35" y1="340.69" x2="1517.35" y2="485.732" gradientUnits="userSpaceOnUse">
<stop stop-color="#444F5E"/>
<stop offset="1" stop-color="#30373A"/>
</linearGradient>
<linearGradient id="paint70_linear" x1="1515.42" y1="233.215" x2="1561.2" y2="332.168" gradientUnits="userSpaceOnUse">
<stop stop-color="#55BD97"/>
<stop offset="1" stop-color="#00797C"/>
</linearGradient>
<linearGradient id="paint71_linear" x1="1482.81" y1="341.944" x2="1457.08" y2="336.407" gradientUnits="userSpaceOnUse">
<stop stop-color="#31383C"/>
<stop offset="1" stop-color="#424D5A"/>
</linearGradient>
<linearGradient id="paint72_linear" x1="1487.44" y1="253.811" x2="1464" y2="233.181" gradientUnits="userSpaceOnUse">
<stop stop-color="#333333"/>
<stop offset="1" stop-color="#3A3E43"/>
</linearGradient>
<linearGradient id="paint73_linear" x1="1494.62" y1="276.832" x2="1480.02" y2="263.764" gradientUnits="userSpaceOnUse">
<stop stop-color="#843E3E"/>
<stop offset="1" stop-color="#7B4838"/>
</linearGradient>
<linearGradient id="paint74_linear" x1="1490.47" y1="269.733" x2="1472.53" y2="247.579" gradientUnits="userSpaceOnUse">
<stop stop-color="#843E3E"/>
<stop offset="1" stop-color="#C08775"/>
</linearGradient>
<linearGradient id="paint75_linear" x1="1483.97" y1="252.715" x2="1481.59" y2="246.689" gradientUnits="userSpaceOnUse">
<stop stop-color="#333333"/>
<stop offset="1" stop-color="#3A3E43"/>
</linearGradient>
<linearGradient id="paint76_linear" x1="1423.24" y1="292.88" x2="1407.75" y2="279.683" gradientUnits="userSpaceOnUse">
<stop stop-color="#843E3E"/>
<stop offset="1" stop-color="#EF8A69"/>
</linearGradient>
<linearGradient id="paint77_linear" x1="1484.2" y1="289.266" x2="1484.2" y2="327.824" gradientUnits="userSpaceOnUse">
<stop stop-color="#B9F1DA"/>
<stop offset="1" stop-color="#8FDCC0"/>
</linearGradient>
<linearGradient id="paint78_linear" x1="1477.84" y1="325.452" x2="1468.5" y2="310.756" gradientUnits="userSpaceOnUse">
<stop stop-color="#843E3E"/>
<stop offset="1" stop-color="#EF8A69"/>
</linearGradient>
<linearGradient id="paint79_linear" x1="536.802" y1="423.511" x2="493" y2="423.511" gradientUnits="userSpaceOnUse">
<stop stop-color="#74C162"/>
<stop offset="1" stop-color="#55BD97"/>
</linearGradient>
<linearGradient id="paint80_linear" x1="515.266" y1="480.863" x2="510.225" y2="509.257" gradientUnits="userSpaceOnUse">
<stop stop-color="#8BC1CE"/>
<stop offset="1" stop-color="#6974B1"/>
</linearGradient>
<linearGradient id="paint81_linear" x1="442.478" y1="480.863" x2="436.314" y2="508.792" gradientUnits="userSpaceOnUse">
<stop stop-color="#8BC1CE"/>
<stop offset="1" stop-color="#6974B1"/>
</linearGradient>
<linearGradient id="paint82_linear" x1="467.682" y1="267.737" x2="336.08" y2="316.572" gradientUnits="userSpaceOnUse">
<stop stop-color="#3067AC"/>
<stop offset="1" stop-color="#4E679A"/>
</linearGradient>
<linearGradient id="paint83_linear" x1="474.729" y1="390.563" x2="551.769" y2="304.365" gradientUnits="userSpaceOnUse">
<stop stop-color="#00797C"/>
<stop offset="1" stop-color="#55BD97"/>
</linearGradient>
<linearGradient id="paint84_linear" x1="454.136" y1="264.877" x2="479.809" y2="232.631" gradientUnits="userSpaceOnUse">
<stop stop-color="#FFA77B"/>
<stop offset="1" stop-color="#FFE6CA"/>
</linearGradient>
<linearGradient id="paint85_linear" x1="435.35" y1="247.797" x2="423.493" y2="261.835" gradientUnits="userSpaceOnUse">
<stop stop-color="#F68585"/>
<stop offset="1" stop-color="#FF9B92"/>
</linearGradient>
<linearGradient id="paint86_linear" x1="444.635" y1="269.397" x2="461.773" y2="247.677" gradientUnits="userSpaceOnUse">
<stop stop-color="#FF9292"/>
<stop offset="1" stop-color="#FFB59D"/>
</linearGradient>
<linearGradient id="paint87_linear" x1="499.847" y1="336.701" x2="536.875" y2="289.731" gradientUnits="userSpaceOnUse">
<stop stop-color="#FF9292"/>
<stop offset="1" stop-color="#FFB59D"/>
</linearGradient>
<linearGradient id="paint88_linear" x1="409.276" y1="374.427" x2="456.659" y2="332.74" gradientUnits="userSpaceOnUse">
<stop stop-color="#FF9292"/>
<stop offset="1" stop-color="#FFB59D"/>
</linearGradient>
<linearGradient id="paint89_linear" x1="646.944" y1="374.632" x2="693.863" y2="337.01" gradientUnits="userSpaceOnUse">
<stop stop-color="#FF9292"/>
<stop offset="1" stop-color="#FFB59D"/>
</linearGradient>
<linearGradient id="paint90_linear" x1="603.547" y1="333.107" x2="584.016" y2="290.358" gradientUnits="userSpaceOnUse">
<stop stop-color="#FF9292"/>
<stop offset="1" stop-color="#FFB59D"/>
</linearGradient>
<linearGradient id="paint91_linear" x1="612.581" y1="291.256" x2="636.891" y2="271.705" gradientUnits="userSpaceOnUse">
<stop stop-color="#FF9292"/>
<stop offset="1" stop-color="#FFB59D"/>
</linearGradient>
<linearGradient id="paint92_linear" x1="609.833" y1="477.24" x2="593.394" y2="507.077" gradientUnits="userSpaceOnUse">
<stop stop-color="#4151F7"/>
<stop offset="1" stop-color="#373A5B"/>
</linearGradient>
<linearGradient id="paint93_linear" x1="617.982" y1="477.239" x2="635.681" y2="504.746" gradientUnits="userSpaceOnUse">
<stop stop-color="#4151F6"/>
<stop offset="1" stop-color="#373A5B"/>
</linearGradient>
<linearGradient id="paint94_linear" x1="634.925" y1="266.939" x2="528.437" y2="297.099" gradientUnits="userSpaceOnUse">
<stop stop-color="#404683"/>
<stop offset="1" stop-color="#373A5B"/>
</linearGradient>
<linearGradient id="paint95_linear" x1="640.377" y1="384.774" x2="690.025" y2="283.598" gradientUnits="userSpaceOnUse">
<stop stop-color="#00797C"/>
<stop offset="1" stop-color="#55BD97"/>
</linearGradient>
<linearGradient id="paint96_linear" x1="601.042" y1="228.281" x2="601.042" y2="315.727" gradientUnits="userSpaceOnUse">
<stop stop-color="#AF3053"/>
<stop offset="1" stop-color="#7A3343"/>
</linearGradient>
</defs>
</svg>
