<svg width="24" height="24" viewBox="0 0 24 24" fill="none" xmlns="http://www.w3.org/2000/svg">
<circle cx="12" cy="12" r="12" fill="#f9a602"/>
<path fill-rule="evenodd" clip-rule="evenodd" d="M12.9325 4.05377C16.9114 4.51568 20 7.89715 20 12C20 14.5351 18.8208 16.7948 16.981 18.2606C16.9935 18.3385 17 18.4185 17 18.5C17 19.3284 16.3284 20 15.5 20C15.1094 20 14.7536 19.8507 14.4867 19.606C13.704 19.8617 12.8681 20 12 20C8.64181 20 5.7669 17.9308 4.58065 14.9979C4.55395 14.9993 4.52706 15 4.5 15C3.67157 15 3 14.3284 3 13.5C3 12.8467 3.41761 12.291 4.00044 12.0852C4.00015 12.0568 4 12.0284 4 12C4 8.26465 6.56005 5.12723 10.0213 4.24658C10.1417 3.53883 10.7579 3 11.5 3C12.173 3 12.7425 3.44326 12.9325 4.05377ZM14.014 18.7059C13.3762 18.8972 12.7001 19 12 19C9.05813 19 6.54012 17.1852 5.50442 14.6141C5.80872 14.3395 6 13.9421 6 13.5C6 12.8471 5.58284 12.2916 5.00051 12.0855C5.00017 12.0571 5 12.0286 5 12C5 8.75904 7.20255 6.03251 10.1925 5.23561C10.4497 5.69188 10.9389 6 11.5 6C12.1318 6 12.6724 5.60938 12.8934 5.05648C16.3375 5.49521 19 8.43667 19 12C19 14.1579 18.0236 16.0877 16.4885 17.3718C16.2245 17.1403 15.8787 17 15.5 17C14.6716 17 14 17.6716 14 18.5C14 18.5699 14.0048 18.6386 14.014 18.7059Z" fill="#202020"/>
</svg>
