<svg width="424" height="424" viewBox="0 0 424 424" fill="none" xmlns="http://www.w3.org/2000/svg">
<path d="M115.381 158.909V164.468H126.388V173.022V180.366V191.374V197.491V201.163H117.826V209.717H141.068V201.163H137.396V197.491V191.374V180.366V173.022V164.468H142.294V158.909V158.351H115.381V158.909Z" fill="url(#paint0_linear)"/>
<path d="M78.3012 49.8866H151.242C153.774 49.8866 155.834 51.9387 155.834 54.4783V83.3811C155.834 85.9129 153.782 87.9728 151.242 87.9728H78.3012C75.7695 87.9728 73.7095 85.9207 73.7095 83.3811V54.4783C73.7095 51.9387 75.7695 49.8866 78.3012 49.8866Z" fill="#ffcc00"/>
<path opacity="0.1" d="M149.284 82.1314H80.2588V82.8469H149.284V82.1314Z" fill="#010101"/>
<path d="M149.284 56H80.2588V82.1823H149.284V56Z" fill="#F5FAF5"/>
<mask id="mask0" mask-type="alpha" maskUnits="userSpaceOnUse" x="80" y="56" width="70" height="27">
<path d="M149.284 56H80.2588V82.1823H149.284V56Z" fill="#F5FAF5"/>
</mask>
<g mask="url(#mask0)">
<path d="M79 70.5H98L101 65.5L105 75L109.5 62L113 72L114.5 70.5H122L125 75L127.5 62L130.5 70.5H151.5" stroke="#f9a602" stroke-width="2" stroke-linecap="round" stroke-linejoin="round"/>
</g>
<path d="M121.907 87.9731H107.628V96.3075H121.907V87.9731Z" fill="#f9a602"/>
<path d="M144.519 93.9251H85.0156V141.533H144.519V93.9251Z" fill="#ffcc00"/>
<path d="M141.548 141.525V146.289H135.006V151.046H94.5377V146.289H87.9961V141.532L141.548 141.525Z" fill="#f9a602"/>
<path d="M141.548 141.525V146.289H135.006V151.046H94.5377V146.289H87.9961V141.532L141.548 141.525Z" fill="#ffcc00"/>
<path d="M145.715 151.046H83.8286V156.998H145.715V151.046Z" fill="#f9a602"/>
<path d="M112.983 157.007H86.8008V162.958H112.983V157.007Z" fill="#f9a602"/>
<path d="M141.548 157.007H115.365V162.958H141.548V157.007Z" fill="#f9a602"/>
<path d="M108.226 198.654H85.6133V206.989H108.226V198.654Z" fill="#f9a602"/>
<path d="M93.9478 171.285V178.424V189.133V195.085V198.654H104.657V195.085V189.133V178.424V171.285V162.95H93.9478V171.285Z" fill="#f9a602"/>
<path d="M126.074 162.95V171.285V178.424V189.133V195.085V198.654H136.79V195.085V189.133V178.424V171.285V162.95H126.074Z" fill="#f9a602"/>
<path d="M140.361 198.654H117.748V206.989H140.361V198.654Z" fill="#f9a602"/>
<path d="M85.2439 104.036V118.315C85.2439 118.425 85.2439 118.527 85.2439 118.637C85.0552 120.933 83.0424 122.639 80.7465 122.451C78.5922 122.27 76.9332 120.485 76.9253 118.323V104.044C76.9253 101.748 78.7887 99.8771 81.0846 99.8771C82.1932 99.8771 83.2547 100.317 84.033 101.096L84.1353 101.198C84.78 101.89 85.1731 102.778 85.2439 103.722C85.236 103.824 85.2439 103.934 85.2439 104.036Z" fill="#f9a602"/>
<path d="M152.807 105.223V119.51C152.815 121.806 150.951 123.677 148.656 123.685C147.547 123.685 146.478 123.244 145.691 122.458L145.581 122.34C144.866 121.57 144.473 120.555 144.473 119.51V105.231C144.473 102.928 146.344 101.064 148.648 101.072C150.936 101.072 152.799 102.928 152.807 105.223Z" fill="#f9a602"/>
<path d="M76.9097 104.634V115.641C73.9691 116.152 71.2329 117.473 69 119.447C66.9243 121.365 65.3124 123.732 64.2824 126.366C62.9065 129.7 62.2382 133.403 61.963 136.91C61.6249 141.635 61.845 146.392 62.6234 151.07H50.7274C50.2242 144.489 50.3736 138.852 51.0419 134C51.781 128.536 53.1333 124.094 54.8631 120.469C58.3069 113.235 63.2131 109.312 67.5218 107.181C72.6325 104.634 76.9097 104.634 76.9097 104.634Z" fill="#f9a602"/>
<path d="M53.1095 170.089C53.1095 170.089 41.1506 158.579 50.6957 150.645H62.5603C62.5603 150.653 63.8183 170.089 53.1095 170.089Z" fill="#f9a602"/>
<path d="M53.1095 170.089C53.1095 170.089 41.1506 158.579 50.6957 150.645H62.5603C62.5603 150.653 63.8183 170.089 53.1095 170.089Z" fill="#ffcc00"/>
<path d="M134.998 101.064H94.5371V132.003H134.998V101.064Z" fill="#F5FAF5"/>
<path d="M104.657 162.95H93.9478V171.285H104.657V162.95Z" fill="#ffcc00"/>
<path d="M104.657 178.424H93.9478V189.133H104.657V178.424Z" fill="#ffcc00"/>
<path d="M104.657 195.085H93.9478V198.654H104.657V195.085Z" fill="#ffcc00"/>
<path d="M136.783 162.95H126.074V171.285H136.783V162.95Z" fill="#ffcc00"/>
<path d="M136.783 178.424H126.074V189.133H136.783V178.424Z" fill="#ffcc00"/>
<path d="M136.783 195.085H126.074V198.654H136.783V195.085Z" fill="#ffcc00"/>
<path d="M76.9099 104.634V115.641C73.9693 116.152 71.2331 117.473 69.0001 119.447L67.522 107.158C72.6326 104.634 76.9099 104.634 76.9099 104.634Z" fill="#f9a602"/>
<path d="M64.2821 126.366C62.9062 129.7 62.2378 133.403 61.9627 136.91L51.0337 133.985C51.7728 128.52 53.1251 124.078 54.8549 120.453L64.2821 126.366Z" fill="#ffcc00"/>
<path d="M152.634 104.634V115.641C155.574 116.152 158.318 117.465 160.559 119.447C162.627 121.365 164.239 123.724 165.269 126.35C166.645 129.684 167.313 133.387 167.588 136.894C167.926 141.619 167.706 146.376 166.928 151.054H178.824C179.327 144.473 179.178 138.836 178.509 133.985C177.77 128.52 176.41 124.078 174.688 120.453C171.244 113.22 166.338 109.296 162.03 107.166C156.911 104.634 152.634 104.634 152.634 104.634Z" fill="#f9a602"/>
<path d="M176.434 170.089C176.434 170.089 188.393 158.579 178.848 150.645H166.983C166.983 150.653 165.725 170.089 176.434 170.089Z" fill="#f9a602"/>
<path d="M176.434 170.089C176.434 170.089 188.393 158.579 178.848 150.645H166.983C166.983 150.653 165.725 170.089 176.434 170.089Z" fill="#ffcc00"/>
<path d="M152.634 104.634V115.641C155.574 116.152 158.318 117.465 160.559 119.447L162.037 107.158C156.911 104.634 152.634 104.634 152.634 104.634Z" fill="#f9a602"/>
<path d="M165.253 126.358C166.629 129.692 167.298 133.395 167.573 136.902L178.502 133.977C177.763 128.513 176.403 124.07 174.681 120.446L165.253 126.358Z" fill="#ffcc00"/>
<path opacity="0.1" d="M121.907 87.9731H107.628V88.9638H121.907V87.9731Z" fill="#010101"/>
<path opacity="0.1" d="M145.581 102.408V122.34C144.866 121.569 144.473 120.555 144.473 119.509V105.231C144.473 104.177 144.874 103.171 145.581 102.408Z" fill="#010101"/>
<path opacity="0.1" d="M85.2283 103.722V118.637C85.1575 119.581 84.7644 120.469 84.1196 121.161V101.198C84.7644 101.89 85.1575 102.778 85.2283 103.722Z" fill="#010101"/>
<path opacity="0.1" d="M141.556 141.525H87.9961V142.232H141.556V141.525Z" fill="#010101"/>
<path opacity="0.1" d="M112.983 157.007H86.8008V157.549H112.983V157.007Z" fill="#010101"/>
<path opacity="0.1" d="M141.548 157.007H115.365V157.549H141.548V157.007Z" fill="#010101"/>
<path d="M93.8142 14.6468H89.7178V49.8947H93.8142V14.6468Z" fill="#f9a602"/>
<path d="M140.809 14.6468H136.712V49.8947H140.809V14.6468Z" fill="#f9a602"/>
<path opacity="0.1" d="M91.636 19.5608C94.2024 19.5608 96.2828 17.4803 96.2828 14.914C96.2828 12.3476 94.2024 10.2672 91.636 10.2672C89.0697 10.2672 86.9893 12.3476 86.9893 14.914C86.9893 17.4803 89.0697 19.5608 91.636 19.5608Z" fill="#010101"/>
<path d="M91.636 19.2935C94.2024 19.2935 96.2828 17.2131 96.2828 14.6468C96.2828 12.0804 94.2024 10 91.636 10C89.0697 10 86.9893 12.0804 86.9893 14.6468C86.9893 17.2131 89.0697 19.2935 91.636 19.2935Z" fill="url(#paint1_linear)"/>
<path opacity="0.1" d="M138.906 19.5608C141.472 19.5608 143.553 17.4803 143.553 14.914C143.553 12.3476 141.472 10.2672 138.906 10.2672C136.34 10.2672 134.259 12.3476 134.259 14.914C134.259 17.4803 136.34 19.5608 138.906 19.5608Z" fill="#010101"/>
<path d="M138.906 19.2935C141.472 19.2935 143.553 17.2131 143.553 14.6468C143.553 12.0804 141.472 10 138.906 10C136.34 10 134.259 12.0804 134.259 14.6468C134.259 17.2131 136.34 19.2935 138.906 19.2935Z" fill="url(#paint2_linear)"/>
<g filter="url(#filter0_d)">
<path d="M54.6065 262.045H182.015C186.216 262.045 189.621 265.448 189.621 269.646V307.651C189.621 311.849 186.216 315.252 182.015 315.252H54.6065C50.4055 315.252 47 311.849 47 307.651V269.646C47 265.448 50.4055 262.045 54.6065 262.045Z" fill="#f9a602"/>
<rect opacity="0.1" x="165.851" y="271.546" width="14.2621" height="33.2548" fill="white"/>
<path d="M127.414 297.806C126.889 297.806 126.463 297.381 126.463 296.856C126.463 296.331 126.889 295.906 127.414 295.906C128.225 295.906 129.121 295.459 130.167 294.527C130.846 293.922 131.568 293.135 132.448 292.063C132.799 291.635 133.161 291.181 133.652 290.553C133.799 290.367 133.96 290.16 134.272 289.76C134.528 289.433 134.717 289.192 134.905 288.954C139.115 283.623 141.983 281.28 145.861 281.28C149.474 281.28 151.606 282.422 155.298 285.544C155.425 285.651 155.425 285.651 155.551 285.758C159.115 288.774 161.018 289.786 164.356 289.786C167.657 289.786 169.647 288.313 172.076 284.866C172.278 284.58 173.191 283.249 173.442 282.896C175.281 280.308 176.725 279.14 178.881 279.14C179.406 279.14 179.832 279.565 179.832 280.09C179.832 280.615 179.406 281.04 178.881 281.04C177.529 281.04 176.504 281.87 174.992 283.996C174.753 284.333 173.842 285.66 173.631 285.96C170.882 289.861 168.416 291.687 164.356 291.687C160.449 291.687 158.202 290.491 154.322 287.208C154.196 287.101 154.196 287.101 154.07 286.995C150.694 284.14 148.902 283.18 145.861 283.18C142.786 283.18 140.252 285.251 136.397 290.132C136.212 290.366 136.025 290.605 135.771 290.93C135.459 291.329 135.297 291.537 135.15 291.724C134.65 292.362 134.28 292.827 133.918 293.268C132.982 294.409 132.198 295.263 131.433 295.945C130.07 297.159 128.773 297.806 127.414 297.806Z" fill="white"/>
<path d="M63.9089 285.323C62.8587 285.323 62.0073 284.472 62.0073 283.423C62.0073 282.373 62.8587 281.523 63.9089 281.523H80.7739C81.8241 281.523 82.6755 282.373 82.6755 283.423C82.6755 284.472 81.8241 285.323 80.7739 285.323H63.9089Z" fill="white"/>
<path d="M63.9089 294.824C62.8587 294.824 62.0073 293.973 62.0073 292.924C62.0073 291.874 62.8587 291.024 63.9089 291.024H99.7901C100.84 291.024 101.692 291.874 101.692 292.924C101.692 293.973 100.84 294.824 99.7901 294.824H63.9089Z" fill="white"/>
</g>
<g filter="url(#filter1_d)">
<path d="M81.6558 200.354L82.431 200.097C82.6905 200.88 82.9381 201.671 83.1669 202.449L82.3836 202.679C82.1572 201.91 81.9123 201.128 81.6558 200.354Z" fill="#E6E6E6"/>
<g filter="url(#filter2_d)">
<path d="M246.938 156.492V225.881C246.938 231.403 242.461 235.881 236.938 235.881H57C51.4771 235.881 47 231.403 47 225.881V139.481C47 133.958 51.4772 129.481 57 129.481H224.055H246.938H280.73L246.938 156.492Z" fill="white"/>
</g>
<g filter="url(#filter3_d)">
<ellipse cx="92.4947" cy="176.691" rx="22.8194" ry="22.7899" fill="white"/>
</g>
<path fill-rule="evenodd" clip-rule="evenodd" d="M93.8392 167.751C93.4826 167.395 92.9989 167.195 92.4946 167.195C91.9902 167.195 91.5065 167.395 91.1499 167.751C90.7933 168.107 90.5929 168.59 90.5929 169.094C90.5929 169.796 90.9733 170.414 91.5437 170.737V171.943H90.5929C88.8277 171.943 87.1348 172.643 85.8867 173.889C84.6385 175.136 83.9373 176.827 83.9373 178.59H82.9865C82.7343 178.59 82.4924 178.69 82.3141 178.868C82.1358 179.046 82.0356 179.287 82.0356 179.539V182.388C82.0356 182.64 82.1358 182.881 82.3141 183.059C82.4924 183.237 82.7343 183.338 82.9865 183.338H83.9373V184.287C83.9373 184.791 84.1376 185.274 84.4942 185.63C84.8509 185.986 85.3345 186.186 85.8389 186.186H99.1502C99.6546 186.186 100.138 185.986 100.495 185.63C100.851 185.274 101.052 184.791 101.052 184.287V183.338H102.003C102.255 183.338 102.497 183.237 102.675 183.059C102.853 182.881 102.953 182.64 102.953 182.388V179.539C102.953 179.287 102.853 179.046 102.675 178.868C102.497 178.69 102.255 178.59 102.003 178.59H101.052C101.052 176.827 100.351 175.136 99.1024 173.889C97.8543 172.643 96.1614 171.943 94.3962 171.943H93.4454V170.737C94.0158 170.414 94.3962 169.796 94.3962 169.094C94.3962 168.59 94.1958 168.107 93.8392 167.751ZM86.5351 178.335C86.9809 177.89 87.5855 177.64 88.2159 177.64C88.6644 177.64 89.0998 177.767 89.4742 178H95.5149C95.8893 177.767 96.3247 177.64 96.7732 177.64C97.4036 177.64 98.0082 177.89 98.454 178.335C98.8998 178.781 99.1502 179.384 99.1502 180.014C99.1502 180.644 98.8998 181.247 98.454 181.693C98.0082 182.138 97.4036 182.388 96.7732 182.388C96.307 182.388 95.855 182.251 95.4709 182H89.5182C89.1341 182.251 88.6821 182.388 88.2159 182.388C87.5855 182.388 86.9809 182.138 86.5351 181.693C86.0893 181.247 85.8389 180.644 85.8389 180.014C85.8389 179.384 86.0893 178.781 86.5351 178.335Z" fill="#f9a602"/>
<path d="M170.406 160.006H134.649C133.444 160.006 132.468 160.982 132.468 162.186C132.468 163.39 133.444 164.366 134.649 164.366H170.406C171.61 164.366 172.586 163.39 172.586 162.186C172.586 160.982 171.61 160.006 170.406 160.006Z" fill="#f9a602"/>
<path d="M219.681 172.215H135.085C133.64 172.215 132.468 173.387 132.468 174.832C132.468 176.277 133.64 177.448 135.085 177.448H219.681C221.126 177.448 222.297 176.277 222.297 174.832C222.297 173.387 221.126 172.215 219.681 172.215Z" fill="#f9a602" fill-opacity="0.3"/>
<path d="M219.681 184.425H135.085C133.64 184.425 132.468 185.597 132.468 187.042C132.468 188.487 133.64 189.658 135.085 189.658H219.681C221.126 189.658 222.297 188.487 222.297 187.042C222.297 185.597 221.126 184.425 219.681 184.425Z" fill="#f9a602" fill-opacity="0.3"/>
<path d="M217.937 214.077C220.345 214.077 222.297 212.125 222.297 209.717C222.297 207.309 220.345 205.356 217.937 205.356C215.528 205.356 213.576 207.309 213.576 209.717C213.576 212.125 215.528 214.077 217.937 214.077Z" fill="#f9a602"/>
<path d="M205.727 214.077C208.135 214.077 210.087 212.125 210.087 209.717C210.087 207.309 208.135 205.356 205.727 205.356C203.319 205.356 201.366 207.309 201.366 209.717C201.366 212.125 203.319 214.077 205.727 214.077Z" fill="#f9a602"/>
<path d="M193.517 214.077C195.926 214.077 197.878 212.125 197.878 209.717C197.878 207.309 195.926 205.356 193.517 205.356C191.109 205.356 189.157 207.309 189.157 209.717C189.157 212.125 191.109 214.077 193.517 214.077Z" fill="#f9a602"/>
</g>
<path d="M350.009 226.342C346.192 230.414 343.901 232.625 343.136 232.977C339.162 234.804 337.297 231.442 335.646 232.747C333.996 234.053 331.003 236.265 331.626 234.413C332.078 233.068 328.156 234.07 329.453 231.993C330.318 230.609 326.977 230.794 327.545 230.172C328.113 229.549 330.82 226.725 331.332 225.866C331.404 225.746 329.506 226.102 328.804 226.734C327.545 227.868 325.271 228.018 325.038 227.053C327.549 225.396 329.179 224.425 329.93 224.14C331.055 223.714 335.884 223.736 336.974 223.736C338.065 223.736 338.398 222.565 338.276 221.666L338.104 219.931L341.095 219.484C341.108 219.489 341.12 219.493 341.133 219.498L358.642 188.188L347.665 177.306C350.679 174.992 355.748 170.7 362.871 164.431C367.557 169.882 370.711 174.467 372.552 177.306C375.846 182.384 378.425 189.165 373.085 195.015L350.009 226.342Z" fill="url(#paint3_linear)"/>
<mask id="mask1" mask-type="alpha" maskUnits="userSpaceOnUse" x="325" y="164" width="52" height="72">
<path d="M350.009 226.342C346.192 230.414 343.901 232.625 343.136 232.977C339.162 234.804 337.297 231.442 335.646 232.747C333.996 234.053 331.003 236.265 331.626 234.413C332.078 233.068 328.156 234.07 329.453 231.993C330.318 230.609 326.977 230.794 327.545 230.172C328.113 229.549 330.82 226.725 331.332 225.866C331.404 225.746 329.506 226.102 328.804 226.734C327.545 227.868 325.271 228.018 325.038 227.053C327.549 225.396 329.179 224.425 329.93 224.14C331.055 223.714 335.884 223.736 336.974 223.736C338.065 223.736 338.398 222.565 338.276 221.666L338.104 219.931L341.095 219.484C341.108 219.489 341.12 219.493 341.133 219.498L358.642 188.188L347.665 177.306C350.679 174.992 355.748 170.7 362.871 164.431C367.557 169.882 370.711 174.467 372.552 177.306C375.846 182.384 378.425 189.165 373.085 195.015L350.009 226.342Z" fill="white"/>
</mask>
<g mask="url(#mask1)">
<path opacity="0.2" d="M346.005 174.565L348.416 157.269C348.416 157.269 350.395 171.946 357.264 176.406C364.134 180.867 369.772 190.68 364.991 192.304C353.707 196.137 362.571 206.263 353.707 208.356C344.843 210.448 345.814 221.622 344.432 215.71C343.798 212.998 348.416 192.304 348.416 192.304L346.005 174.565Z" fill="#DA433D"/>
</g>
<path d="M262.058 195.417C259.542 191.401 252.681 179.238 246.041 161.741C245.97 161.727 245.899 161.71 245.828 161.69C243.072 157.958 240.234 155.299 237.314 153.712C232.933 151.332 233.412 150.276 232.762 148.075C232.515 147.242 230.103 143.293 230.147 142.508C230.22 141.218 232.547 141.708 233.661 143.968C234.855 146.391 238.194 147.586 243.678 147.553C242.017 145.163 241.592 143.481 242.401 142.508C243.614 141.048 244.774 143.968 248.137 146.245C250.379 147.763 251.784 150.252 252.35 153.712C252.318 153.918 252.285 154.12 252.25 154.317L252.35 154.199L270.57 178.891C270.57 178.891 264.577 199.437 262.058 195.417Z" fill="url(#paint4_linear)"/>
<mask id="mask2" mask-type="alpha" maskUnits="userSpaceOnUse" x="230" y="141" width="41" height="55">
<path d="M262.058 195.417C259.542 191.401 252.681 179.238 246.041 161.741C245.97 161.727 245.899 161.71 245.828 161.69C243.072 157.958 240.234 155.299 237.314 153.712C232.933 151.332 233.412 150.276 232.762 148.075C232.515 147.242 230.103 143.293 230.147 142.508C230.22 141.218 232.547 141.708 233.661 143.968C234.855 146.391 238.194 147.586 243.678 147.553C242.017 145.163 241.592 143.481 242.401 142.508C243.614 141.048 244.774 143.968 248.137 146.245C250.379 147.763 251.784 150.252 252.35 153.712C252.318 153.918 252.285 154.12 252.25 154.317L252.35 154.199L270.57 178.891C270.57 178.891 264.577 199.437 262.058 195.417Z" fill="white"/>
</mask>
<g mask="url(#mask2)">
</g>
<path d="M320.5 136C330 154 317.296 152.311 315.5 152.5C314.303 152.626 306.245 150.744 306.162 146.116L305.418 141.194C303.768 141.766 302.081 141.99 300.443 141.759C295.678 141.09 293.799 135.947 295.174 125.329C295.594 122.087 298.338 114.331 300.443 111.101C303.707 121.876 318.211 135.917 320.5 136Z" fill="url(#paint5_linear)"/>
<path d="M292.552 397.666C292.552 397.666 293.457 398.366 284.441 403.441C280.799 405.491 276.157 407.591 270.516 409.742C266.846 411.14 267.758 414.001 271.973 414.001C292.25 414.001 304.109 414.001 307.551 414.001C313.786 414.001 312.275 409.453 312.275 409.453L309.157 397.666H292.552Z" fill="url(#paint6_linear)"/>
<path d="M339.488 397.665C339.488 397.665 345.86 404.59 350.659 408.209C355.458 411.829 352.259 414 349.63 414C347 414 326.414 414 320.179 414C313.944 414 315.454 409.452 315.454 409.452L322.884 397.665H339.488Z" fill="url(#paint7_linear)"/>
<path d="M339.731 229.476C349.81 253.788 338.958 291.406 338.958 330.871C338.958 339.905 343.006 398.596 339.212 399.466C335.419 400.336 325.415 399.974 322.95 399.974C320.484 399.974 321.553 395.422 321.553 391.859C321.553 373.926 319.038 334.867 310.782 272.573C305.607 293.935 299.383 311.252 295.336 326.634C291.965 339.447 312.967 398.299 309.169 398.917C305.37 399.536 295.662 399.536 293.046 399.438C290.431 399.34 271.755 337.637 271.755 322.981C271.755 313.211 275.856 290.912 286.568 238.346L339.731 229.476Z" fill="url(#paint8_linear)"/>
<mask id="mask3" mask-type="alpha" maskUnits="userSpaceOnUse" x="271" y="229" width="74" height="172">
<path d="M339.731 229.476C349.81 253.788 338.958 291.406 338.958 330.871C338.958 339.905 343.006 398.596 339.212 399.466C335.419 400.336 325.415 399.974 322.95 399.974C320.484 399.974 321.553 395.422 321.553 391.859C321.553 373.926 319.038 334.867 310.782 272.573C305.607 293.935 299.383 311.252 295.336 326.634C291.965 339.447 312.967 398.299 309.169 398.917C305.37 399.536 295.662 399.536 293.046 399.438C290.431 399.34 271.755 337.637 271.755 322.981C271.755 313.211 275.856 290.912 286.568 238.346L339.731 229.476Z" fill="white"/>
</mask>
<g mask="url(#mask3)">
<path opacity="0.3" d="M345.5 241.83C345.5 241.83 344.713 256.108 322.915 256.108C301.116 256.108 319.754 280.43 297.486 286.056C275.219 291.682 288.152 319.056 274.614 319.056C261.076 319.056 285.745 236.318 285.745 236.318L340.234 223.933L345.5 241.83Z" fill="#151731"/>
<path opacity="0.3" d="M306.824 276.438L313.733 250.304C313.733 250.304 318.292 259.545 316.748 271.756C315.204 283.966 326.304 293.127 321.035 302.257C315.766 311.387 331.65 331.168 320.184 345.518C308.717 359.869 314.044 344.285 314.044 344.285L306.824 276.438Z" fill="#151731"/>
</g>
<path d="M301.113 147.023C308.996 145.556 317.595 143.89 334.583 147.023C339.973 148.017 362.312 160.521 372.336 173.937C372.336 173.937 381.283 186.309 372.913 196.137C371.793 197.452 364.424 182.528 358.996 184.703C355.685 181.673 348.797 177.166 346.116 175.196C346 194 346.025 201.742 346 207.5C345.963 215.98 347.242 252.511 347.212 253.524C347.212 253.524 350.869 257.746 334.583 261.318C318.297 264.889 298.169 258.273 288.836 257.2C286.299 256.908 284.153 256.701 282.139 255.653C279.563 254.312 283.341 228.094 285 214.5C286.263 204.15 288.227 198.836 288.501 190.043C288.514 189.633 281.682 194.507 276.126 198.17C270.57 201.832 262.194 198.397 261.269 195.417C258.886 187.746 275.177 171.638 276.126 170.193C281.147 162.554 285.119 157.829 285.119 157.829C288.059 152.685 295.995 147.975 301.113 147.023Z" fill="url(#paint9_linear)"/>
<mask id="mask4" mask-type="alpha" maskUnits="userSpaceOnUse" x="261" y="145" width="116" height="118">
<path d="M301.113 147.023C308.996 145.556 317.595 143.89 334.583 147.023C339.973 148.017 362.312 160.521 372.336 173.937C372.336 173.937 381.283 186.309 372.913 196.137C371.793 197.452 364.424 182.528 358.996 184.703C355.685 181.673 348.797 177.166 346.116 175.196C346 194 346.025 201.742 346 207.5C345.963 215.98 347.242 252.511 347.212 253.524C347.212 253.524 350.869 257.746 334.583 261.318C318.297 264.889 298.169 258.273 288.836 257.2C287.729 257.072 287.041 241.83 287.041 241.83C287.041 241.83 283.018 256.11 282.139 255.653C279.563 254.312 283.341 228.094 285 214.5C286.263 204.15 288.227 198.836 288.501 190.043C288.514 189.633 281.682 194.507 276.126 198.17C270.57 201.832 262.194 198.397 261.269 195.417C258.886 187.746 275.177 171.638 276.126 170.193C281.147 162.554 285.119 157.829 285.119 157.829C288.059 152.685 295.995 147.975 301.113 147.023Z" fill="white"/>
</mask>
<g mask="url(#mask4)">
<path opacity="0.3" d="M288.183 188.952L304.127 174.113C304.127 174.113 305.363 177.851 304.127 180.349C301.91 184.828 296.264 186.689 297.868 194.055C301.884 212.486 289.76 201.791 289.76 217.966C289.76 234.141 278.406 228.05 278.406 228.05L288.183 188.952Z" fill="#373A5B"/>
<path opacity="0.3" d="M346.005 175.595L348.417 158.298C348.417 158.298 350.247 175.595 357.265 177.436C364.282 179.277 361.626 188.127 364.134 191.493C358.916 192.014 348.417 193.333 348.417 193.333L346.005 175.595Z" fill="#373A5B"/>
</g>
<path d="M270.57 177.303C270.57 177.303 269.364 175.106 267.942 175.838C266.52 176.571 258.18 186.073 258.18 190.745C258.18 195.417 268.573 202.947 266.393 197.167C264.214 191.387 270.57 177.303 270.57 177.303Z" fill="#FFD5D7"/>
<path d="M356.355 182.754C356.355 182.754 377.536 182.445 377.536 188.931C377.536 195.417 372.327 197.167 372.327 197.167L356.355 188.931V182.754Z" fill="#FFD5D7"/>
<path d="M312.813 101.425C332 96.8387 333 126 322.5 136.5C317 138 316.5 138.5 309.5 136.5C307 134 303 131 306.589 127.162C306.589 124.888 304.745 123.044 302.471 123.044C300.945 123.044 299.612 123.875 298.901 125.109C302.471 115.5 287.46 110.895 291 106.5C291.865 105.426 294.646 104.592 298 103.906C299.741 103.55 294.637 98.789 296.5 98.5C305 96.5 310.86 101.892 312.813 101.425Z" fill="url(#paint10_linear)"/>
<defs>
<filter id="filter0_d" x="15" y="246.045" width="206.621" height="117.208" filterUnits="userSpaceOnUse" color-interpolation-filters="sRGB">
<feFlood flood-opacity="0" result="BackgroundImageFix"/>
<feColorMatrix in="SourceAlpha" type="matrix" values="0 0 0 0 0 0 0 0 0 0 0 0 0 0 0 0 0 0 127 0"/>
<feOffset dy="16"/>
<feGaussianBlur stdDeviation="16"/>
<feColorMatrix type="matrix" values="0 0 0 0 0.373906 0 0 0 0 0.663755 0 0 0 0 0.557849 0 0 0 0.12 0"/>
<feBlend mode="normal" in2="BackgroundImageFix" result="effect1_dropShadow"/>
<feBlend mode="normal" in="SourceGraphic" in2="effect1_dropShadow" result="shape"/>
</filter>
<filter id="filter1_d" x="23" y="113.481" width="281.73" height="154.399" filterUnits="userSpaceOnUse" color-interpolation-filters="sRGB">
<feFlood flood-opacity="0" result="BackgroundImageFix"/>
<feColorMatrix in="SourceAlpha" type="matrix" values="0 0 0 0 0 0 0 0 0 0 0 0 0 0 0 0 0 0 127 0"/>
<feOffset dy="8"/>
<feGaussianBlur stdDeviation="12"/>
<feColorMatrix type="matrix" values="0 0 0 0 0.2 0 0 0 0 0.2 0 0 0 0 0.2 0 0 0 0.07 0"/>
<feBlend mode="normal" in2="BackgroundImageFix" result="effect1_dropShadow"/>
<feBlend mode="normal" in="SourceGraphic" in2="effect1_dropShadow" result="shape"/>
</filter>
<filter id="filter2_d" x="37" y="127.481" width="253.73" height="126.399" filterUnits="userSpaceOnUse" color-interpolation-filters="sRGB">
<feFlood flood-opacity="0" result="BackgroundImageFix"/>
<feColorMatrix in="SourceAlpha" type="matrix" values="0 0 0 0 0 0 0 0 0 0 0 0 0 0 0 0 0 0 127 0"/>
<feOffset dy="8"/>
<feGaussianBlur stdDeviation="5"/>
<feColorMatrix type="matrix" values="0 0 0 0 0.2 0 0 0 0 0.2 0 0 0 0 0.2 0 0 0 0.07 0"/>
<feBlend mode="normal" in2="BackgroundImageFix" result="effect1_dropShadow"/>
<feBlend mode="normal" in="SourceGraphic" in2="effect1_dropShadow" result="shape"/>
</filter>
<filter id="filter3_d" x="45.6753" y="137.901" width="93.6389" height="93.5799" filterUnits="userSpaceOnUse" color-interpolation-filters="sRGB">
<feFlood flood-opacity="0" result="BackgroundImageFix"/>
<feColorMatrix in="SourceAlpha" type="matrix" values="0 0 0 0 0 0 0 0 0 0 0 0 0 0 0 0 0 0 127 0"/>
<feOffset dy="8"/>
<feGaussianBlur stdDeviation="12"/>
<feColorMatrix type="matrix" values="0 0 0 0 0.2 0 0 0 0 0.2 0 0 0 0 0.2 0 0 0 0.07 0"/>
<feBlend mode="normal" in2="BackgroundImageFix" result="effect1_dropShadow"/>
<feBlend mode="normal" in="SourceGraphic" in2="effect1_dropShadow" result="shape"/>
</filter>
<linearGradient id="paint0_linear" x1="128.882" y1="209.765" x2="128.882" y2="158.396" gradientUnits="userSpaceOnUse">
<stop stop-color="#818181" stop-opacity="0.25"/>
<stop offset="0.54" stop-color="#818181" stop-opacity="0.12"/>
<stop offset="1" stop-color="#818181" stop-opacity="0.1"/>
</linearGradient>
<linearGradient id="paint1_linear" x1="86.9301" y1="14.6915" x2="96.2178" y2="14.6915" gradientUnits="userSpaceOnUse">
<stop stop-color="#57BE98"/>
<stop offset="1" stop-color="#027A7D"/>
</linearGradient>
<linearGradient id="paint2_linear" x1="134.197" y1="14.6915" x2="143.485" y2="14.6915" gradientUnits="userSpaceOnUse">
<stop stop-color="#57BE98"/>
<stop offset="1" stop-color="#027A7D"/>
</linearGradient>
<linearGradient id="paint3_linear" x1="351.939" y1="270.548" x2="406.391" y2="226.886" gradientUnits="userSpaceOnUse">
<stop stop-color="#FF9292"/>
<stop offset="1" stop-color="#FFB59D"/>
</linearGradient>
<linearGradient id="paint4_linear" x1="251.419" y1="223.27" x2="293.474" y2="188.536" gradientUnits="userSpaceOnUse">
<stop stop-color="#FF9292"/>
<stop offset="1" stop-color="#FFB59D"/>
</linearGradient>
<linearGradient id="paint5_linear" x1="312.059" y1="173.786" x2="340.273" y2="151.097" gradientUnits="userSpaceOnUse">
<stop stop-color="#FF9292"/>
<stop offset="1" stop-color="#FFB59D"/>
</linearGradient>
<linearGradient id="paint6_linear" x1="308.87" y1="389.63" x2="289.792" y2="424.257" gradientUnits="userSpaceOnUse">
<stop stop-color="#4151F7"/>
<stop offset="1" stop-color="#373A5B"/>
</linearGradient>
<linearGradient id="paint7_linear" x1="318.328" y1="389.629" x2="338.868" y2="421.552" gradientUnits="userSpaceOnUse">
<stop stop-color="#4151F6"/>
<stop offset="1" stop-color="#373A5B"/>
</linearGradient>
<linearGradient id="paint8_linear" x1="337.99" y1="145.565" x2="214.406" y2="180.568" gradientUnits="userSpaceOnUse">
<stop stop-color="#404683"/>
<stop offset="1" stop-color="#373A5B"/>
</linearGradient>
<linearGradient id="paint9_linear" x1="344.318" y1="282.318" x2="401.937" y2="164.898" gradientUnits="userSpaceOnUse">
<stop stop-color="#ffcc00"/>
<stop offset="1" stop-color="#f9a602"/>
</linearGradient>
<linearGradient id="paint10_linear" x1="298.668" y1="100.701" x2="298.668" y2="202.186" gradientUnits="userSpaceOnUse">
<stop stop-color="#AF3053"/>
<stop offset="1" stop-color="#7A3343"/>
</linearGradient>
</defs>
</svg>
