<?xml version="1.0" encoding="utf-8"?>
<!-- Generator: Adobe Illustrator 24.0.0, SVG Export Plug-In . SVG Version: 6.00 Build 0)  -->
<svg version="1.1" id="Layer_1" xmlns="http://www.w3.org/2000/svg" xmlns:xlink="http://www.w3.org/1999/xlink" x="0px" y="0px"
	 viewBox="0 0 1920 975" style="enable-background:new 0 0 1920 975;" xml:space="preserve">
<style type="text/css">
	.st0{fill:url(#SVGID_1_);}
</style>
<linearGradient id="SVGID_1_" gradientUnits="userSpaceOnUse" x1="1920" y1="488.9732" x2="319.37" y2="488.9732" gradientTransform="matrix(1 0 0 -1 0 976)">
	<stop  offset="0" style="stop-color:#FFCC00"/>
	<stop  offset="1" style="stop-color:#F9A602"/>
</linearGradient>
<path class="st0" d="M320,0H0l0,228c0,0,80-114,204.5-85c201.8,47,155.8,386,405,386c97.6,0,141.4-22.1,182.8-43.1
	C829.7,467,865.2,449,936.5,449c66.3,0,106.9,31,145.8,60.8c49.4,37.8,96.2,73.6,189.5,41.3c82.9-28.6,128.3,22.8,175.7,76.5
	c162.3,183.7,214.4,378.9,472.4,341.9V0H320z"/>
</svg>
