<svg width="464" height="426" viewBox="0 0 464 426" fill="none" xmlns="http://www.w3.org/2000/svg">
<path d="M193.33 127.014H88.1659C84.7945 127.014 82.0615 129.747 82.0615 133.118V179.214C82.0615 182.586 84.7945 185.319 88.1659 185.319H193.33C196.701 185.319 199.434 182.586 199.434 179.214V133.118C199.434 129.747 196.701 127.014 193.33 127.014Z" fill="url(#paint0_linear)" fill-opacity="0.1"/>
<path d="M295.025 70.2538C428.638 6.98263 522.104 207.843 379.918 313.099C237.731 418.354 13.7487 358.35 13.0028 237.479C12.2569 116.607 161.412 133.525 295.025 70.2538Z" fill="url(#paint1_linear)" fill-opacity="0.1"/>
<path d="M320.478 183.026C320.478 183.026 299.794 186.294 302.336 182.17C304.878 178.045 318.414 173.925 320.896 174.785C323.379 175.646 320.478 183.026 320.478 183.026Z" fill="#FFC1C7"/>
<path opacity="0.1" d="M320.478 183.026C320.478 183.026 299.794 186.294 302.336 182.17C304.878 178.045 318.414 173.925 320.896 174.785C323.379 175.646 320.478 183.026 320.478 183.026Z" fill="black"/>
<path d="M344.2 136.906C344.2 136.906 330.838 140.491 337.03 151.897C337.03 151.897 347.133 171.777 342.896 173.081C338.66 174.384 319.106 173.732 319.106 173.732C319.106 173.732 314.543 184.813 316.825 185.139C319.106 185.465 355.606 192.96 359.517 185.791C363.428 178.621 359.517 147.661 359.517 147.661C359.517 147.661 353.977 132.344 344.2 136.906Z" fill="#6C63FF"/>
<path d="M344.2 136.906C344.2 136.906 330.838 140.491 337.03 151.897C337.03 151.897 347.133 171.777 342.896 173.081C338.66 174.384 319.106 173.732 319.106 173.732C319.106 173.732 314.543 184.813 316.825 185.139C319.106 185.465 355.606 192.96 359.517 185.791C363.428 178.621 359.517 147.661 359.517 147.661C359.517 147.661 353.977 132.344 344.2 136.906Z" fill="url(#paint2_linear)"/>
<path d="M382.004 306.372C382.004 306.372 387.87 320.386 384.611 322.993C381.352 325.6 382.004 330.489 384.285 330.489C386.567 330.489 391.781 325.926 394.714 320.386C396.899 316.259 400.531 307.972 402.241 304.013C402.361 303.736 402.421 303.437 402.417 303.135C402.413 302.833 402.345 302.535 402.219 302.261C402.092 301.987 401.908 301.743 401.681 301.544C401.453 301.346 401.186 301.198 400.897 301.11L391.455 298.225L382.004 306.372Z" fill="url(#paint3_linear)"/>
<path d="M320.083 323.319C320.083 323.319 307.699 333.422 301.181 333.096C294.663 332.77 293.686 339.614 301.181 340.591C308.677 341.569 331.164 341.895 333.119 340.591C335.075 339.288 334.423 325.6 333.119 325.274C331.816 324.948 320.083 323.319 320.083 323.319Z" fill="url(#paint4_linear)"/>
<path d="M362.124 219.358C362.124 219.358 362.124 229.461 356.91 233.697C356.91 233.697 350.718 265.309 356.258 267.265C373.106 273.211 381.59 288.841 394.714 298.877C394.714 298.877 384.611 308.98 382.656 308.98C380.7 308.98 361.472 282.582 344.2 277.693C344.2 277.693 333.445 275.086 333.771 261.073C334.097 247.059 346.807 209.907 346.807 209.907H361.472L362.124 219.358Z" fill="#2F2E41"/>
<path d="M328.231 212.514C322.318 231.042 314.382 259.05 319.106 278.997C322.039 291.381 318.78 323.319 318.128 323.971C317.476 324.623 325.298 331.466 333.771 325.926C334.45 309.642 341.233 292.258 335.727 275.738C334.459 271.935 345.813 249.596 350.919 239.859C355.932 230.3 364.153 229.868 361.919 215.259C358.008 210.37 360.169 206.322 360.169 206.322L330.512 208.277L328.231 212.514Z" fill="#3F3E4B"/>
<path d="M323.668 137.884C330.868 137.884 336.704 132.047 336.704 124.848C336.704 117.648 330.868 111.812 323.668 111.812C316.469 111.812 310.633 117.648 310.633 124.848C310.633 132.047 316.469 137.884 323.668 137.884Z" fill="#FFB9B9"/>
<path d="M332.142 118.982C332.142 118.982 342.571 131.04 345.178 131.366C347.785 131.692 336.704 145.705 336.704 145.705C336.704 145.705 330.512 135.277 326.276 134.299C322.039 133.321 332.142 118.982 332.142 118.982Z" fill="#FFB9B9"/>
<path d="M347.133 131.04L345.504 128.759C345.504 128.759 334.275 138.769 333.86 141.422C333.581 142.911 333.9 144.451 334.749 145.705L341.267 142.772L344.526 136.254L347.133 131.04Z" fill="#3F3D56"/>
<path d="M310.661 125.666C313.123 117.796 323.512 129.72 324.972 125.826C325.95 123.219 328.452 120.82 330.134 122.834C332.633 125.826 338.534 129.497 339.366 124.531C340.048 120.459 341.573 112.291 334.749 108.879C325.941 97.8269 305.763 104.218 304.441 118.004C304.446 118.016 303.24 126.111 310.661 125.666Z" fill="#2F2E41"/>
<path d="M348.763 132.995C348.763 132.995 348.437 130.062 345.504 130.714C342.571 131.366 334.749 144.402 334.749 144.402C333.472 148.564 332.492 152.811 331.816 157.112C330.512 164.933 327.905 193.612 325.298 198.501C322.691 203.389 327.579 214.795 327.579 214.795C327.579 214.795 330.512 211.536 339.963 213.492C349.414 215.447 361.798 217.403 362.776 216.425C363.754 215.447 361.798 212.84 364.406 209.581C367.013 206.322 370.598 144.728 357.562 137.884C357.562 137.884 351.37 132.995 348.763 132.995Z" fill="url(#paint5_linear)"/>
<path opacity="0.1" d="M345.504 142.772C345.504 142.772 332.142 146.357 338.334 157.764C338.334 157.764 348.437 177.643 344.2 178.947C339.963 180.25 320.41 179.599 320.41 179.599C320.41 179.599 318.291 186.605 320.573 186.931C322.854 187.257 356.91 198.827 360.821 191.657C364.732 184.487 360.821 153.527 360.821 153.527C360.821 153.527 355.281 138.21 345.504 142.772Z" fill="black"/>
<path d="M288.483 178.072L310.143 189.97C310.269 190.053 310.411 190.108 310.56 190.131C310.709 190.153 310.861 190.143 311.006 190.1C311.151 190.057 311.284 189.984 311.397 189.884C311.51 189.784 311.6 189.661 311.66 189.522L316.966 178.431C317.067 178.115 317.05 177.773 316.92 177.468C316.79 177.163 316.554 176.915 316.257 176.769L298.273 167.499C298.051 167.366 297.788 167.319 297.535 167.367C297.281 167.416 297.054 167.556 296.897 167.762L287.914 176.225C287.825 176.383 287.77 176.557 287.751 176.736C287.732 176.916 287.749 177.098 287.802 177.27C287.855 177.443 287.943 177.603 288.06 177.741C288.177 177.879 288.321 177.991 288.483 178.072Z" fill="#2F2E41"/>
<path d="M289.928 176.433L310.235 188.04L315.638 178.301L298.218 168.827L289.928 176.433Z" fill="#3F3D56"/>
<path d="M307.353 173.145C307.461 173.055 307.463 172.879 307.357 172.752C307.251 172.625 307.078 172.596 306.97 172.686C306.862 172.776 306.86 172.952 306.966 173.079C307.071 173.205 307.245 173.235 307.353 173.145Z" fill="#F2F2F2"/>
<path d="M299.749 183.032C299.821 182.972 299.822 182.855 299.751 182.771C299.681 182.686 299.566 182.667 299.494 182.727C299.422 182.787 299.421 182.904 299.491 182.988C299.561 183.072 299.677 183.092 299.749 183.032Z" fill="#F2F2F2"/>
<path d="M320.781 187.964C320.781 187.964 299.891 189.429 302.78 185.54C305.67 181.652 319.512 178.719 321.911 179.791C324.31 180.864 320.781 187.964 320.781 187.964Z" fill="#FFB9B9"/>
<path d="M345.504 140.817C345.504 140.817 332.142 144.402 338.334 155.808C338.334 155.808 348.437 175.688 344.2 176.991C339.964 178.295 320.41 177.643 320.41 177.643C320.41 177.643 315.847 188.724 318.128 189.05C320.41 189.375 356.91 196.871 360.821 189.701C364.732 182.532 360.821 151.571 360.821 151.571C360.821 151.571 355.281 136.254 345.504 140.817Z" fill="url(#paint6_linear)"/>
<path d="M61.298 126.788C65.536 126.788 68.9715 123.352 68.9715 119.114C68.9715 114.876 65.536 111.441 61.298 111.441C57.0601 111.441 53.6245 114.876 53.6245 119.114C53.6245 123.352 57.0601 126.788 61.298 126.788Z" fill="url(#paint7_linear)"/>
<path d="M128.102 224.964C132.34 224.964 135.776 221.528 135.776 217.29C135.776 213.052 132.34 209.617 128.102 209.617C123.865 209.617 120.429 213.052 120.429 217.29C120.429 221.528 123.865 224.964 128.102 224.964Z" fill="url(#paint8_linear)"/>
<path d="M224.247 164.027C228.485 164.027 231.921 160.591 231.921 156.353C231.921 152.115 228.485 148.68 224.247 148.68C220.01 148.68 216.574 152.115 216.574 156.353C216.574 160.591 220.01 164.027 224.247 164.027Z" fill="url(#paint9_linear)"/>
<path d="M182.37 136.933H77.2061C73.8348 136.933 71.1018 139.666 71.1018 143.037V189.134C71.1018 192.505 73.8348 195.238 77.2061 195.238H182.37C185.741 195.238 188.474 192.505 188.474 189.134V143.037C188.474 139.666 185.741 136.933 182.37 136.933Z" fill="white"/>
<path d="M97.2008 154.548C90.0973 154.534 84.3257 160.241 84.3186 167.291C84.3116 171.585 86.4821 175.6 90.0902 177.964V175.803C90.0972 174.341 91.1966 173.11 92.6624 172.928C94.0155 175.383 97.1162 176.278 99.5897 174.935C100.442 174.474 101.147 173.774 101.612 172.928C103.078 173.11 104.177 174.341 104.184 175.803V178.02C110.146 174.18 111.838 166.277 107.976 160.367C105.608 156.744 101.549 154.555 97.2008 154.548ZM102.035 170.466C101.232 173.145 98.3917 174.677 95.6927 173.879C93.5292 173.243 92.0423 171.271 92.0423 169.026C92.0423 168.151 92.2678 167.291 92.7047 166.536L92.6483 166.501C92.0634 165.801 92.1339 164.766 92.8174 164.158C93.1486 163.976 93.501 163.843 93.8745 163.773C94.9879 163.451 95.9464 162.724 96.5524 161.745C96.5736 162.004 96.5736 162.255 96.5524 162.514C96.9753 162.06 97.694 162.025 98.1521 162.451C98.1591 162.451 98.1592 162.458 98.1662 162.458C98.8741 163.161 99.5079 163.17 100.478 163.297C103.502 162.995 104.304 170.654 102.035 170.466Z" fill="url(#paint10_linear)"/>
<path d="M269.162 217.29H163.998C160.627 217.29 157.894 220.023 157.894 223.394V269.491C157.894 272.862 160.627 275.595 163.998 275.595H269.162C272.533 275.595 275.266 272.862 275.266 269.491V223.394C275.266 220.023 272.533 217.29 269.162 217.29Z" fill="url(#paint11_linear)" fill-opacity="0.4"/>
<path d="M280.358 206.006H175.194C171.823 206.006 169.09 208.739 169.09 212.11V258.206C169.09 261.578 171.823 264.311 175.194 264.311H280.358C283.729 264.311 286.462 261.578 286.462 258.206V212.11C286.462 208.739 283.729 206.006 280.358 206.006Z" fill="white"/>
<path d="M142.547 156.353H118.172V159.513H142.547V156.353Z" fill="url(#paint12_linear)"/>
<path opacity="0.2" d="M171.436 164.478H118.172V167.638H171.436V164.478Z" fill="url(#paint13_linear)"/>
<path opacity="0.2" d="M171.436 172.603H118.172V175.763H171.436V172.603Z" fill="url(#paint14_linear)"/>
<path d="M196.957 223.61C189.853 223.596 184.082 229.303 184.074 236.353C184.067 240.647 186.238 244.662 189.846 247.026V244.864C189.853 243.403 190.952 242.172 192.418 241.99C193.771 244.445 196.872 245.34 199.346 243.997C200.198 243.536 200.903 242.836 201.368 241.99C202.834 242.172 203.933 243.403 203.94 244.864V247.081C209.902 243.242 211.593 235.339 207.732 229.429C205.364 225.806 201.305 223.617 196.957 223.61ZM201.791 239.528C200.988 242.207 198.148 243.738 195.449 242.941C193.285 242.305 191.798 240.332 191.798 238.087C191.798 237.213 192.024 236.353 192.461 235.597L192.404 235.562C191.819 234.863 191.89 233.828 192.573 233.219C192.905 233.037 193.257 232.905 193.63 232.835C194.744 232.513 195.702 231.786 196.308 230.806C196.329 231.065 196.329 231.317 196.308 231.576C196.731 231.121 197.45 231.086 197.908 231.513C197.915 231.513 197.915 231.52 197.922 231.52C198.63 232.222 199.264 232.231 200.233 232.359C203.258 232.057 204.06 239.716 201.791 239.528Z" fill="url(#paint15_linear)"/>
<path d="M242.303 225.415H217.928V228.575H242.303V225.415Z" fill="url(#paint16_linear)"/>
<path opacity="0.2" d="M271.191 233.54H217.928V236.7H271.191V233.54Z" fill="url(#paint17_linear)"/>
<path opacity="0.2" d="M271.191 241.665H217.928V244.825H271.191V241.665Z" fill="url(#paint18_linear)"/>
<defs>
<linearGradient id="paint0_linear" x1="145.403" y1="154.271" x2="117.359" y2="200.547" gradientUnits="userSpaceOnUse">
<stop stop-color="#f9a602"/>
<stop offset="1" stop-color="#ffcc00"/>
</linearGradient>
<linearGradient id="paint1_linear" x1="261.305" y1="220.594" x2="131.713" y2="68.4988" gradientUnits="userSpaceOnUse">
<stop stop-color="#575757"/>
<stop offset="0.0001" stop-color="#575757"/>
<stop offset="1" stop-color="#505050"/>
</linearGradient>
<linearGradient id="paint2_linear" x1="340.508" y1="160.754" x2="313.585" y2="179.581" gradientUnits="userSpaceOnUse">
<stop stop-color="#f9a602"/>
<stop offset="1" stop-color="#ffcc00"/>
</linearGradient>
<linearGradient id="paint3_linear" x1="393.02" y1="313.308" x2="378.711" y2="320.729" gradientUnits="userSpaceOnUse">
<stop stop-color="#f9a602"/>
<stop offset="1" stop-color="#ffcc00"/>
</linearGradient>
<linearGradient id="paint4_linear" x1="316.661" y1="331.796" x2="308.154" y2="346.576" gradientUnits="userSpaceOnUse">
<stop stop-color="#f9a602"/>
<stop offset="1" stop-color="#ffcc00"/>
</linearGradient>
<linearGradient id="paint5_linear" x1="347.406" y1="170.855" x2="314.987" y2="183.941" gradientUnits="userSpaceOnUse">
<stop stop-color="#f9a602"/>
<stop offset="1" stop-color="#ffcc00"/>
</linearGradient>
<linearGradient id="paint6_linear" x1="341.812" y1="164.664" x2="314.889" y2="183.492" gradientUnits="userSpaceOnUse">
<stop stop-color="#f9a602"/>
<stop offset="1" stop-color="#ffcc00"/>
</linearGradient>
<linearGradient id="paint7_linear" x1="61.9068" y1="118.616" x2="53.7415" y2="125.308" gradientUnits="userSpaceOnUse">
<stop stop-color="#f9a602"/>
<stop offset="1" stop-color="#ffcc00"/>
</linearGradient>
<linearGradient id="paint8_linear" x1="128.711" y1="216.791" x2="120.546" y2="223.484" gradientUnits="userSpaceOnUse">
<stop stop-color="#f9a602"/>
<stop offset="1" stop-color="#ffcc00"/>
</linearGradient>
<linearGradient id="paint9_linear" x1="224.856" y1="155.855" x2="216.691" y2="162.548" gradientUnits="userSpaceOnUse">
<stop stop-color="#f9a602"/>
<stop offset="1" stop-color="#ffcc00"/>
</linearGradient>
<linearGradient id="paint10_linear" x1="98.2036" y1="165.521" x2="85.5405" y2="176.899" gradientUnits="userSpaceOnUse">
<stop stop-color="#f9a602"/>
<stop offset="1" stop-color="#ffcc00"/>
</linearGradient>
<linearGradient id="paint11_linear" x1="221.236" y1="244.548" x2="193.191" y2="290.824" gradientUnits="userSpaceOnUse">
<stop stop-color="#f9a602"/>
<stop offset="1" stop-color="#ffcc00"/>
</linearGradient>
<linearGradient id="paint12_linear" x1="131.327" y1="157.831" x2="130.798" y2="161.176" gradientUnits="userSpaceOnUse">
<stop stop-color="#f9a602"/>
<stop offset="1" stop-color="#ffcc00"/>
</linearGradient>
<linearGradient id="paint13_linear" x1="146.917" y1="165.955" x2="146.67" y2="169.366" gradientUnits="userSpaceOnUse">
<stop stop-color="#f9a602"/>
<stop offset="1" stop-color="#ffcc00"/>
</linearGradient>
<linearGradient id="paint14_linear" x1="146.917" y1="174.08" x2="146.67" y2="177.491" gradientUnits="userSpaceOnUse">
<stop stop-color="#f9a602"/>
<stop offset="1" stop-color="#ffcc00"/>
</linearGradient>
<linearGradient id="paint15_linear" x1="197.959" y1="234.583" x2="185.296" y2="245.96" gradientUnits="userSpaceOnUse">
<stop stop-color="#f9a602"/>
<stop offset="1" stop-color="#ffcc00"/>
</linearGradient>
<linearGradient id="paint16_linear" x1="231.082" y1="226.892" x2="230.553" y2="230.237" gradientUnits="userSpaceOnUse">
<stop stop-color="#f9a602"/>
<stop offset="1" stop-color="#ffcc00"/>
</linearGradient>
<linearGradient id="paint17_linear" x1="246.672" y1="235.017" x2="246.425" y2="238.428" gradientUnits="userSpaceOnUse">
<stop stop-color="#f9a602"/>
<stop offset="1" stop-color="#ffcc00"/>
</linearGradient>
<linearGradient id="paint18_linear" x1="246.672" y1="243.142" x2="246.425" y2="246.553" gradientUnits="userSpaceOnUse">
<stop stop-color="#f9a602"/>
<stop offset="1" stop-color="#ffcc00"/>
</linearGradient>
</defs>
</svg>
