<svg xmlns="http://www.w3.org/2000/svg" width="40" height="38" viewBox="0 0 40 38" fill="none"><path d="M37.5073 12.7285L26.8542 11.1476L22.0927 1.32106C21.2396 -0.430504 18.7677 -0.45277 17.9073 1.32106L13.1458 11.1476L2.4927 12.7285C0.582286 13.0105 -0.183339 15.4078 1.20208 16.7808L8.90937 24.4254L7.08645 35.2242C6.75833 37.1761 8.77812 38.6382 10.4698 37.7254L20 32.6265L29.5302 37.7254C31.2219 38.6308 33.2417 37.1761 32.9135 35.2242L31.0906 24.4254L38.7979 16.7808C40.1833 15.4078 39.4177 13.0105 37.5073 12.7285V12.7285ZM28.5896 23.5941L30.6167 35.6175L20 29.9472L9.39062 35.625L11.4177 23.6015L2.82812 15.0738L14.6917 13.3222L20 2.37496L25.3083 13.3222L37.1719 15.0738L28.5896 23.5941Z" fill="#ffcc00"></path></svg>